<svg xmlns="http://www.w3.org/2000/svg" xmlns:xlink="http://www.w3.org/1999/xlink" width="204.421" height="139.057" viewBox="0 0 204.421 139.057">
  <defs>
    <clipPath id="clip-path">
      <path id="Path_467" data-name="Path 467" d="M1669.748,615.323c-1.329.124-6.172,2.438-12.239,8.882,0,0,5.255,9.06,6.105,9.6.513.326,2.872-1.474,4.391-2.713a32.679,32.679,0,0,0,.134,3.952c.28.91,16.645,5.735,17.554,5.175a2.667,2.667,0,0,0,.476-1.16c1.482,1.05,3.152,2.166,3.306,1.975.28-.35,5.52-9.067,5.52-9.067-1.259-2.378-6.714-8.322-6.714-8.322a14.364,14.364,0,0,0-3.459-3.122c-.5-.3-2.164-.722-3.952-1.358-2-.711-4.15-1.642-4.956-1.919-1.386-.476-3.979-1.973-5.676-1.973A2.265,2.265,0,0,0,1669.748,615.323Z" transform="translate(-1657.509 -615.274)" fill="none"/>
    </clipPath>
  </defs>
  <g id="Group_739" data-name="Group 739" transform="translate(-0.408 0.083)">
    <path id="Path_424" data-name="Path 424" d="M.452-.083c4.479,0,188.468.032,204.37.032l.006,139.026H.408Z" fill="#30baac"/>
    <ellipse id="Ellipse_19" data-name="Ellipse 19" cx="56.5" cy="56" rx="56.5" ry="56" transform="translate(47 14)" fill="#40c7b9"/>
    <g id="Group_648" data-name="Group 648" transform="translate(58.819 15.146)">
      <g id="Group_648-2" data-name="Group 648" transform="translate(28.473 32.29)">
        <path id="Path_424-2" data-name="Path 424" d="M1799.881,845.929s0,.2.01.554a28.493,28.493,0,0,0,.929,6.646,32.662,32.662,0,0,0,12.209,3.052,32.326,32.326,0,0,0,1.8-5.635Z" transform="translate(-1799.881 -845.929)" fill="#fff"/>
      </g>
      <g id="Group_649" data-name="Group 649" transform="translate(4.8 84.123)">
        <path id="Path_425" data-name="Path 425" d="M1518.85,1461.254l1.62,18.4a19.3,19.3,0,0,0,6.984-1.277l1.517-9.359Z" transform="translate(-1518.85 -1461.254)" fill="#fff"/>
      </g>
      <g id="Group_650" data-name="Group 650" transform="translate(2.166 101.243)">
        <path id="Path_426" data-name="Path 426" d="M1491.838,1665.76s-4.372,3.871-4.251,5.436c.137,1.783,11.231-.2,11.841-.869.458-.5-.6-5.845-.6-5.845Z" transform="translate(-1487.584 -1664.482)" fill="#0c2f2b"/>
      </g>
      <g id="Group_651" data-name="Group 651" transform="translate(5.272 101.244)">
        <path id="Path_427" data-name="Path 427" d="M1532.585,1664.5s-3.683,3.087-6.338,3.363c-1.582.169-1.842-.471-1.79-1.012.649-.64,1.141-1.076,1.141-1.076Z" transform="translate(-1524.451 -1664.496)" fill="#fff"/>
      </g>
      <g id="Group_653" data-name="Group 653" transform="translate(2.169 102.96)">
        <g id="Group_652" data-name="Group 652" transform="translate(0)">
          <path id="Path_428" data-name="Path 428" d="M1499.462,1689c-.609.671-11.7,2.65-11.842.869,0,0,.454,1.137,6.087-.5a7.967,7.967,0,0,0,5.46-4.5C1499.436,1686.477,1499.748,1688.683,1499.462,1689Z" transform="translate(-1487.621 -1684.869)" fill="#0c2f2b"/>
        </g>
      </g>
      <g id="Group_654" data-name="Group 654" transform="translate(0 41.101)">
        <path id="Path_429" data-name="Path 429" d="M1501,952.516l-11.463-1.989s-22.177,19.037-23.592,23.092c-1.233,3.534-2.981,12.472-4.076,30.316a39.023,39.023,0,0,0,15.26,1.174,168.7,168.7,0,0,0,1.545-24.513s17.3-13.783,21.686-18.009Z" transform="translate(-1461.87 -950.527)" fill="#2ba4d1"/>
      </g>
      <g id="Group_656" data-name="Group 656" transform="translate(8.447 71.279)">
        <g id="Group_655" data-name="Group 655" transform="translate(0)">
          <path id="Path_430" data-name="Path 430" d="M1568.956,1333.182a45.414,45.414,0,0,1-6.814.19c3.333-4.916,4.237-22.222,4.237-22.222a13.394,13.394,0,0,0,4.12-2.374A169.231,169.231,0,0,1,1568.956,1333.182Z" transform="translate(-1562.142 -1308.776)" fill="#1d95c2"/>
        </g>
      </g>
      <g id="Group_658" data-name="Group 658" transform="translate(2.874 60.955)">
        <g id="Group_657" data-name="Group 657" transform="translate(0 0)">
          <path id="Path_431" data-name="Path 431" d="M1501.482,1189.907c-.263,1.894-3.645,3.48-5.495,4.211a37.959,37.959,0,0,1,1.2-4.661,12.863,12.863,0,0,1,2.343-3.238C1500.557,1187.105,1501.686,1188.437,1501.482,1189.907Z" transform="translate(-1495.987 -1186.219)" fill="#1d95c2"/>
        </g>
      </g>
      <g id="Group_659" data-name="Group 659" transform="translate(0 80.6)">
        <path id="Path_432" data-name="Path 432" d="M1478.411,1421.483c-.454,7.363-1.28,13.025-1.28,13.025a39.147,39.147,0,0,1-15.26-1.176c.333-5.428.726-10.031,1.147-13.909C1467.136,1421.132,1473.387,1421.821,1478.411,1421.483Z" transform="translate(-1461.87 -1419.423)" fill="#6ec5bd"/>
      </g>
      <g id="Group_660" data-name="Group 660" transform="translate(0.827 83.922)">
        <path id="Path_433" data-name="Path 433" d="M1483.418,1460.605a43.215,43.215,0,0,1-11.695-1.641.054.054,0,1,1,.03-.1,42.3,42.3,0,0,0,15.48,1.452h.005a.054.054,0,0,1,.005.108C1485.986,1460.543,1484.707,1460.605,1483.418,1460.605Z" transform="translate(-1471.684 -1458.859)" fill="#2ba4d1"/>
      </g>
      <g id="Group_661" data-name="Group 661" transform="translate(58.406 84.817)">
        <path id="Path_434" data-name="Path 434" d="M2164.937,1469.489l-1.62,18.4a19.312,19.312,0,0,1-6.985-1.278l-1.113-9.375Z" transform="translate(-2155.219 -1469.489)" fill="#fff"/>
      </g>
      <g id="Group_662" data-name="Group 662" transform="translate(34.812 43.09)">
        <path id="Path_435" data-name="Path 435" d="M1909.339,992.139c-1.045-2.621-9-6.887-14.166-9.7s-11.583-6.417-11.583-6.417l-8.452-1.879.235,10.879c4.383,4.227,21.942,15.49,21.942,15.49a193.377,193.377,0,0,0,1.693,26.224,39.03,39.03,0,0,0,15.262-1.174C1913.174,1007.714,1910.726,995.617,1909.339,992.139Z" transform="translate(-1875.138 -974.139)" fill="#2ba4d1"/>
      </g>
      <g id="Group_664" data-name="Group 664" transform="translate(36.319 53.609)">
        <g id="Group_663" data-name="Group 663" transform="translate(0 0)">
          <path id="Path_436" data-name="Path 436" d="M1913.736,1109.311l-.117,5.508c-1.1-.7-15.036-9.688-20.592-14.31l-.008-.022,1.146.069.195-1.539a16.274,16.274,0,0,1,4.928,3.026c2.6,2.253,5.063,5.063,7.138,5.885S1912.482,1108.706,1913.736,1109.311Z" transform="translate(-1893.019 -1099.017)" fill="#1d95c2"/>
        </g>
      </g>
      <g id="Group_666" data-name="Group 666" transform="translate(64.999 57.31)">
        <g id="Group_665" data-name="Group 665" transform="translate(0 0)">
          <path id="Path_437" data-name="Path 437" d="M2240.851,1163.3c-6.368-4.077-7.241-17.237-7.358-20.345,2.041,1.392,3.593,2.719,4.012,3.779C2238.4,1148.961,2239.723,1154.737,2240.851,1163.3Z" transform="translate(-2233.493 -1142.952)" fill="#1d95c2"/>
        </g>
      </g>
      <g id="Group_667" data-name="Group 667" transform="translate(57.389 81.659)">
        <path id="Path_438" data-name="Path 438" d="M2159.7,1444.848a39.029,39.029,0,0,1-15.264,1.176s-.784-5.633-1.293-12.8A45.407,45.407,0,0,0,2158.6,1432C2159.03,1435.847,2159.409,1440.149,2159.7,1444.848Z" transform="translate(-2143.144 -1431.998)" fill="#6ec5bd"/>
      </g>
      <g id="Group_668" data-name="Group 668" transform="translate(57.601 84.668)">
        <path id="Path_439" data-name="Path 439" d="M2150.858,1469.131a43.668,43.668,0,0,1-5.15-.3.054.054,0,0,1-.047-.06.052.052,0,0,1,.06-.047,42.265,42.265,0,0,0,15.516-1,.055.055,0,0,1,.066.039.054.054,0,0,1-.039.066A41.307,41.307,0,0,1,2150.858,1469.131Z" transform="translate(-2145.661 -1467.721)" fill="#2ba4d1"/>
      </g>
      <g id="Group_669" data-name="Group 669" transform="translate(58.93 101.936)">
        <path id="Path_440" data-name="Path 440" d="M2169.018,1673.99s4.633,2.563,4.512,4.127c-.137,1.783-11.348,1.353-11.958.681-.458-.5.461-6.087.461-6.087Z" transform="translate(-2161.445 -1672.711)" fill="#0c2f2b"/>
      </g>
      <g id="Group_670" data-name="Group 670" transform="translate(59.518 101.935)">
        <path id="Path_441" data-name="Path 441" d="M2176.8,1674.835c-2.04,2.13-7.632-.231-8.387-2.132l6.986,1.279S2176.022,1674.324,2176.8,1674.835Z" transform="translate(-2168.417 -1672.703)" fill="#fff"/>
      </g>
      <g id="Group_672" data-name="Group 672" transform="translate(64.995 105.23)">
        <g id="Group_671" data-name="Group 671" transform="translate(0 0)">
          <path id="Path_442" data-name="Path 442" d="M2239.466,1713.923c-.072.912-3.048,1.25-6.022,1.267,1.6-.527,3.921-1.578,4.5-3.376C2238.809,1712.527,2239.515,1713.3,2239.466,1713.923Z" transform="translate(-2233.444 -1711.813)" fill="#0c2f2b"/>
        </g>
      </g>
      <g id="Group_673" data-name="Group 673" transform="translate(27.534 38.152)">
        <path id="Path_443" data-name="Path 443" d="M1789.283,915.521c-.492.152-.548,3.052-.548,3.052,4.623,2.106,9.727,3.9,15.731,3.757,0,0,.495-2.473.235-2.9-.146-.237-3.441-.638-7.181-1.431C1794.606,917.386,1789.775,915.37,1789.283,915.521Z" transform="translate(-1788.735 -915.513)" fill="#2ba4d1"/>
      </g>
      <g id="Group_675" data-name="Group 675" transform="translate(27.953 41.323)">
        <g id="Group_674" data-name="Group 674" transform="translate(0 0)">
          <path id="Path_444" data-name="Path 444" d="M1809.293,954.974c-.073.834-.272,1.833-.272,1.833a34.54,34.54,0,0,1-15.2-3.515l-.112-.13A84.851,84.851,0,0,0,1809.293,954.974Z" transform="translate(-1793.708 -953.163)" fill="#1d95c2"/>
        </g>
      </g>
      <g id="Group_676" data-name="Group 676" transform="translate(42.816 21.536)">
        <path id="Path_445" data-name="Path 445" d="M1976.89,721.789l7.507,7.933,12.953-11.456,4.622,3.478s-11.86,15.058-16.466,17.1c-4.474,1.988-15.354-8.872-15.354-8.872Z" transform="translate(-1970.151 -718.266)" fill="#fff"/>
      </g>
      <g id="Group_677" data-name="Group 677" transform="translate(69.988 17.518)">
        <path id="Path_446" data-name="Path 446" d="M2292.72,674.6a16.674,16.674,0,0,1,3.925-2.6c2.538-1.151,5.66-1.718,5.792-1.291.3.982-3.916,3.756-3.916,3.756l-4.883,1.628Z" transform="translate(-2292.72 -670.571)" fill="#fff"/>
      </g>
      <g id="Group_678" data-name="Group 678" transform="translate(70.987 19.986)">
        <path id="Path_447" data-name="Path 447" d="M2307.654,703.778a54.4,54.4,0,0,0,7.872-.82c1.047-.267,2.387-1.062,3.319-1.281,1.922-.452,2.013-1.024,1.809-1.515-.168-.4-2.754-.292-5.646-.24-3.042.054-6.426.065-7.849.217-.948,1.216-3.617,2.864-2.152,3.638Z" transform="translate(-2304.576 -699.868)" fill="#fff"/>
      </g>
      <g id="Group_679" data-name="Group 679" transform="translate(71.384 23.133)">
        <path id="Path_448" data-name="Path 448" d="M2321.237,738.829c.909-.3,1.953-.7,1.545-1.251-.646-.877-12.323.108-13.5.5a6.712,6.712,0,0,0,2.468,1.961c.7-.813,1.928-.339,5.094-.527A28.4,28.4,0,0,0,2321.237,738.829Z" transform="translate(-2309.283 -737.225)" fill="#fff"/>
      </g>
      <g id="Group_680" data-name="Group 680" transform="translate(78.98 21.749)">
        <path id="Path_449" data-name="Path 449" d="M2404.67,722.346s1.821-.355,1.867-1.128c.036-.606-1.468-.457-2.745-.237s-4.332,1.1-4.332,1.1L2402,723Z" transform="translate(-2399.461 -720.789)" fill="#fff"/>
      </g>
      <g id="Group_681" data-name="Group 681" transform="translate(75.194 19.943)">
        <path id="Path_450" data-name="Path 450" d="M2366.457,699.945a.053.053,0,0,1-.052-.04c-.1-.351-.632-.456-2.375-.442-3.561.018-9.4.253-9.46.256a.054.054,0,0,1-.056-.052.053.053,0,0,1,.052-.056c.059,0,5.9-.238,9.463-.256h.188c1.682,0,2.183.118,2.292.522a.053.053,0,0,1-.038.066Z" transform="translate(-2354.514 -699.354)" fill="#0c2f2b"/>
      </g>
      <g id="Group_682" data-name="Group 682" transform="translate(79.661 21.45)">
        <path id="Path_451" data-name="Path 451" d="M2408.595,718c-.379,0-.72-.01-1-.031a.055.055,0,0,1-.05-.058.057.057,0,0,1,.058-.05,22.026,22.026,0,0,0,6.457-.62.055.055,0,0,1,.068.035.054.054,0,0,1-.035.068A21.237,21.237,0,0,1,2408.595,718Z" transform="translate(-2407.543 -717.242)" fill="#0c2f2b"/>
      </g>
      <g id="Group_683" data-name="Group 683" transform="translate(79.136 23.06)">
        <path id="Path_452" data-name="Path 452" d="M2401.366,737.047a.054.054,0,0,1,0-.108,32.493,32.493,0,0,0,5.6-.583.053.053,0,0,1,.068.034.054.054,0,0,1-.034.068,31.77,31.77,0,0,1-5.627.588Z" transform="translate(-2401.312 -736.353)" fill="#0c2f2b"/>
      </g>
      <g id="Group_684" data-name="Group 684" transform="translate(21.471 46.491)">
        <path id="Path_453" data-name="Path 453" d="M1723,1016.374s1.651,2.118,3.095,4.035c1.329,1.765,1.444,2.613.986,2.889-.948.569-3.951-3.831-3.951-3.831s3.2,5.021,2.346,5.665c-1.123.848-3.8-4.575-3.8-4.575s2.1,4.758,1.025,5.125c-.783.267-2.474-4.291-2.474-4.291s.752,3.636.136,3.741c-.673.114-1.707-3.543-1.707-3.543l-1.9-4.291,2.263-2.788Z" transform="translate(-1716.752 -1014.51)" fill="#fff"/>
      </g>
      <g id="Group_685" data-name="Group 685" transform="translate(23.261 45.1)">
        <path id="Path_454" data-name="Path 454" d="M1739.976,998s8.075,3.26,7.856,4.063-5.808-.35-5.808-.35l-4.014-1.691Z" transform="translate(-1738.011 -998.003)" fill="#fff"/>
      </g>
      <g id="Group_686" data-name="Group 686" transform="translate(27.225 47.911)">
        <path id="Path_455" data-name="Path 455" d="M1786.8,1033.429a.054.054,0,0,1-.041-.019l-1.674-1.948a.054.054,0,1,1,.082-.07l1.674,1.948a.054.054,0,0,1-.006.076A.055.055,0,0,1,1786.8,1033.429Z" transform="translate(-1785.071 -1031.372)" fill="#0c2f2b"/>
      </g>
      <g id="Group_687" data-name="Group 687" transform="translate(5.968 21.825)">
        <path id="Path_456" data-name="Path 456" d="M1553.371,746.48l-4.989,2.957s-13.925-9.023-15.533-13.8c-1.371-4.06,8.028-12.014,10.393-13.938.3.514,3.93,6.74,5.491,8.876l-6.338,4.517Z" transform="translate(-1532.713 -721.699)" fill="#fff"/>
      </g>
      <g id="Group_688" data-name="Group 688" transform="translate(42.816 21.232)">
        <path id="Path_457" data-name="Path 457" d="M1974.585,714.66s5.455,5.945,6.714,8.322c0,0-5.24,8.717-5.52,9.067s-5.63-3.668-5.63-3.668Z" transform="translate(-1970.149 -714.66)" fill="#6ec5bd"/>
      </g>
      <g id="Group_689" data-name="Group 689" transform="translate(26.976 12.86)">
        <path id="Path_458" data-name="Path 458" d="M1783.855,615.322c1.644-.365,4.637,1.4,6.165,1.923.806.277,2.959,1.207,4.956,1.919,1.789.637,3.45,1.056,3.953,1.358a14.348,14.348,0,0,1,3.459,3.122c.414.514-1.679,16.015-2.588,16.574s-17.274-4.266-17.554-5.175S1781.967,615.742,1783.855,615.322Z" transform="translate(-1782.112 -615.273)" fill="#6ec5bd"/>
      </g>
      <g id="Group_690" data-name="Group 690" transform="translate(16.48 12.91)">
        <path id="Path_459" data-name="Path 459" d="M1669.748,615.859c-1.328.124-6.171,2.438-12.239,8.882,0,0,5.255,9.06,6.105,9.6.77.49,5.7-3.814,5.7-3.814Z" transform="translate(-1657.509 -615.859)" fill="#6ec5bd"/>
      </g>
      <g id="Group_699" data-name="Group 699" transform="translate(16.48 12.86)">
        <g id="Group_698" data-name="Group 698" transform="translate(0 0)" clip-path="url(#clip-path)">
          <g id="Group_691" data-name="Group 691" transform="translate(11.977 -1.82)">
            <path id="Path_460" data-name="Path 460" d="M1807.3,610.944a3.575,3.575,0,0,1-1.937-.547c-2.663-1.664-3.141-6.9-3.458-10.372-.059-.644-.115-1.253-.177-1.751a7.384,7.384,0,0,0-2.022-4.517.054.054,0,0,1,.071-.082,5,5,0,0,1,.884,1.111,8.618,8.618,0,0,1,1.175,3.474c.062.5.118,1.11.177,1.755.315,3.447.791,8.655,3.407,10.29,2.215,1.385,4.9-.242,7.048-1.549a14.752,14.752,0,0,1,2.4-1.281,5,5,0,0,1,3.429.415,5.988,5.988,0,0,0,4.417.37.054.054,0,1,1,.038.1,6.074,6.074,0,0,1-4.492-.37,4.912,4.912,0,0,0-3.356-.414,14.7,14.7,0,0,0-2.38,1.271C1810.945,609.811,1809.079,610.944,1807.3,610.944Z" transform="translate(-1799.692 -593.663)" fill="#fbfafc"/>
          </g>
          <g id="Group_692" data-name="Group 692" transform="translate(3.15 12.951)">
            <path id="Path_461" data-name="Path 461" d="M1708.646,779.068a.054.054,0,0,1-.053-.044c-.765-3.912-2.62-8.79-7.108-9.815a6.949,6.949,0,0,0-6.49,2.654.054.054,0,1,1-.084-.067,7.062,7.062,0,0,1,6.6-2.692c2.509.573,5.793,2.755,7.19,9.9a.054.054,0,0,1-.043.064Z" transform="translate(-1694.899 -769.013)" fill="#fbfafc"/>
          </g>
          <g id="Group_693" data-name="Group 693" transform="translate(20.609 16.156)">
            <path id="Path_462" data-name="Path 462" d="M1902.216,815.8a.056.056,0,0,1-.033-.011.054.054,0,0,1-.009-.076,4.809,4.809,0,0,0,.852-3.411c-.282-1.783-.632-4,1.6-5a2.536,2.536,0,0,1,2.094-.013,5,5,0,0,1,2.452,3.027l.12.35c.728,2.124,1.3,3.8,2.953,4.037a3.953,3.953,0,0,0,.845-.006,1.9,1.9,0,0,1,1.953.628.054.054,0,1,1-.087.064,1.819,1.819,0,0,0-1.857-.584,4.082,4.082,0,0,1-.868.005c-1.717-.245-2.3-1.951-3.041-4.11l-.12-.349a4.895,4.895,0,0,0-2.393-2.963,2.431,2.431,0,0,0-2.006.013c-2,.894-1.877,2.741-1.538,4.886a4.926,4.926,0,0,1-.874,3.495A.054.054,0,0,1,1902.216,815.8Z" transform="translate(-1902.162 -807.066)" fill="#fbfafc"/>
          </g>
          <g id="Group_694" data-name="Group 694" transform="translate(32.922 13.333)">
            <path id="Path_463" data-name="Path 463" d="M2051.616,781.219a3.294,3.294,0,0,1-2.451-.983,3.36,3.36,0,0,1-.8-2.776c.272-2.392,3.421-3.885,3.453-3.9a.054.054,0,0,1,.072.026.055.055,0,0,1-.026.072c-.031.014-3.126,1.481-3.391,3.813a3.06,3.06,0,0,0,3.365,3.633.056.056,0,0,1,.057.051.055.055,0,0,1-.052.057C2051.767,781.217,2051.691,781.219,2051.616,781.219Z" transform="translate(-2048.335 -773.555)" fill="#fbfafc"/>
          </g>
          <g id="Group_695" data-name="Group 695" transform="translate(2.699 -0.3)">
            <path id="Path_464" data-name="Path 464" d="M1689.6,628.385a.054.054,0,0,1-.054-.054,13.945,13.945,0,0,1,1.583-6.165,6.906,6.906,0,0,1,2.667-2.655,8.013,8.013,0,0,0,2.009-1.644c1.167-1.355.853-2.992.577-4.437a8.058,8.058,0,0,1-.21-1.667.052.052,0,0,1,.056-.052.054.054,0,0,1,.052.056,8,8,0,0,0,.208,1.643c.281,1.469.6,3.133-.6,4.528a8.1,8.1,0,0,1-2.033,1.664,6.823,6.823,0,0,0-2.632,2.619,13.824,13.824,0,0,0-1.568,6.11A.054.054,0,0,1,1689.6,628.385Z" transform="translate(-1689.55 -611.71)" fill="#fbfafc"/>
          </g>
          <g id="Group_696" data-name="Group 696" transform="translate(0.684 1.094)">
            <path id="Path_465" data-name="Path 465" d="M1667.1,634.115a3.455,3.455,0,0,1-.407-.023,2.342,2.342,0,0,1-1.048-.343.054.054,0,0,1-.012-.075.055.055,0,0,1,.076-.013,2.291,2.291,0,0,0,1.005.324,4.992,4.992,0,0,0,2.934-.708,3.766,3.766,0,0,0,1.867-2.986,6.686,6.686,0,0,0-.054-1.968.054.054,0,0,1,.042-.064.052.052,0,0,1,.064.042,6.813,6.813,0,0,1,.056,2,3.822,3.822,0,0,1-1.924,3.07A5.513,5.513,0,0,1,1667.1,634.115Z" transform="translate(-1665.627 -628.258)" fill="#fbfafc"/>
          </g>
          <g id="Group_697" data-name="Group 697" transform="translate(25.998 6.361)">
            <path id="Path_466" data-name="Path 466" d="M1970.721,693.495a5.259,5.259,0,0,1-3.466-1.071,3.393,3.393,0,0,1-1.112-1.574.054.054,0,0,1,.1-.028c.009.033.942,3.24,6.031,2.435a.056.056,0,0,1,.062.045.054.054,0,0,1-.045.061A10.041,10.041,0,0,1,1970.721,693.495Z" transform="translate(-1966.141 -690.782)" fill="#fbfafc"/>
          </g>
        </g>
      </g>
      <g id="Group_700" data-name="Group 700" transform="translate(45.659 26.075)">
        <path id="Path_468" data-name="Path 468" d="M2003.954,779.954h-.009a.054.054,0,0,1-.045-.062l1.2-7.69a.052.052,0,0,1,.062-.045.053.053,0,0,1,.045.061l-1.2,7.691A.054.054,0,0,1,2003.954,779.954Z" transform="translate(-2003.899 -772.155)" fill="#0c2f2b"/>
      </g>
      <g id="Group_701" data-name="Group 701" transform="translate(26.975 21.388)">
        <path id="Path_469" data-name="Path 469" d="M1782.156,725.386a.055.055,0,0,1-.054-.055l.081-8.766a.054.054,0,0,1,.054-.053.054.054,0,0,1,.054.054l-.081,8.766A.054.054,0,0,1,1782.156,725.386Z" transform="translate(-1782.102 -716.512)" fill="#0c2f2b"/>
      </g>
      <g id="Group_702" data-name="Group 702" transform="translate(37.06 0.954)">
        <path id="Path_470" data-name="Path 470" d="M1901.817,475.106a3.97,3.97,0,0,1,2.57-1.178c1.464,0,2.106.964,3.177,1.071s1.571-.285,1.928.321-.322,2.5.25,3.605a4.565,4.565,0,0,1-.143,4.89,4.256,4.256,0,0,1-4.248,1.534Z" transform="translate(-1901.817 -473.928)" fill="#0c2f2b"/>
      </g>
      <g id="Group_703" data-name="Group 703" transform="translate(44.288 1.113)">
        <path id="Path_471" data-name="Path 471" d="M1987.638,477.077a2.449,2.449,0,0,1,2.455-1.263c1.965,0,3.262,1.508,4.525,3.858s2.525,6.384,5.016,6.138,5.086-3.086,6.944-2.315,1.017,2.42.386,2.525c0,0,4.735-.175,5.261,2.982a4.134,4.134,0,0,1-2.806,4.875,7.1,7.1,0,0,1-2.876.316s.982,4-3.508,4.49-7.646-4.49-8.313-5.682a19.955,19.955,0,0,1-1.859-5.823c-.281-2.035-.175-3.894-1.789-5.016a4.609,4.609,0,0,0-3.122-.877S1987.568,476.8,1987.638,477.077Z" transform="translate(-1987.63 -475.814)" fill="#0c2f2b"/>
      </g>
      <g id="Group_704" data-name="Group 704" transform="translate(53.945 9.832)">
        <path id="Path_472" data-name="Path 472" d="M2106.1,583.214a.054.054,0,0,1-.031-.01,19.663,19.663,0,0,1-3.791-3.789.055.055,0,0,1,.009-.076.054.054,0,0,1,.076.009,19.569,19.569,0,0,0,3.768,3.769.054.054,0,0,1,.013.075A.055.055,0,0,1,2106.1,583.214Z" transform="translate(-2102.267 -579.327)" fill="#13403a"/>
      </g>
      <g id="Group_705" data-name="Group 705" transform="translate(44.243)">
        <path id="Path_473" data-name="Path 473" d="M1995.411,468.788a.054.054,0,0,1-.05-.033c-1.2-2.875-2.581-5.707-5.034-6.014a2.864,2.864,0,0,0-3.132,2.252.052.052,0,0,1-.065.04.054.054,0,0,1-.041-.065,3.013,3.013,0,0,1,3.251-2.335c2.51.314,3.906,3.175,5.12,6.079a.053.053,0,0,1-.029.071A.051.051,0,0,1,1995.411,468.788Z" transform="translate(-1987.088 -462.606)" fill="#0c2f2b"/>
      </g>
      <g id="Group_706" data-name="Group 706" transform="translate(62.934 11.094)">
        <path id="Path_474" data-name="Path 474" d="M2212.9,601.878a.054.054,0,0,1-.01-.107,5.034,5.034,0,0,0,2.72-2.648,2.82,2.82,0,0,0-.052-2.681c-1.917-3.161-6.467-1.689-6.513-1.674a.053.053,0,0,1-.068-.034.054.054,0,0,1,.034-.068c.046-.016,4.678-1.514,6.64,1.721a2.888,2.888,0,0,1,.059,2.781,5.155,5.155,0,0,1-2.8,2.71Z" transform="translate(-2208.977 -594.306)" fill="#0c2f2b"/>
      </g>
      <g id="Group_707" data-name="Group 707" transform="translate(50.537 15.956)">
        <path id="Path_475" data-name="Path 475" d="M2070.491,661.514h0c-3.226-.218-5.414-2.771-6.683-4.875a20.248,20.248,0,0,1-2-4.549.054.054,0,0,1,.039-.066.053.053,0,0,1,.066.038c.024.089,2.491,8.932,8.581,9.344a.054.054,0,0,1,0,.108Z" transform="translate(-2061.808 -652.022)" fill="#0c2f2b"/>
      </g>
      <g id="Group_708" data-name="Group 708" transform="translate(35.738 11.729)">
        <path id="Path_476" data-name="Path 476" d="M1893,607.77a3.949,3.949,0,0,1-3.317,2.257c-2.6.322-3.559-.9-3.559-.9a11.969,11.969,0,0,0,.972-5.02,11.825,11.825,0,0,0-.232-2.265l4.917.107a10.25,10.25,0,0,0-.071,1.1A8.179,8.179,0,0,0,1893,607.77Z" transform="translate(-1886.124 -601.846)" fill="#fff"/>
      </g>
      <g id="Group_710" data-name="Group 710" transform="translate(36.587 11.834)">
        <g id="Group_709" data-name="Group 709" transform="translate(0 0)">
          <path id="Path_477" data-name="Path 477" d="M1901.007,603.092a9.911,9.911,0,0,0-.069,1.1,4.911,4.911,0,0,1-3.333,1.9,3.132,3.132,0,0,1-1.293-.237c.009-.212.013-.411.009-.606,0-.38-.026-.722-.052-1.02-.013-.169-.03-.324-.047-.463v0c-.009-.048-.013-.086-.021-.135l0,0a3.385,3.385,0,0,0,1.881.891c.8.091,1.937-.709,2.793-1.436Z" transform="translate(-1896.2 -603.087)" fill="#0c2f2b"/>
        </g>
      </g>
      <g id="Group_711" data-name="Group 711" transform="translate(33.996 14.833)">
        <path id="Path_478" data-name="Path 478" d="M1866.336,638.693a55.036,55.036,0,0,1,8.909,3.277,3.015,3.015,0,0,1-.424,2.279c-.481.977-2.109,3.532-4.085,4.115a3.711,3.711,0,0,1-4.216-1.779C1865.568,644.956,1864.767,640.586,1866.336,638.693Z" transform="translate(-1865.448 -638.693)" fill="#fff"/>
      </g>
      <g id="Group_712" data-name="Group 712" transform="translate(36.161 15.786)">
        <path id="Path_479" data-name="Path 479" d="M1892.062,651.667a.055.055,0,0,1-.041-.019,4.675,4.675,0,0,1-.869-1.568.054.054,0,0,1,.037-.067.054.054,0,0,1,.066.037,4.574,4.574,0,0,0,.848,1.527.054.054,0,0,1-.041.089Z" transform="translate(-1891.15 -650.011)" fill="#0c2f2b"/>
      </g>
      <g id="Group_713" data-name="Group 713" transform="translate(40.536 17.15)">
        <path id="Path_480" data-name="Path 480" d="M1943.138,666.731a.054.054,0,0,1-.011-.107,3.114,3.114,0,0,0,1.089-.418.054.054,0,1,1,.06.089,3.2,3.2,0,0,1-1.127.434Z" transform="translate(-1943.084 -666.197)" fill="#0c2f2b"/>
      </g>
      <g id="Group_714" data-name="Group 714" transform="translate(34.556 1.95)">
        <path id="Path_481" data-name="Path 481" d="M1880.653,492.618c-.791,3.162-3.293,5.26-5.59,4.686s-3.518-3.6-2.727-6.765,3.293-5.26,5.59-4.686S1881.443,489.456,1880.653,492.618Z" transform="translate(-1872.095 -485.758)" fill="#fff"/>
      </g>
      <g id="Group_716" data-name="Group 716" transform="translate(41.751 9.215)">
        <g id="Group_715" data-name="Group 715" transform="translate(0)">
          <path id="Path_482" data-name="Path 482" d="M1958.657,572.3a5.959,5.959,0,0,1-.276.688c-.445-.044-.951-.5-.86-.8.112-.367.6-.073.6-.073Z" transform="translate(-1957.509 -572.001)" fill="#0c2f2b"/>
        </g>
      </g>
      <g id="Group_717" data-name="Group 717" transform="translate(41.583 6.426)">
        <path id="Path_483" data-name="Path 483" d="M1957.863,541.589c-.693.716-1.565.82-2.069.332s-.305-1.422.34-2.18c.509-.6,1.569-1.146,2.073-.658A2.044,2.044,0,0,1,1957.863,541.589Z" transform="translate(-1955.509 -538.896)" fill="#fff"/>
      </g>
      <g id="Group_718" data-name="Group 718" transform="translate(39.085 1.765)">
        <path id="Path_484" data-name="Path 484" d="M1925.863,483.67s.116,2.359,4.261,4.619c0,0,.247-2.476-.5-3.389A4.045,4.045,0,0,0,1925.863,483.67Z" transform="translate(-1925.863 -483.556)" fill="#0c2f2b"/>
      </g>
      <g id="Group_719" data-name="Group 719" transform="translate(33.649 1.657)">
        <path id="Path_485" data-name="Path 485" d="M1867.028,482.624a2.551,2.551,0,0,1-1.612,2.01,3.515,3.515,0,0,1-3.32-.088,1.243,1.243,0,0,1-.715-1.475C1861.644,482.31,1863.237,481.965,1867.028,482.624Z" transform="translate(-1861.325 -482.275)" fill="#0c2f2b"/>
      </g>
      <g id="Group_720" data-name="Group 720" transform="translate(39.116 2.175)">
        <path id="Path_486" data-name="Path 486" d="M1926.287,488.43c-.227.634.2,2.508,1.329,2.843,1.037.308.1-1.812.1-1.812Z" transform="translate(-1926.228 -488.43)" fill="#0c2f2b"/>
      </g>
      <g id="Group_721" data-name="Group 721" transform="translate(38.407 6.521)">
        <path id="Path_487" data-name="Path 487" d="M1918.249,540.36c-.039.156-.165.259-.282.229a.262.262,0,0,1-.141-.335c.039-.156.165-.258.282-.229A.262.262,0,0,1,1918.249,540.36Z" transform="translate(-1917.815 -540.02)" fill="#0c2f2b"/>
      </g>
      <g id="Group_722" data-name="Group 722" transform="translate(35.409 6.343)">
        <path id="Path_488" data-name="Path 488" d="M1882.654,538.24c-.039.155-.165.258-.282.229a.262.262,0,0,1-.141-.335c.039-.155.165-.258.282-.229A.262.262,0,0,1,1882.654,538.24Z" transform="translate(-1882.22 -537.901)" fill="#0c2f2b"/>
      </g>
      <g id="Group_723" data-name="Group 723" transform="translate(34.634 4.539)">
        <path id="Path_489" data-name="Path 489" d="M1874.857,517c-.292.083-1.2.343-1.508.4-.558.106-.372-.376.354-.677a1.813,1.813,0,0,1,1.281-.178A.261.261,0,0,1,1874.857,517Z" transform="translate(-1873.024 -516.489)" fill="#0c2f2b"/>
      </g>
      <g id="Group_724" data-name="Group 724" transform="translate(35.008 4.919)">
        <path id="Path_490" data-name="Path 490" d="M1877.514,521.675a.054.054,0,0,1-.014-.106,6.443,6.443,0,0,0,1.437-.555.054.054,0,1,1,.052.094,6.551,6.551,0,0,1-1.46.565Z" transform="translate(-1877.46 -521.007)" fill="#0c2f2b"/>
      </g>
      <g id="Group_726" data-name="Group 726" transform="translate(34.559 7.221)">
        <g id="Group_725" data-name="Group 725" transform="translate(0 0)">
          <path id="Path_491" data-name="Path 491" d="M1872.69,548.927a.575.575,0,0,1-.527.614.067.067,0,0,1-.03,0,7.277,7.277,0,0,1,.13-1.211A.6.6,0,0,1,1872.69,548.927Z" transform="translate(-1872.132 -548.326)" fill="#0c2f2b"/>
        </g>
      </g>
      <g id="Group_727" data-name="Group 727" transform="translate(36.015 6.849)">
        <path id="Path_492" data-name="Path 492" d="M1889.788,546.264h-.018a.384.384,0,0,1-.3-.169c-.27-.373.634-1.974.739-2.155a.053.053,0,0,1,.073-.02.054.054,0,0,1,.02.074c-.38.661-.917,1.8-.745,2.038a.277.277,0,0,0,.22.124h.014a.586.586,0,0,0,.375-.171.053.053,0,0,1,.076-.006.054.054,0,0,1,.006.076A.691.691,0,0,1,1889.788,546.264Z" transform="translate(-1889.416 -543.913)" fill="#0c2f2b"/>
      </g>
      <g id="Group_728" data-name="Group 728" transform="translate(35.81 8.592)">
        <path id="Path_493" data-name="Path 493" d="M1886.985,566.391a2.221,2.221,0,0,0,1.856.25c.964-.357.821-2.035.821-2.035A10.947,10.947,0,0,1,1886.985,566.391Z" transform="translate(-1886.985 -564.606)" fill="#0c2f2b"/>
      </g>
      <g id="Group_729" data-name="Group 729" transform="translate(38.209 8.504)">
        <path id="Path_494" data-name="Path 494" d="M1915.952,563.848a.055.055,0,0,1-.047-.027.327.327,0,0,0-.381-.143.055.055,0,0,1-.063-.043.054.054,0,0,1,.044-.063.43.43,0,0,1,.494.195.053.053,0,0,1-.019.074A.055.055,0,0,1,1915.952,563.848Z" transform="translate(-1915.461 -563.56)" fill="#0c2f2b"/>
      </g>
      <g id="Group_730" data-name="Group 730" transform="translate(38.284 12.242)">
        <path id="Path_495" data-name="Path 495" d="M1916.6,608.283a.543.543,0,0,1-.217-.051.054.054,0,0,1-.028-.071.055.055,0,0,1,.072-.028.328.328,0,0,0,.47-.173.054.054,0,1,1,.094.053A.449.449,0,0,1,1916.6,608.283Z" transform="translate(-1916.349 -607.933)" fill="#0c2f2b"/>
      </g>
      <g id="Group_731" data-name="Group 731" transform="translate(42.426 6.99)">
        <path id="Path_496" data-name="Path 496" d="M1965.574,547.19a.056.056,0,0,1-.022,0,.055.055,0,0,1-.032-.058,1.915,1.915,0,0,1,1.646-1.538.051.051,0,0,1,.06.047.054.054,0,0,1-.047.06,1.765,1.765,0,0,0-1.5,1.265,1.414,1.414,0,0,1,1.055-.34.053.053,0,0,1,.048.059.051.051,0,0,1-.059.048,1.358,1.358,0,0,0-1.1.442A.055.055,0,0,1,1965.574,547.19Z" transform="translate(-1965.52 -545.588)" fill="#0c2f2b"/>
      </g>
      <g id="Group_732" data-name="Group 732" transform="translate(38.19 4.7)">
        <path id="Path_497" data-name="Path 497" d="M1915.4,518.846c.25.172,1.37.857,1.819,1.2s.041-.533-.53-1.072a1.545,1.545,0,0,0-1.346-.538C1915.158,518.572,1915.233,518.734,1915.4,518.846Z" transform="translate(-1915.234 -518.406)" fill="#0c2f2b"/>
      </g>
      <g id="Group_733" data-name="Group 733" transform="translate(39.534 5.186)">
        <path id="Path_498" data-name="Path 498" d="M1931.193,524.17s.682.3.713.414-.17.074-.17.074.212.152.232.257-.124.1-.124.1Z" transform="translate(-1931.193 -524.17)" fill="#0c2f2b"/>
      </g>
      <g id="Group_734" data-name="Group 734" transform="translate(35.027 48.102)">
        <path id="Path_499" data-name="Path 499" d="M1880.119,1040.736l-2.386-.053a.054.054,0,0,1,0-.108l2.334.052.506-6.942a.051.051,0,0,1,.058-.05.055.055,0,0,1,.05.058l-.509,6.993A.055.055,0,0,1,1880.119,1040.736Z" transform="translate(-1877.68 -1033.635)" fill="#0c2f2b"/>
      </g>
      <g id="Group_735" data-name="Group 735" transform="translate(27.536 41.075)">
        <path id="Path_500" data-name="Path 500" d="M1801.482,954.1h-.006a34.578,34.578,0,0,1-12.7-3.784.054.054,0,0,1,.051-.1,34.456,34.456,0,0,0,12.658,3.772.054.054,0,0,1-.006.108Z" transform="translate(-1788.751 -950.215)" fill="#0c2f2b"/>
      </g>
      <g id="Group_736" data-name="Group 736" transform="translate(36.103 41.905)">
        <path id="Path_501" data-name="Path 501" d="M1891.5,960.158c.305.2.509.555.3.86s-.591.555-.9.351-.592-.6-.387-.906A.775.775,0,0,1,1891.5,960.158Z" transform="translate(-1890.453 -960.076)" fill="#0c2f2b"/>
      </g>
      <g id="Group_737" data-name="Group 737" transform="translate(12.226 69.328)">
        <path id="Path_502" data-name="Path 502" d="M1607.06,1290.245a.054.054,0,0,1-.021-.1,26.975,26.975,0,0,0,6.778-4.511.054.054,0,1,1,.074.079,27.1,27.1,0,0,1-6.811,4.532A.054.054,0,0,1,1607.06,1290.245Z" transform="translate(-1607.006 -1285.615)" fill="#0c2f2b"/>
      </g>
      <g id="Group_738" data-name="Group 738" transform="translate(56.871 63.487)">
        <path id="Path_503" data-name="Path 503" d="M2137.056,1224.814a.055.055,0,0,1-.054-.054l.083-8.425a.054.054,0,1,1,.108,0l-.083,8.425A.054.054,0,0,1,2137.056,1224.814Z" transform="translate(-2137.002 -1216.281)" fill="#0c2f2b"/>
      </g>
    </g>
  </g>
</svg>
