<svg xmlns="http://www.w3.org/2000/svg" xmlns:xlink="http://www.w3.org/1999/xlink" width="205" height="140" viewBox="0 0 205 140">
  <defs>
    <clipPath id="clip-path">
      <path id="Path_28" data-name="Path 28" d="M-2342.25,1130.178l-9.875-15.462,10.005-2.6.9-.484s10.537,12.178,12.357,16.466-.65,7.406-3.638,10.525-21.179,19.23-21.179,19.23-6.107-3.119-7.666-9.485Z" transform="translate(2361.351 -1111.633)" fill="#0a1a29"/>
    </clipPath>
    <clipPath id="clip-path-2">
      <path id="Path_36" data-name="Path 36" d="M-2368.68,1127.753s.634,4.189,5.181,11.206c4,6.172,12.994,17.411,12.994,17.411l-5.717,20.4a20.653,20.653,0,0,0,12.864,1.559s7.276-20.53,6.367-25.467-15.982-26.637-15.982-26.637Z" transform="translate(2368.68 -1126.225)" fill="#3f1e18"/>
    </clipPath>
    <clipPath id="clip-path-3">
      <path id="Path_98" data-name="Path 98" d="M-1018.707,977.23a4.459,4.459,0,0,0-1.905,3.9s-3.733,1.491-5.822,1.073-.7-2.36-.7-2.36a6.373,6.373,0,0,0,1.505-3.914Z" transform="translate(1027.588 -975.925)" fill="none"/>
    </clipPath>
  </defs>
  <g id="Group_1342" data-name="Group 1342" transform="translate(-36 -340)">
    <path id="Path_8" data-name="Path 8" d="M205,0V140H0V0Z" transform="translate(36 340)" fill="#fa7662"/>
    <circle id="Ellipse_18" data-name="Ellipse 18" cx="57.5" cy="57.5" r="57.5" transform="translate(82 353)" fill="#ff8a78"/>
    <g id="Group_407" data-name="Group 407" transform="translate(2552.75 -136.283)">
      <g id="Group_200" data-name="Group 200" transform="translate(-2481.322 488.025)">
        <g id="Group_189" data-name="Group 189" transform="translate(0 0)">
          <g id="Group_185" data-name="Group 185">
            <g id="Group_183" data-name="Group 183" transform="translate(1.679)">
              <g id="Group_59" data-name="Group 59" transform="translate(21.798 16.764)">
                <g id="Group_56" data-name="Group 56" transform="translate(0 3.384)">
                  <g id="Group_34" data-name="Group 34" transform="translate(0 0.995)">
                    <g id="Group_33" data-name="Group 33">
                      <path id="Path_9" data-name="Path 9" d="M-2131.488,791.173l-7.489.2,1.136,7.355,10.629-.386Z" transform="translate(2138.977 -791.173)" fill="#fff"/>
                    </g>
                  </g>
                  <g id="Group_55" data-name="Group 55" transform="translate(8.684)">
                    <g id="Group_36" data-name="Group 36" transform="translate(1.012 2.075)">
                      <g id="Group_35" data-name="Group 35">
                        <path id="Path_10" data-name="Path 10" d="M-1997.992,807.575s2.673-1.039,3.871-.59c1.063.4.953,2.044.409,2.044-.267,0-.823-.783-.823-.783l-1.519,1.519Z" transform="translate(1997.992 -806.873)" fill="#fff"/>
                      </g>
                    </g>
                    <g id="Group_38" data-name="Group 38" transform="translate(3.17 4.314)">
                      <g id="Group_37" data-name="Group 37">
                        <path id="Path_11" data-name="Path 11" d="M-1962.517,841.011c-.453.2-2.782.918-2.782.918l-1.315-2.016c1.9-.437,3.354-.655,4.108-.343C-1962.164,839.711-1961.683,840.646-1962.517,841.011Z" transform="translate(1966.614 -839.423)" fill="#fff"/>
                      </g>
                    </g>
                    <g id="Group_40" data-name="Group 40" transform="translate(2.289 6.38)">
                      <g id="Group_39" data-name="Group 39">
                        <path id="Path_12" data-name="Path 12" d="M-1979.42,869.512s7.381-.3,7.636.6-6.009,1.049-6.009,1.049Z" transform="translate(1979.42 -869.464)" fill="#fff"/>
                      </g>
                    </g>
                    <g id="Group_42" data-name="Group 42" transform="translate(3.177 2.671)">
                      <g id="Group_41" data-name="Group 41">
                        <path id="Path_13" data-name="Path 13" d="M-1966.367,815.821c-.356.423-.02,1.086.361,1.461s.86.6,1.332.14c.493-.482-.192-1.334-.335-1.5A.872.872,0,0,0-1966.367,815.821Z" transform="translate(1966.518 -815.531)" fill="#0a1a29"/>
                      </g>
                    </g>
                    <g id="Group_44" data-name="Group 44" transform="translate(4.124 2.089)">
                      <g id="Group_43" data-name="Group 43">
                        <path id="Path_14" data-name="Path 14" d="M-1951.989,807.17c1.063.4.954,2.044.409,2.044-.267,0-.719-.631-.9-.959S-1953.187,806.721-1951.989,807.17Z" transform="translate(1952.748 -807.071)" fill="#fff"/>
                      </g>
                    </g>
                    <g id="Group_46" data-name="Group 46" transform="translate(0 0.011)">
                      <g id="Group_45" data-name="Group 45">
                        <path id="Path_15" data-name="Path 15" d="M-2012.707,777.925s2.047-1.421,3.245-.972c1.063.4.953,2.044.409,2.044-.267,0-.726-.632-.726-.632l-1.387,1.607Z" transform="translate(2012.707 -776.865)" fill="#fff"/>
                      </g>
                    </g>
                    <g id="Group_48" data-name="Group 48" transform="translate(1.539 0.582)">
                      <g id="Group_47" data-name="Group 47">
                        <path id="Path_16" data-name="Path 16" d="M-1990.186,785.451c-.356.423-.02,1.086.361,1.461s.86.6,1.332.14c.494-.482-.192-1.334-.335-1.5A.872.872,0,0,0-1990.186,785.451Z" transform="translate(1990.337 -785.161)" fill="#0a1a29"/>
                      </g>
                    </g>
                    <g id="Group_50" data-name="Group 50" transform="translate(2.486)">
                      <g id="Group_49" data-name="Group 49">
                        <path id="Path_17" data-name="Path 17" d="M-1975.807,776.8c1.062.4.953,2.044.409,2.044-.267,0-.719-.631-.9-.959S-1977.006,776.351-1975.807,776.8Z" transform="translate(1976.567 -776.701)" fill="#fff"/>
                      </g>
                    </g>
                    <g id="Group_52" data-name="Group 52" transform="translate(4.788 4.744)">
                      <g id="Group_51" data-name="Group 51">
                        <path id="Path_18" data-name="Path 18" d="M-1942.944,845.976c-.356.423-.02,1.086.361,1.461s.859.6,1.332.14c.494-.482-.192-1.334-.335-1.5A.872.872,0,0,0-1942.944,845.976Z" transform="translate(1943.095 -845.686)" fill="#0a1a29"/>
                      </g>
                    </g>
                    <g id="Group_54" data-name="Group 54" transform="translate(6.04 4.805)">
                      <g id="Group_53" data-name="Group 53">
                        <path id="Path_19" data-name="Path 19" d="M-1923.2,847.043a1.352,1.352,0,0,1-.225.785.445.445,0,0,1-.766.071,5.47,5.47,0,0,1-.7-1.33Z" transform="translate(1924.883 -846.569)" fill="#fff"/>
                      </g>
                    </g>
                  </g>
                </g>
                <g id="Group_58" data-name="Group 58" transform="translate(1.846)">
                  <g id="Group_57" data-name="Group 57">
                    <path id="Path_20" data-name="Path 20" d="M-2109.857,727.559s-2-.435-2.245,1.12c-.372,2.33,3,8.5,4.9,11.826s3.622,7.113,6.438,6.741c1.905-.251,2.278-1.966,2.21-3.45l-1.225-1.691s.411,3.125-1.178,3.32c-1.307.16-2.51-1.041-3.668-3.135-2.666-4.818-5.385-9.524-5.747-11.851-.323-2.076,1.251-1.7,1.251-1.7Z" transform="translate(2112.131 -727.503)" fill="#d44631"/>
                  </g>
                </g>
              </g>
              <g id="Group_102" data-name="Group 102" transform="translate(0 43.183)">
                <g id="Group_77" data-name="Group 77">
                  <g id="Group_67" data-name="Group 67" transform="translate(0 36.686)">
                    <g id="Group_61" data-name="Group 61">
                      <g id="Group_60" data-name="Group 60">
                        <path id="Path_21" data-name="Path 21" d="M-2450.7,1651.382c.158.323-1.448,2.177-2.359,3.189,2.022,3.091,5.142,7.174,6.614,8.92.592.7,1.549,2.019,2.278,1.293s1.9-10.416,1.724-10.76-6.06-8.962-6.442-8.983c-1.875-.105-6.7,3.4-7.024,4.392-.136.407,1.083,2.352,1.921,3.68C-2452.874,1652.363-2450.858,1651.06-2450.7,1651.382Z" transform="translate(2455.916 -1645.039)" fill="#d44631"/>
                      </g>
                    </g>
                    <g id="Group_66" data-name="Group 66" transform="translate(0 3.518)">
                      <g id="Group_63" data-name="Group 63" transform="translate(2.86 4.623)">
                        <g id="Group_62" data-name="Group 62">
                          <path id="Path_22" data-name="Path 22" d="M-2413.126,1763.4c-.414.5-.859,1.006-1.206,1.392,2.022,3.091,5.142,7.174,6.614,8.92.592.7,1.549,2.019,2.278,1.293a1.7,1.7,0,0,0,.277-.617Z" transform="translate(2414.332 -1763.402)" fill="#0a1a29"/>
                        </g>
                      </g>
                      <g id="Group_65" data-name="Group 65">
                        <g id="Group_64" data-name="Group 64">
                          <path id="Path_23" data-name="Path 23" d="M-2453.984,1700.742c.4-.27.915-.61,1.419-.922l-2.632-3.635a2.794,2.794,0,0,0-.708.876C-2456.042,1697.469-2454.822,1699.414-2453.984,1700.742Z" transform="translate(2455.916 -1696.186)" fill="#0a1a29"/>
                        </g>
                      </g>
                    </g>
                  </g>
                  <g id="Group_76" data-name="Group 76" transform="translate(6.504)">
                    <g id="Group_75" data-name="Group 75">
                      <path id="Path_24" data-name="Path 24" d="M-2342.25,1130.178l-9.875-15.462,10.005-2.6.9-.484s10.537,12.178,12.357,16.466-.65,7.406-3.638,10.525-21.179,19.23-21.179,19.23-6.107-3.119-7.666-9.485Z" transform="translate(2361.351 -1111.633)" fill="#0a1a29"/>
                      <g id="Group_74" data-name="Group 74" clip-path="url(#clip-path)">
                        <g id="Group_69" data-name="Group 69" transform="translate(5.558 0.306)">
                          <g id="Group_68" data-name="Group 68">
                            <path id="Path_25" data-name="Path 25" d="M-2280.449,1161.361a.086.086,0,0,0,.056-.02c.064-.053,6.5-5.374,12.832-11.236,8.522-7.885,12.821-12.946,12.776-15.041-.036-1.71-2.3-5.419-6.721-11.026-3.288-4.167-6.608-7.883-6.641-7.921a.089.089,0,0,0-.124-.007.088.088,0,0,0-.007.124c.132.148,13.233,14.836,13.318,18.833.1,4.891-25.288,25.927-25.545,26.139a.087.087,0,0,0-.011.123A.086.086,0,0,0-2280.449,1161.361Z" transform="translate(2280.536 -1116.089)" fill="#f7cec1"/>
                          </g>
                        </g>
                        <g id="Group_71" data-name="Group 71" transform="translate(2.637 6.352)">
                          <g id="Group_70" data-name="Group 70">
                            <path id="Path_26" data-name="Path 26" d="M-2322.915,1240.6a.087.087,0,0,0,.057-.021c1.043-.884,25.546-21.664,25.29-24.1-.318-3.021-9.131-12.087-9.506-12.471a.088.088,0,0,0-.124,0,.087.087,0,0,0,0,.124c.091.094,9.145,9.406,9.457,12.367.07.668-2.042,3.438-12.506,12.84-6.273,5.637-12.659,11.049-12.723,11.1a.087.087,0,0,0-.01.123A.087.087,0,0,0-2322.915,1240.6Z" transform="translate(2323.002 -1203.986)" fill="#f7cec1"/>
                          </g>
                        </g>
                        <g id="Group_73" data-name="Group 73" transform="translate(0.722 25.865)">
                          <g id="Group_72" data-name="Group 72">
                            <path id="Path_27" data-name="Path 27" d="M-2350.759,1502.285a.088.088,0,0,0,.063-.027l13.717-14.408a.087.087,0,0,0,0-.124.087.087,0,0,0-.124,0l-13.717,14.408a.088.088,0,0,0,0,.124A.087.087,0,0,0-2350.759,1502.285Z" transform="translate(2350.846 -1487.702)" fill="#f7cec1"/>
                          </g>
                        </g>
                      </g>
                    </g>
                  </g>
                </g>
                <g id="Group_101" data-name="Group 101" transform="translate(6 1.004)">
                  <g id="Group_85" data-name="Group 85" transform="translate(11.543 50.347)">
                    <g id="Group_79" data-name="Group 79">
                      <g id="Group_78" data-name="Group 78">
                        <path id="Path_29" data-name="Path 29" d="M-2195.944,1864.249c.355.048,1,2.414,1.337,3.734,3.694.04,8.822-.28,11.092-.532.912-.1,2.539-.164,2.342-1.173s-7.6-7.374-7.981-7.42-10.445-.822-10.675-.516c-1.131,1.5-1.273,8.329-.633,9.15.261.34,2.557.409,4.126.452C-2196.34,1866.6-2196.3,1864.2-2195.944,1864.249Z" transform="translate(2200.841 -1858.271)" fill="#d44631"/>
                      </g>
                    </g>
                    <g id="Group_84" data-name="Group 84" transform="translate(0.097 7.433)">
                      <g id="Group_81" data-name="Group 81" transform="translate(5.652)">
                        <g id="Group_80" data-name="Group 80">
                          <path id="Path_30" data-name="Path 30" d="M-2117.25,1966.855c.183.621.358,1.273.485,1.776,3.694.04,8.822-.28,11.092-.532.912-.1,2.54-.164,2.342-1.173a1.708,1.708,0,0,0-.358-.573Z" transform="translate(2117.25 -1966.352)" fill="#0a1a29"/>
                        </g>
                      </g>
                      <g id="Group_83" data-name="Group 83" transform="translate(0 0.548)">
                        <g id="Group_82" data-name="Group 82">
                          <path id="Path_31" data-name="Path 31" d="M-2199.434,1974.488a3.345,3.345,0,0,0,.235,1.006.7.7,0,0,0,.049.073c.259.337,2.555.406,4.125.449,0-.329,0-.726.011-1.135,0-.1,0-.2.007-.3s0-.172.007-.256Z" transform="translate(2199.434 -1974.327)" fill="#0a1a29"/>
                        </g>
                      </g>
                    </g>
                  </g>
                  <g id="Group_100" data-name="Group 100">
                    <g id="Group_94" data-name="Group 94">
                      <g id="Group_93" data-name="Group 93">
                        <path id="Path_32" data-name="Path 32" d="M-2368.68,1127.753s.634,4.189,5.181,11.206c4,6.172,12.994,17.411,12.994,17.411l-5.717,20.4a20.653,20.653,0,0,0,12.864,1.559s7.276-20.53,6.367-25.467-15.982-26.637-15.982-26.637Z" transform="translate(2368.68 -1126.225)" fill="#3f1e18"/>
                        <g id="Group_92" data-name="Group 92" clip-path="url(#clip-path-2)">
                          <g id="Group_87" data-name="Group 87" transform="translate(12.921 0.27)">
                            <g id="Group_86" data-name="Group 86">
                              <path id="Path_33" data-name="Path 33" d="M-2171.525,1183.7a.088.088,0,0,0,.084-.064c.272-.949,6.658-23.3,6.177-26.789s-14.778-25.723-15.387-26.667a.087.087,0,0,0-.121-.026.088.088,0,0,0-.026.121c.148.231,14.884,23.145,15.36,26.6s-6.1,26.484-6.171,26.717a.088.088,0,0,0,.06.108A.087.087,0,0,0-2171.525,1183.7Z" transform="translate(2180.812 -1130.144)" fill="#d44631"/>
                            </g>
                          </g>
                          <g id="Group_89" data-name="Group 89" transform="translate(8.924 1.474)">
                            <g id="Group_88" data-name="Group 88">
                              <path id="Path_34" data-name="Path 34" d="M-2229.485,1199.7a.088.088,0,0,0,.084-.062c.065-.214,6.533-21.446,6.239-26.047-.1-1.556-2.278-4.691-4.8-8.323-1.1-1.587-2.242-3.227-3.333-4.908-4.021-6.193-7.434-12.6-7.468-12.66a.088.088,0,0,0-.118-.036.087.087,0,0,0-.036.118c.034.064,3.449,6.473,7.475,12.672,1.093,1.683,2.234,3.325,3.337,4.913,2.508,3.61,4.674,6.727,4.77,8.234.292,4.569-6.167,25.771-6.233,25.985a.088.088,0,0,0,.058.11A.1.1,0,0,0-2229.485,1199.7Z" transform="translate(2238.928 -1147.652)" fill="#3f1e18"/>
                            </g>
                          </g>
                          <g id="Group_91" data-name="Group 91" transform="translate(3.424 1.385)">
                            <g id="Group_90" data-name="Group 90">
                              <path id="Path_35" data-name="Path 35" d="M-2307.5,1197.267a.088.088,0,0,0,.083-.06c.279-.84,6.826-20.6,6.138-23.745-.306-1.4-2.207-3.917-4.614-7.108-1.257-1.666-2.682-3.554-4-5.458a125.514,125.514,0,0,1-8.834-14.481.086.086,0,0,0-.117-.04.087.087,0,0,0-.041.117,125.569,125.569,0,0,0,8.847,14.5c1.319,1.907,2.745,3.8,4,5.464,2.3,3.048,4.286,5.681,4.583,7.04.678,3.1-6.065,23.447-6.134,23.652a.088.088,0,0,0,.056.111A.085.085,0,0,0-2307.5,1197.267Z" transform="translate(2318.896 -1146.365)" fill="#3f1e18"/>
                            </g>
                          </g>
                        </g>
                      </g>
                    </g>
                    <g id="Group_99" data-name="Group 99" transform="translate(12.389 3.567)">
                      <g id="Group_96" data-name="Group 96" transform="translate(5.845)">
                        <g id="Group_95" data-name="Group 95">
                          <path id="Path_37" data-name="Path 37" d="M-2090.112,1201.332l.026,0a.175.175,0,0,0,.147-.2c-.342-2.289-3.773-8.01-6.724-12.739-3.3-5.3-6.55-10.178-6.583-10.228a.175.175,0,0,0-.243-.049.175.175,0,0,0-.049.243c.032.049,3.276,4.928,6.578,10.219,2.933,4.7,6.342,10.38,6.675,12.6A.175.175,0,0,0-2090.112,1201.332Z" transform="translate(2103.566 -1178.087)" fill="#d44631"/>
                        </g>
                      </g>
                      <g id="Group_98" data-name="Group 98" transform="translate(0 19.204)">
                        <g id="Group_97" data-name="Group 97">
                          <path id="Path_38" data-name="Path 38" d="M-2185.337,1473.936a.175.175,0,0,0,.167-.122c.1-.322,2.48-7.9,2.422-8.887s-4.937-6.884-5.492-7.552a.177.177,0,0,0-.247-.023.176.176,0,0,0-.023.247c2.072,2.49,5.374,6.686,5.413,7.348.045.767-1.721,6.584-2.406,8.761a.175.175,0,0,0,.114.219A.175.175,0,0,0-2185.337,1473.936Z" transform="translate(2188.551 -1457.311)" fill="#d44631"/>
                        </g>
                      </g>
                    </g>
                  </g>
                </g>
              </g>
              <g id="Group_103" data-name="Group 103" transform="translate(2.32 6.799)">
                <path id="Path_39" data-name="Path 39" d="M-2411.544,582.848s-6.052-.765-8.686.5c-3.624,1.742-1.683,30.464,1.734,38.185a29.944,29.944,0,0,0,12.762.724c6.018-.883,7.87-3.256,7.87-3.256s-2.681-15.689-3.924-20.758a38.909,38.909,0,0,0-4.937-11.518Z" transform="translate(2422.176 -582.619)" fill="#d44631"/>
              </g>
              <g id="Group_123" data-name="Group 123" transform="translate(0.528 7.195)">
                <g id="Group_105" data-name="Group 105" transform="translate(21.312 20.008)">
                  <g id="Group_104" data-name="Group 104">
                    <path id="Path_40" data-name="Path 40" d="M-2137.876,884.2c.78,2.348,2.236,3.977,3.251,3.64s1.206-2.514.427-4.861-2.236-3.977-3.251-3.64S-2138.656,881.851-2137.876,884.2Z" transform="translate(2138.356 -879.293)" fill="#3f1e18"/>
                  </g>
                </g>
                <g id="Group_114" data-name="Group 114" transform="translate(20.912 18.242)">
                  <g id="Group_106" data-name="Group 106">
                    <path id="Path_41" data-name="Path 41" d="M-2142.724,855.39a32.525,32.525,0,0,1,5.057-1.764c1.1-.079,2.455.923,3.741,2.435.748.88,1.413,2.513.549,2.395,0,0,.688,1.1.349,1.443-.289.289-.82-.029-.82-.029s.711,1.018.318,1.5c-.226.278-.671.029-.671.029s.539.71.025.857c-.6.172-2.585-1.436-2.585-1.436a12.647,12.647,0,0,1-1.5.419c-1.216.273-4.147.513-4.147.513l-1.767-4.358A4.456,4.456,0,0,1-2142.724,855.39Z" transform="translate(2144.173 -853.622)" fill="#fff"/>
                  </g>
                  <g id="Group_113" data-name="Group 113" transform="translate(7.454 2.443)">
                    <g id="Group_108" data-name="Group 108" transform="translate(0.827)">
                      <g id="Group_107" data-name="Group 107">
                        <path id="Path_42" data-name="Path 42" d="M-2021.253,891.619a.088.088,0,0,0,.064-.027.088.088,0,0,0,0-.124l-2.427-2.3a.088.088,0,0,0-.124,0,.088.088,0,0,0,0,.124l2.427,2.3A.087.087,0,0,0-2021.253,891.619Z" transform="translate(2023.768 -889.141)" fill="#0a1a29"/>
                      </g>
                    </g>
                    <g id="Group_110" data-name="Group 110" transform="translate(0.236 1.417)">
                      <g id="Group_109" data-name="Group 109">
                        <path id="Path_43" data-name="Path 43" d="M-2029.718,912.216a.087.087,0,0,0,.065-.029.088.088,0,0,0-.006-.124l-2.546-2.3a.087.087,0,0,0-.124.006.088.088,0,0,0,.006.124l2.546,2.3A.089.089,0,0,0-2029.718,912.216Z" transform="translate(2032.352 -909.741)" fill="#0a1a29"/>
                      </g>
                    </g>
                    <g id="Group_112" data-name="Group 112" transform="translate(0 2.992)">
                      <g id="Group_111" data-name="Group 111">
                        <path id="Path_44" data-name="Path 44" d="M-2033.27,935.074a.087.087,0,0,0,.064-.028.087.087,0,0,0,0-.124l-2.429-2.256a.088.088,0,0,0-.124,0,.088.088,0,0,0,0,.124l2.429,2.256A.088.088,0,0,0-2033.27,935.074Z" transform="translate(2035.787 -932.642)" fill="#0a1a29"/>
                      </g>
                    </g>
                  </g>
                </g>
                <g id="Group_122" data-name="Group 122">
                  <g id="Group_116" data-name="Group 116">
                    <g id="Group_115" data-name="Group 115">
                      <path id="Path_45" data-name="Path 45" d="M-2442.875,588.381c-3.291.118-5.363,2.5-5.363,8.241s.117,17.927,1.289,21.559,3.749,3.984,6.678,3.515,17.07-4.763,17.07-4.763-1.449-.089-2.632-3.425c-1.485-4.191-.429-4.855-.044-5.119,0,0-11.239,2.66-11.9,2.356s0-13.394-.339-16.841C-2438.292,592.085-2439.272,588.251-2442.875,588.381Z" transform="translate(2448.238 -588.377)" fill="#d44631"/>
                    </g>
                  </g>
                  <g id="Group_121" data-name="Group 121" transform="translate(2.598 10.912)">
                    <g id="Group_118" data-name="Group 118" transform="translate(7.521)">
                      <g id="Group_117" data-name="Group 117">
                        <path id="Path_46" data-name="Path 46" d="M-2300.578,758.6c1.66,0,10.614-2.141,11.69-2.4a.088.088,0,0,0,.065-.106.09.09,0,0,0-.106-.065c-4.473,1.076-11.306,2.6-11.8,2.382-.312-.152-.316-4.157.292-11.279a.087.087,0,0,0-.08-.095.086.086,0,0,0-.095.08c-.159,1.858-.913,11.141-.187,11.455A.643.643,0,0,0-2300.578,758.6Z" transform="translate(2301.113 -747.039)" fill="#183c61"/>
                      </g>
                    </g>
                    <g id="Group_120" data-name="Group 120" transform="translate(0 17.469)">
                      <g id="Group_119" data-name="Group 119">
                        <path id="Path_47" data-name="Path 47" d="M-2405.984,1006.177a12.235,12.235,0,0,0,2.05-.167,165.782,165.782,0,0,0,15.983-4.8.087.087,0,0,0,.052-.112.088.088,0,0,0-.112-.052,165.744,165.744,0,0,1-15.961,4.789c-.036.006-4.151.741-6.355-1.058a.087.087,0,0,0-.123.012.087.087,0,0,0,.012.123A7.166,7.166,0,0,0-2405.984,1006.177Z" transform="translate(2410.47 -1001.045)" fill="#183c61"/>
                      </g>
                    </g>
                  </g>
                </g>
              </g>
              <g id="Group_158" data-name="Group 158" transform="translate(12.306)">
                <g id="Group_125" data-name="Group 125" transform="translate(1.538 5.261)">
                  <g id="Group_124" data-name="Group 124" transform="translate(0 0)">
                    <ellipse id="Ellipse_11" data-name="Ellipse 11" cx="1.433" cy="3.4" rx="1.433" ry="3.4" transform="matrix(0.802, -0.597, 0.597, 0.802, 0, 1.711)" fill="#183c61"/>
                  </g>
                </g>
                <g id="Group_155" data-name="Group 155" transform="translate(0.521)">
                  <g id="Group_127" data-name="Group 127" transform="translate(0 3.118)">
                    <g id="Group_126" data-name="Group 126">
                      <path id="Path_48" data-name="Path 48" d="M-2262.8,529.1a26.593,26.593,0,0,1-6.479,3.91,6.426,6.426,0,0,0,.663,4.35,3.28,3.28,0,0,0,3.583,1.335,7.923,7.923,0,0,1,3.76-2.789Z" transform="translate(2269.408 -529.1)" fill="#fff"/>
                    </g>
                  </g>
                  <g id="Group_154" data-name="Group 154" transform="translate(4.927)">
                    <g id="Group_129" data-name="Group 129" transform="translate(0.375 2.031)">
                      <g id="Group_128" data-name="Group 128">
                        <path id="Path_49" data-name="Path 49" d="M-2190.727,513.282a8.661,8.661,0,0,0-1.342,1.4,1.778,1.778,0,0,0-.052,1.676l2.494-2.337Z" transform="translate(2192.315 -513.282)" fill="#3f1e18"/>
                      </g>
                    </g>
                    <g id="Group_131" data-name="Group 131" transform="translate(0 1.184)">
                      <g id="Group_130" data-name="Group 130">
                        <path id="Path_50" data-name="Path 50" d="M-2190.8,509.573c-.624.458-.995.971-1.479,1.337a2.776,2.776,0,0,1-2.264.5,3.767,3.767,0,0,1-2.77-2.369,5.713,5.713,0,0,1,2.265-7.047c2.547-1.778,5.226-.942,6.178.32a4.659,4.659,0,0,1,.551,4.931A8.632,8.632,0,0,1-2190.8,509.573Z" transform="translate(2197.768 -500.975)" fill="#fff"/>
                      </g>
                    </g>
                    <g id="Group_139" data-name="Group 139" transform="translate(1.467)">
                      <g id="Group_133" data-name="Group 133" transform="translate(0.666)">
                        <g id="Group_132" data-name="Group 132">
                          <path id="Path_51" data-name="Path 51" d="M-2161.582,484.775a1.312,1.312,0,0,0-1.364-1.013,4.618,4.618,0,0,0-3.8,2.048,1.279,1.279,0,0,0,.931.721c.823.137,1.825.781,3.257-.03.372,1.568,1.927,1.957,3.128,4.712,0,0,.69,1.709,1.178,1.556.417-.13.885-1.037.214-2.5,0,0,.552.754.946.732.519-.028-.092-1.342-.671-1.861,0,0,1.739.488,1.434-.7s-2.41-1.8-2.41-1.8.793-.244.4-.915S-2160.881,484.286-2161.582,484.775Z" transform="translate(2166.751 -483.757)" fill="#3f1e18"/>
                        </g>
                      </g>
                      <g id="Group_138" data-name="Group 138" transform="translate(0 1.096)">
                        <g id="Group_135" data-name="Group 135">
                          <g id="Group_134" data-name="Group 134">
                            <path id="Path_52" data-name="Path 52" d="M-2174.595,501.467c-.441.625-1.133.9-1.547.6s-.392-1.035.049-1.66,1.133-.9,1.547-.6S-2174.154,500.841-2174.595,501.467Z" transform="translate(2176.438 -499.689)" fill="#fff"/>
                          </g>
                        </g>
                        <g id="Group_137" data-name="Group 137" transform="translate(0.975 0.379)">
                          <g id="Group_136" data-name="Group 136">
                            <path id="Path_53" data-name="Path 53" d="M-2162.221,506.755a.044.044,0,0,0,.042-.031l.448-1.471a.044.044,0,0,0-.029-.055.045.045,0,0,0-.054.029l-.448,1.471a.044.044,0,0,0,.029.055Z" transform="translate(2162.264 -505.197)" fill="#0a1a29"/>
                          </g>
                        </g>
                      </g>
                    </g>
                    <g id="Group_153" data-name="Group 153" transform="translate(2.208 5.377)">
                      <g id="Group_142" data-name="Group 142" transform="translate(3.373 4.023)">
                        <g id="Group_140" data-name="Group 140" transform="translate(0.044 0.044)">
                          <path id="Path_54" data-name="Path 54" d="M-2114.251,621.068s-.509,1.065-.868,1.185c-.505.169-.87-.547-.87-.547Z" transform="translate(2115.989 -621.068)" fill="#fff"/>
                        </g>
                        <g id="Group_141" data-name="Group 141">
                          <path id="Path_55" data-name="Path 55" d="M-2115.868,621.729a.545.545,0,0,0,.172-.029c.372-.124.872-1.164.893-1.208a.043.043,0,0,0-.021-.058.044.044,0,0,0-.058.021c-.139.292-.562,1.069-.842,1.162-.461.155-.814-.518-.817-.525a.045.045,0,0,0-.059-.019.044.044,0,0,0-.019.059C-2116.606,621.159-2116.31,621.729-2115.868,621.729Z" transform="translate(2116.625 -620.43)" fill="#0a1a29"/>
                        </g>
                      </g>
                      <g id="Group_147" data-name="Group 147" transform="translate(3.62)">
                        <g id="Group_144" data-name="Group 144">
                          <g id="Group_143" data-name="Group 143">
                            <path id="Path_56" data-name="Path 56" d="M-2111.228,564.224a.088.088,0,0,0,.076-.043.088.088,0,0,0-.031-.12,3.653,3.653,0,0,1-1.684-2.062.089.089,0,0,0-.111-.056.089.089,0,0,0-.057.11,3.827,3.827,0,0,0,1.762,2.159A.088.088,0,0,0-2111.228,564.224Z" transform="translate(2113.038 -561.938)" fill="#0a1a29"/>
                          </g>
                        </g>
                        <g id="Group_146" data-name="Group 146" transform="translate(0.15 1.242)">
                          <g id="Group_145" data-name="Group 145">
                            <path id="Path_57" data-name="Path 57" d="M-2110.4,581.34h0a.044.044,0,0,0,.042-.046,2.988,2.988,0,0,0-.417-1.28.043.043,0,0,0-.06-.015.044.044,0,0,0-.015.06,2.884,2.884,0,0,1,.405,1.238A.044.044,0,0,0-2110.4,581.34Z" transform="translate(2110.853 -579.993)" fill="#0a1a29"/>
                          </g>
                        </g>
                      </g>
                      <g id="Group_152" data-name="Group 152" transform="translate(0 0.518)">
                        <g id="Group_149" data-name="Group 149">
                          <g id="Group_148" data-name="Group 148">
                            <path id="Path_58" data-name="Path 58" d="M-2165.612,571.038a1.212,1.212,0,0,0,1.567.686,1.212,1.212,0,0,0,.828-1.5,1.212,1.212,0,0,0-1.567-.686A1.212,1.212,0,0,0-2165.612,571.038Z" transform="translate(2165.668 -569.468)" fill="none"/>
                          </g>
                        </g>
                        <g id="Group_151" data-name="Group 151" transform="translate(1.593 1.699)">
                          <g id="Group_150" data-name="Group 150">
                            <path id="Path_59" data-name="Path 59" d="M-2141.329,597.2a.045.045,0,0,0,.042-.032.044.044,0,0,0-.031-.054,1.272,1.272,0,0,1-.782-.69,3.283,3.283,0,0,1-.221-2.2.044.044,0,0,0-.027-.056.045.045,0,0,0-.056.027,3.329,3.329,0,0,0,.227,2.272,1.355,1.355,0,0,0,.837.734Z" transform="translate(2142.51 -594.165)" fill="#0a1a29"/>
                          </g>
                        </g>
                      </g>
                    </g>
                  </g>
                </g>
                <g id="Group_157" data-name="Group 157" transform="translate(0 6.074)">
                  <g id="Group_156" data-name="Group 156">
                    <path id="Path_60" data-name="Path 60" d="M-2270.2,577.535c-1.363.3-2.54-.67-3.575-2.212-.928-1.383-.928-2.8-.459-3.253l-2.75.985.339,4.923,4.685,1.358Z" transform="translate(2276.981 -572.07)" fill="#d44631"/>
                  </g>
                </g>
              </g>
              <g id="Group_182" data-name="Group 182" transform="translate(22.099 10.765)">
                <g id="Group_172" data-name="Group 172">
                  <g id="Group_169" data-name="Group 169">
                    <g id="Group_163" data-name="Group 163">
                      <g id="Group_160" data-name="Group 160" transform="translate(0.647 0.974)">
                        <g id="Group_159" data-name="Group 159">
                          <path id="Path_61" data-name="Path 61" d="M-2123.709,654.43s9.584,12.888,15.134,19.79c2.733,3.4,4.185,5.06,5.625,5.86,1.485.825,4.364.762,5.8,2.085,2.066,1.907.507,5.55-4.681,7.023-5.353,1.52-7.439-.042-7.751-1.312-.337-1.372.739-2.439.744-4.548s-4.411-10.542-8.209-16.252-8.137-11.893-8.137-11.893Z" transform="translate(2125.186 -654.43)" fill="#d44631"/>
                        </g>
                      </g>
                      <g id="Group_162" data-name="Group 162">
                        <g id="Group_161" data-name="Group 161">
                          <path id="Path_62" data-name="Path 62" d="M-2132.5,640.549c-.325-.447-1.05-.28-1.5,0s-.79.69-.455,1.26c.35.595,1.341.133,1.54.035A.872.872,0,0,0-2132.5,640.549Z" transform="translate(2134.593 -640.273)" fill="#d44631"/>
                        </g>
                      </g>
                    </g>
                    <g id="Group_168" data-name="Group 168" transform="translate(0.721 1.413)">
                      <g id="Group_165" data-name="Group 165">
                        <g id="Group_164" data-name="Group 164">
                          <path id="Path_63" data-name="Path 63" d="M-2124.061,661.273a.045.045,0,0,0,.022-.006l.66-.375a.044.044,0,0,0,.017-.06.044.044,0,0,0-.06-.017l-.66.375a.044.044,0,0,0-.016.06A.044.044,0,0,0-2124.061,661.273Z" transform="translate(2124.104 -660.811)" fill="#0a1a29"/>
                        </g>
                      </g>
                      <g id="Group_167" data-name="Group 167" transform="translate(15.46 26.645)">
                        <g id="Group_166" data-name="Group 166">
                          <path id="Path_64" data-name="Path 64" d="M-1899.223,1053.272a.088.088,0,0,0,.083-.061c1.367-4.3,5.939-4.8,5.985-4.805a.088.088,0,0,0,.079-.1.085.085,0,0,0-.1-.079c-.047,0-4.732.512-6.135,4.926a.088.088,0,0,0,.057.11A.089.089,0,0,0-1899.223,1053.272Z" transform="translate(1899.311 -1048.231)" fill="#0a1a29"/>
                        </g>
                      </g>
                    </g>
                  </g>
                  <g id="Group_171" data-name="Group 171" transform="translate(18.025 29.414)">
                    <g id="Group_170" data-name="Group 170">
                      <path id="Path_65" data-name="Path 65" d="M-1872.48,1071.7c.32,1.256,2.656,1.745,5.218,1.092s4.378-2.2,4.058-3.457-2.656-1.745-5.217-1.092S-1872.8,1070.447-1872.48,1071.7Z" transform="translate(1872.517 -1067.958)" fill="#0a1a29"/>
                    </g>
                  </g>
                </g>
                <g id="Group_181" data-name="Group 181" transform="translate(20.259 30.709)">
                  <g id="Group_174" data-name="Group 174" transform="translate(0 2.364)">
                    <g id="Group_173" data-name="Group 173">
                      <path id="Path_66" data-name="Path 66" d="M-1839.693,1130.169h0a.087.087,0,0,0,.085-.09l-.249-8.837a.08.08,0,0,0-.09-.085.088.088,0,0,0-.085.09l.249,8.837A.088.088,0,0,0-1839.693,1130.169Z" transform="translate(1840.03 -1121.155)" fill="#0a1a29"/>
                    </g>
                  </g>
                  <g id="Group_176" data-name="Group 176" transform="translate(2.489 2.116)">
                    <g id="Group_175" data-name="Group 175">
                      <path id="Path_67" data-name="Path 67" d="M-1802.464,1123.466l.019,0a.088.088,0,0,0,.066-.1l-1.285-5.747a.086.086,0,0,0-.1-.066.088.088,0,0,0-.066.1l1.285,5.747A.088.088,0,0,0-1802.464,1123.466Z" transform="translate(1803.836 -1117.544)" fill="#0a1a29"/>
                    </g>
                  </g>
                  <g id="Group_178" data-name="Group 178" transform="translate(4.605 1.244)">
                    <g id="Group_177" data-name="Group 177">
                      <path id="Path_68" data-name="Path 68" d="M-1768.765,1111.6a.085.085,0,0,0,.047-.014.087.087,0,0,0,.026-.121l-4.217-6.557a.086.086,0,0,0-.121-.026.087.087,0,0,0-.026.121l4.217,6.557A.086.086,0,0,0-1768.765,1111.6Z" transform="translate(1773.069 -1104.871)" fill="#0a1a29"/>
                    </g>
                  </g>
                  <g id="Group_180" data-name="Group 180" transform="translate(5.975)">
                    <g id="Group_179" data-name="Group 179">
                      <path id="Path_69" data-name="Path 69" d="M-1750.039,1089.586a.087.087,0,0,0,.066-.03.087.087,0,0,0-.008-.124l-3.032-2.63a.088.088,0,0,0-.124.009.087.087,0,0,0,.009.124l3.032,2.63A.087.087,0,0,0-1750.039,1089.586Z" transform="translate(1753.159 -1086.78)" fill="#0a1a29"/>
                    </g>
                  </g>
                </g>
              </g>
            </g>
            <g id="Group_184" data-name="Group 184" transform="translate(0 73.171)">
              <path id="Path_70" data-name="Path 70" d="M-2480.234,1552.224a.087.087,0,0,0,.034-.007l10.358-4.391a.088.088,0,0,0,.047-.115.087.087,0,0,0-.115-.046l-10.358,4.391a.088.088,0,0,0-.047.115A.089.089,0,0,0-2480.234,1552.224Z" transform="translate(2480.322 -1547.658)" fill="#0a1a29"/>
            </g>
          </g>
        </g>
        <g id="Group_199" data-name="Group 199" transform="translate(8.182 43.183)">
          <g id="Group_198" data-name="Group 198">
            <g id="Group_197" data-name="Group 197">
              <g id="Group_196" data-name="Group 196">
                <path id="Path_71" data-name="Path 71" d="M-2342.25,1130.178l-9.875-15.462,10.005-2.6.9-.484s10.537,12.178,12.357,16.466-.65,7.406-3.638,10.525-21.179,19.23-21.179,19.23-6.107-3.119-7.666-9.485Z" transform="translate(2361.351 -1111.633)" fill="#3f1e18"/>
              </g>
            </g>
          </g>
        </g>
      </g>
      <g id="Group_406" data-name="Group 406" transform="translate(-2411.846 507.426)">
        <g id="Group_208" data-name="Group 208" transform="translate(12.241 37.058)">
          <g id="Group_202" data-name="Group 202" transform="translate(49.448 5.201)">
            <g id="Group_201" data-name="Group 201">
              <path id="Path_72" data-name="Path 72" d="M-849.384,1452.435a.074.074,0,0,0,.067-.042c.031-.064,3.1-6.406-.01-10.014a.074.074,0,0,0-.1-.008.074.074,0,0,0-.008.1c3.043,3.534.021,9.789-.01,9.851a.075.075,0,0,0,.034.1A.072.072,0,0,0-849.384,1452.435Z" transform="translate(849.459 -1442.354)" fill="#3f1e18"/>
            </g>
          </g>
          <g id="Group_207" data-name="Group 207">
            <g id="Group_204" data-name="Group 204" transform="translate(0.058)">
              <g id="Group_203" data-name="Group 203">
                <path id="Path_73" data-name="Path 73" d="M-1561.686,1370.091a8.061,8.061,0,0,0,6.748-3.247.074.074,0,0,0-.02-.1.074.074,0,0,0-.1.02,7.969,7.969,0,0,1-6.927,3.177,6.366,6.366,0,0,1-5.455-2.771.074.074,0,0,0-.1-.027.074.074,0,0,0-.027.1,6.511,6.511,0,0,0,5.579,2.845C-1561.891,1370.09-1561.788,1370.091-1561.686,1370.091Z" transform="translate(1567.582 -1366.728)" fill="#3f1e18"/>
              </g>
            </g>
            <g id="Group_206" data-name="Group 206" transform="translate(0 4.214)">
              <g id="Group_205" data-name="Group 205">
                <path id="Path_74" data-name="Path 74" d="M-1564.492,1429.929a7.745,7.745,0,0,0,1.724-.208.075.075,0,0,0,.056-.089.075.075,0,0,0-.089-.056c-2.379.544-4.176.035-5.494-1.555a.074.074,0,0,0-.1-.01.075.075,0,0,0-.01.1A4.86,4.86,0,0,0-1564.492,1429.929Z" transform="translate(1568.427 -1427.994)" fill="#3f1e18"/>
              </g>
            </g>
          </g>
        </g>
        <g id="Group_405" data-name="Group 405" transform="translate(0 0)">
          <g id="Group_261" data-name="Group 261" transform="translate(0 39.058)">
            <g id="Group_230" data-name="Group 230" transform="translate(0 18.309)">
              <g id="Group_210" data-name="Group 210" transform="translate(14.412 16.975)">
                <g id="Group_209" data-name="Group 209">
                  <path id="Path_75" data-name="Path 75" d="M-1528.8,1912.7c-3.219-3.06-6.692-4.631-7.758-3.509s.678,4.511,3.9,7.571,6.692,4.631,7.758,3.509S-1525.577,1915.76-1528.8,1912.7Z" transform="translate(1536.867 -1908.829)" fill="#d44631"/>
                </g>
              </g>
              <g id="Group_224" data-name="Group 224" transform="translate(0 16.99)">
                <g id="Group_212" data-name="Group 212" transform="translate(9.552)">
                  <g id="Group_211" data-name="Group 211">
                    <path id="Path_76" data-name="Path 76" d="M-1600.983,1909.4l-5.783,7.708s-1.18,2.1-.6,3.749a8.1,8.1,0,0,0,4.112,4.091c2.016.678,3.031.655,3.869-.334s7.952-9.224,7.952-9.224S-1596.592,1907.3-1600.983,1909.4Z" transform="translate(1607.525 -1909.052)" fill="#fff"/>
                  </g>
                </g>
                <g id="Group_223" data-name="Group 223" transform="translate(0 7.446)">
                  <g id="Group_214" data-name="Group 214" transform="translate(0 0.077)">
                    <g id="Group_213" data-name="Group 213">
                      <path id="Path_77" data-name="Path 77" d="M-1728.11,2025.779c.021-.366-1.245.467-3.526-.467s-3.941-2.7-4.149-4.149.052-2.334-.259-2.541-1.711,1.556-3.993,1.245-5.341-1.919-6.119-1.3.435,1.953.985,2.593a75.828,75.828,0,0,0,8.247,8.24c1.122.887,3.368,2.749,3.836,2.65C-1732.1,2031.846-1728.214,2027.593-1728.11,2025.779Z" transform="translate(1746.41 -2018.428)" fill="#d44631"/>
                    </g>
                  </g>
                  <g id="Group_216" data-name="Group 216" transform="translate(7.468 1.493)">
                    <g id="Group_215" data-name="Group 215">
                      <path id="Path_78" data-name="Path 78" d="M-1637.709,2041.595h0a.081.081,0,0,0,.08-.083l-.041-2.406a.081.081,0,0,0-.081-.08h0a.081.081,0,0,0-.08.083l.042,2.406A.081.081,0,0,0-1637.709,2041.595Z" transform="translate(1637.832 -2039.026)" fill="#3f1e18"/>
                    </g>
                  </g>
                  <g id="Group_218" data-name="Group 218" transform="translate(5.933 1.41)">
                    <g id="Group_217" data-name="Group 217">
                      <path id="Path_79" data-name="Path 79" d="M-1660.069,2040.095a.081.081,0,0,0,.081-.08l.042-2.116a.081.081,0,0,0-.08-.083.078.078,0,0,0-.083.08l-.042,2.116a.081.081,0,0,0,.08.083Z" transform="translate(1660.15 -2037.816)" fill="#3f1e18"/>
                    </g>
                  </g>
                  <g id="Group_220" data-name="Group 220" transform="translate(0.747)">
                    <g id="Group_219" data-name="Group 219">
                      <path id="Path_80" data-name="Path 80" d="M-1721.738,2030.168a.081.081,0,0,0,.07-.04.081.081,0,0,0-.029-.111,50.353,50.353,0,0,1-7.7-6.005,47.593,47.593,0,0,1-6-6.666.081.081,0,0,0-.113-.02.081.081,0,0,0-.02.113,47.789,47.789,0,0,0,6.026,6.692,50.486,50.486,0,0,0,7.731,6.026A.076.076,0,0,0-1721.738,2030.168Z" transform="translate(1735.551 -2017.311)" fill="#3f1e18"/>
                    </g>
                  </g>
                  <g id="Group_222" data-name="Group 222" transform="translate(15.184 3.609)">
                    <g id="Group_221" data-name="Group 221">
                      <path id="Path_81" data-name="Path 81" d="M-1525.556,2070.741a.083.083,0,0,0,.033-.007l1.784-.788a.081.081,0,0,0,.041-.107.081.081,0,0,0-.107-.042l-1.784.788a.081.081,0,0,0-.042.107A.081.081,0,0,0-1525.556,2070.741Z" transform="translate(1525.637 -2069.791)" fill="#3f1e18"/>
                    </g>
                  </g>
                </g>
              </g>
              <g id="Group_229" data-name="Group 229" transform="translate(14.531)">
                <g id="Group_226" data-name="Group 226">
                  <g id="Group_225" data-name="Group 225">
                    <path id="Path_82" data-name="Path 82" d="M-1517.286,1681.359a10.952,10.952,0,0,1-2.033,5.148,37.305,37.305,0,0,1-3.946,3.9s.475-2.266-4.053-7.088-7.815-3.692-7.815-3.692,6.208-9.619,8.99-13.5,5.051-3.781,8.028-4.114S-1517.005,1679.178-1517.286,1681.359Z" transform="translate(1535.133 -1662.016)" fill="#3f1e18"/>
                  </g>
                </g>
                <g id="Group_228" data-name="Group 228" transform="translate(3.492 12.196)">
                  <g id="Group_227" data-name="Group 227">
                    <path id="Path_83" data-name="Path 83" d="M-1474.8,1847.042a.079.079,0,0,0,.035-.008.081.081,0,0,0,.038-.108,15.808,15.808,0,0,0-9.529-7.573.082.082,0,0,0-.1.057.081.081,0,0,0,.057.1,15.639,15.639,0,0,1,9.425,7.486A.081.081,0,0,0-1474.8,1847.042Z" transform="translate(1484.355 -1839.35)" fill="#d44631"/>
                  </g>
                </g>
              </g>
            </g>
            <g id="Group_260" data-name="Group 260" transform="translate(22.938)">
              <g id="Group_232" data-name="Group 232" transform="translate(5.628 36.47)">
                <g id="Group_231" data-name="Group 231">
                  <path id="Path_84" data-name="Path 84" d="M-1323.533,1926.334c-4.388.679-7.754,2.47-7.517,4s3.986,2.219,8.375,1.539,7.754-2.47,7.517-4S-1319.145,1925.655-1323.533,1926.334Z" transform="translate(1331.062 -1926.072)" fill="#d44631"/>
                </g>
              </g>
              <g id="Group_244" data-name="Group 244" transform="translate(1.356 35.934)">
                <g id="Group_234" data-name="Group 234" transform="translate(4.284)">
                  <g id="Group_233" data-name="Group 233">
                    <path id="Path_85" data-name="Path 85" d="M-1330.891,1923.077l2.441,8.458s.956,2.206,2.626,2.741a8.1,8.1,0,0,0,5.745-.8c1.759-1.2,2.354-2.018,2.073-3.284s-2.54-11.911-2.54-11.911S-1329.911,1918.308-1330.891,1923.077Z" transform="translate(1330.891 -1918.28)" fill="#fff"/>
                  </g>
                </g>
                <g id="Group_243" data-name="Group 243" transform="translate(0 11.88)">
                  <g id="Group_236" data-name="Group 236">
                    <g id="Group_235" data-name="Group 235">
                      <path id="Path_86" data-name="Path 86" d="M-1375.941,2091.042c-.26-.259-.476,1.241-2.689,2.329s-4.632,1.16-5.856.352-1.712-1.587-2.073-1.492.029,2.313-1.718,3.813-4.845,3.389-4.9,4.384,1.516.83,2.4.8a105.071,105.071,0,0,0,11.693-1.187c1.408-.251,4.291-.7,4.528-1.112C-1374.051,2098.055-1374.652,2092.323-1375.941,2091.042Z" transform="translate(1393.174 -2091.012)" fill="#d44631"/>
                    </g>
                  </g>
                  <g id="Group_238" data-name="Group 238" transform="translate(5.64 4.11)">
                    <g id="Group_237" data-name="Group 237">
                      <path id="Path_87" data-name="Path 87" d="M-1309.256,2152.5a.08.08,0,0,0,.062-.028.081.081,0,0,0-.009-.115l-1.828-1.565a.082.082,0,0,0-.115.009.081.081,0,0,0,.009.114l1.828,1.565A.08.08,0,0,0-1309.256,2152.5Z" transform="translate(1311.165 -2150.769)" fill="#3f1e18"/>
                    </g>
                  </g>
                  <g id="Group_240" data-name="Group 240" transform="translate(4.587 5.172)">
                    <g id="Group_239" data-name="Group 239">
                      <path id="Path_88" data-name="Path 88" d="M-1324.836,2167.811a.08.08,0,0,0,.059-.026.081.081,0,0,0,0-.115l-1.555-1.434a.081.081,0,0,0-.115,0,.081.081,0,0,0,0,.115l1.556,1.434A.08.08,0,0,0-1324.836,2167.811Z" transform="translate(1326.473 -2166.214)" fill="#3f1e18"/>
                    </g>
                  </g>
                  <g id="Group_242" data-name="Group 242" transform="translate(0.692 6.295)">
                    <g id="Group_241" data-name="Group 241">
                      <path id="Path_89" data-name="Path 89" d="M-1380.091,2184.751c1.444,0,3.317-.057,5.433-.259a50.544,50.544,0,0,0,9.637-1.786.081.081,0,0,0,.052-.1.082.082,0,0,0-.1-.052,50.3,50.3,0,0,1-9.6,1.779,53.094,53.094,0,0,1-8.346.169.079.079,0,0,0-.087.075.081.081,0,0,0,.075.087C-1382.706,2184.685-1381.648,2184.751-1380.091,2184.751Z" transform="translate(1383.107 -2182.548)" fill="#3f1e18"/>
                    </g>
                  </g>
                </g>
              </g>
              <g id="Group_257" data-name="Group 257">
                <g id="Group_246" data-name="Group 246" transform="translate(0)">
                  <g id="Group_245" data-name="Group 245">
                    <path id="Path_90" data-name="Path 90" d="M-1379.972,1401.744a10.638,10.638,0,0,1-1.594,6.061c-1.88,2.991-5.995,3.265-7,5.094s-.274,3.474-2.377,5.029a21.832,21.832,0,0,1-5.029,2.56,3.6,3.6,0,0,0,1.1,3.292,10.954,10.954,0,0,1,2.834,4.755,37.285,37.285,0,0,1,.681,5.509s-1.5-1.76-8.087-1.12-7.7,3.933-7.7,3.933-3.824-10.79-5.2-15.362.092-6.309,1.646-8.869,11.7-16.824,11.7-16.824Z" transform="translate(1412.885 -1395.801)" fill="#3f1e18"/>
                  </g>
                </g>
                <g id="Group_256" data-name="Group 256" transform="translate(0 6.833)">
                  <g id="Group_253" data-name="Group 253" transform="translate(4.344)">
                    <g id="Group_248" data-name="Group 248" transform="translate(6.507)">
                      <g id="Group_247" data-name="Group 247">
                        <path id="Path_91" data-name="Path 91" d="M-1251.959,1525.248l.019,0a.081.081,0,0,0,.061-.1c-.031-.133-3.073-13.283-3.073-15.193,0-1.889,11.194-14.545,11.307-14.672a.081.081,0,0,0-.007-.115.082.082,0,0,0-.115.007c-.463.523-11.348,12.83-11.348,14.78,0,1.929,2.951,14.688,3.077,15.23A.081.081,0,0,0-1251.959,1525.248Z" transform="translate(1255.115 -1495.147)" fill="#d44631"/>
                      </g>
                    </g>
                    <g id="Group_250" data-name="Group 250" transform="translate(11.31 17.773)">
                      <g id="Group_249" data-name="Group 249">
                        <path id="Path_92" data-name="Path 92" d="M-1185.2,1754.388a.08.08,0,0,0,.039-.01l1.177-.656a.081.081,0,0,0,.031-.111.081.081,0,0,0-.11-.031l-1.177.656a.081.081,0,0,0-.031.111A.081.081,0,0,0-1185.2,1754.388Z" transform="translate(1185.281 -1753.569)" fill="#d44631"/>
                      </g>
                    </g>
                    <g id="Group_252" data-name="Group 252" transform="translate(0 25.724)">
                      <g id="Group_251" data-name="Group 251">
                        <path id="Path_93" data-name="Path 93" d="M-1349.641,1874.085a.08.08,0,0,0,.063-.03,14.411,14.411,0,0,1,8.371-4.533c5.27-.788,8.035,1.12,8.062,1.139a.081.081,0,0,0,.113-.02.081.081,0,0,0-.019-.113,7.309,7.309,0,0,0-2.074-.889,14.463,14.463,0,0,0-6.106-.278,14.582,14.582,0,0,0-8.473,4.591.082.082,0,0,0,.012.115A.082.082,0,0,0-1349.641,1874.085Z" transform="translate(1349.722 -1869.169)" fill="#d44631"/>
                      </g>
                    </g>
                  </g>
                  <g id="Group_255" data-name="Group 255" transform="translate(0 6.753)">
                    <g id="Group_254" data-name="Group 254">
                      <path id="Path_94" data-name="Path 94" d="M-1412.344,1605.443c.263.88.62,1.994,1.02,3.215,2.176-.932,4.046-3.76,4.6-7.32.507-3.3-.263-6.345-1.809-8-1.016,1.478-1.809,2.66-2.159,3.238C-1412.252,1599.137-1413.717,1600.871-1412.344,1605.443Z" transform="translate(1412.89 -1593.337)" fill="#d44631"/>
                    </g>
                  </g>
                </g>
              </g>
              <g id="Group_259" data-name="Group 259" transform="translate(1.552 28.804)">
                <g id="Group_258" data-name="Group 258">
                  <path id="Path_95" data-name="Path 95" d="M-1386.2,1826.96a.071.071,0,0,0,.028,0,.081.081,0,0,0,.049-.1c-1.313-3.691-2.672-7.793-4.041-12.19a.081.081,0,0,0-.1-.053.081.081,0,0,0-.053.1c1.369,4.4,2.73,8.5,4.043,12.2A.081.081,0,0,0-1386.2,1826.96Z" transform="translate(1390.327 -1814.605)" fill="#d44631"/>
                </g>
              </g>
            </g>
          </g>
          <g id="Group_404" data-name="Group 404" transform="translate(10.254)">
            <g id="Group_303" data-name="Group 303" transform="translate(39.184 2.114)">
              <g id="Group_266" data-name="Group 266" transform="translate(0 8.066)">
                <g id="Group_265" data-name="Group 265" clip-path="url(#clip-path-3)">
                  <g id="Group_263" data-name="Group 263">
                    <g id="Group_262" data-name="Group 262">
                      <path id="Path_96" data-name="Path 96" d="M-1018.707,977.23a4.459,4.459,0,0,0-1.905,3.9s-3.733,1.491-5.822,1.073-.7-2.36-.7-2.36a6.373,6.373,0,0,0,1.505-3.914Z" transform="translate(1027.588 -975.925)" fill="#fff"/>
                    </g>
                  </g>
                  <g id="Group_264" data-name="Group 264" transform="translate(-2.165 -1.491)">
                    <path id="Path_97" data-name="Path 97" d="M-1047.809,957.224a6.12,6.12,0,0,1-3.474,1.515,14.34,14.34,0,0,1-3.7-.453s-1.915,2.355-1.846,3.271-2.24-3.03-2.24-3.03l2.87-4.209,5.326-.071Z" transform="translate(1059.066 -954.248)" fill="#3f1e18"/>
                  </g>
                </g>
              </g>
              <g id="Group_302" data-name="Group 302" transform="translate(1.363)">
                <g id="Group_268" data-name="Group 268" transform="translate(3.263 1.072)">
                  <g id="Group_267" data-name="Group 267">
                    <path id="Path_99" data-name="Path 99" d="M-958.035,874.226a2.452,2.452,0,0,0-2.3,1.679l2.446-.192.647-.647Z" transform="translate(960.337 -874.226)" fill="#3f1e18"/>
                  </g>
                </g>
                <g id="Group_270" data-name="Group 270" transform="translate(4.469)">
                  <g id="Group_269" data-name="Group 269">
                    <path id="Path_100" data-name="Path 100" d="M-936.205,862.911s.247-1.087-1.147-1.847-1.725-.475-2.795-1c-1.239-.606-2.11-1.59-2.522-1.4s.285,1.394.665,1.774,3.422,3.264,3.422,3.264l.349,3.3a10.963,10.963,0,0,0,2.186-2.155C-935.413,863.893-935.761,862.911-936.205,862.911Z" transform="translate(942.795 -858.641)" fill="#3f1e18"/>
                  </g>
                </g>
                <g id="Group_272" data-name="Group 272" transform="translate(0 1.692)">
                  <g id="Group_271" data-name="Group 271">
                    <path id="Path_101" data-name="Path 101" d="M-1005.568,885.147c-.507.507-1.028.775-1.431,1.168a2.572,2.572,0,0,0-.775,2,3.489,3.489,0,0,0,1.783,2.868,5.293,5.293,0,0,0,6.771-1.091c1.984-2.084,1.593-4.656.57-5.7a4.3,4.3,0,0,0-4.373-.951A4.852,4.852,0,0,0-1005.568,885.147Z" transform="translate(1007.776 -883.242)" fill="#fff"/>
                  </g>
                </g>
                <g id="Group_274" data-name="Group 274" transform="translate(5.244 1.26)">
                  <g id="Group_273" data-name="Group 273">
                    <path id="Path_102" data-name="Path 102" d="M-927.586,883.579c-.158-.951.633-2.856.38-3.58-.383-1.1-3.217-1.381-4.326-2.521l1.031-.52a21.519,21.519,0,0,1,3.168,1.458l1.3,2.25A5.771,5.771,0,0,1-927.586,883.579Z" transform="translate(931.532 -876.957)" fill="#3f1e18"/>
                  </g>
                </g>
                <g id="Group_279" data-name="Group 279" transform="translate(7.729 7.648)">
                  <g id="Group_276" data-name="Group 276">
                    <g id="Group_275" data-name="Group 275">
                      <path id="Path_103" data-name="Path 103" d="M-894.566,970.041c-.634.316-.979.913-.769,1.333s.893.5,1.527.187.979-.913.769-1.333S-893.932,969.725-894.566,970.041Z" transform="translate(895.396 -969.849)" fill="#fff"/>
                    </g>
                  </g>
                  <g id="Group_278" data-name="Group 278" transform="translate(0.4 0.686)">
                    <g id="Group_277" data-name="Group 277">
                      <path id="Path_104" data-name="Path 104" d="M-889.542,979.925h0l1.579-.018a.041.041,0,0,0,.04-.041.041.041,0,0,0-.041-.04h0l-1.579.018a.04.04,0,0,0-.04.041A.041.041,0,0,0-889.542,979.925Z" transform="translate(889.583 -979.826)" fill="#3f1e18"/>
                    </g>
                  </g>
                </g>
                <g id="Group_301" data-name="Group 301" transform="translate(1.882 2.017)">
                  <g id="Group_287" data-name="Group 287" transform="translate(0 2.182)">
                    <g id="Group_281" data-name="Group 281" transform="translate(0.522)">
                      <g id="Group_280" data-name="Group 280">
                        <path id="Path_105" data-name="Path 105" d="M-972.442,921.151a.04.04,0,0,0,.029-.013.04.04,0,0,0,0-.057c-.005-.005-.511-.493-.251-.865.156-.224.958-.395,1.254-.442a.041.041,0,0,0,.034-.046.041.041,0,0,0-.047-.034c-.045.007-1.1.178-1.308.475-.3.428.238.948.261.97A.041.041,0,0,0-972.442,921.151Z" transform="translate(972.822 -919.694)" fill="#3f1e18"/>
                      </g>
                    </g>
                    <g id="Group_286" data-name="Group 286" transform="translate(0 2.367)">
                      <g id="Group_283" data-name="Group 283">
                        <g id="Group_282" data-name="Group 282">
                          <path id="Path_106" data-name="Path 106" d="M-979.463,954.431a.041.041,0,0,0,.041-.037.041.041,0,0,0-.037-.044,2.4,2.4,0,0,1-.889-.242.041.041,0,0,0-.055.018.041.041,0,0,0,.018.055,2.478,2.478,0,0,0,.918.251Z" transform="translate(980.407 -954.103)" fill="#3f1e18"/>
                        </g>
                      </g>
                      <g id="Group_285" data-name="Group 285" transform="translate(1.295 0.314)">
                        <g id="Group_284" data-name="Group 284">
                          <path id="Path_107" data-name="Path 107" d="M-961.127,958.792a.04.04,0,0,0,.041-.039.041.041,0,0,0-.039-.042,3.072,3.072,0,0,1-.4-.042.038.038,0,0,0-.047.033.041.041,0,0,0,.033.047,3.145,3.145,0,0,0,.41.043Z" transform="translate(961.573 -958.668)" fill="#3f1e18"/>
                        </g>
                      </g>
                    </g>
                  </g>
                  <g id="Group_292" data-name="Group 292" transform="translate(1.816)">
                    <g id="Group_289" data-name="Group 289" transform="translate(2.62 1.586)">
                      <g id="Group_288" data-name="Group 288">
                        <path id="Path_108" data-name="Path 108" d="M-914.979,913.026a.081.081,0,0,0,.075-.051,1.579,1.579,0,0,0-.118-1.46,1.009,1.009,0,0,0-.81-.487h0a.081.081,0,0,0-.081.08.081.081,0,0,0,.08.083.85.85,0,0,1,.677.415,1.417,1.417,0,0,1,.1,1.31.081.081,0,0,0,.046.105A.084.084,0,0,0-914.979,913.026Z" transform="translate(915.914 -911.027)" fill="#3f1e18"/>
                      </g>
                    </g>
                    <g id="Group_291" data-name="Group 291">
                      <g id="Group_290" data-name="Group 290">
                        <path id="Path_109" data-name="Path 109" d="M-952.758,888.717a.081.081,0,0,0,.032-.007.081.081,0,0,0,.042-.107,1.086,1.086,0,0,0-1.264-.6.082.082,0,0,0-.059.1.082.082,0,0,0,.1.059.909.909,0,0,1,1.075.508A.082.082,0,0,0-952.758,888.717Z" transform="translate(954.009 -887.963)" fill="#3f1e18"/>
                      </g>
                    </g>
                  </g>
                  <g id="Group_300" data-name="Group 300" transform="translate(0.254 0.173)">
                    <g id="Group_297" data-name="Group 297">
                      <g id="Group_294" data-name="Group 294" transform="translate(2.257 1.921)">
                        <g id="Group_293" data-name="Group 293">
                          <path id="Path_110" data-name="Path 110" d="M-943.6,918.414a1.285,1.285,0,0,0,.068,1.721,1.285,1.285,0,0,0,1.71-.208Z" transform="translate(943.891 -918.414)" fill="#3f1e18"/>
                        </g>
                      </g>
                      <g id="Group_296" data-name="Group 296">
                        <g id="Group_295" data-name="Group 295">
                          <path id="Path_111" data-name="Path 111" d="M-976.414,890.478a1.285,1.285,0,0,0,.069,1.721,1.285,1.285,0,0,0,1.71-.208Z" transform="translate(976.708 -890.478)" fill="#3f1e18"/>
                        </g>
                      </g>
                    </g>
                    <g id="Group_299" data-name="Group 299" transform="translate(4.088 3.339)">
                      <g id="Group_298" data-name="Group 298">
                        <path id="Path_112" data-name="Path 112" d="M-914.221,941.12a.081.081,0,0,0,.068-.037.081.081,0,0,0-.024-.112l-2.959-1.932a.082.082,0,0,0-.112.024.081.081,0,0,0,.024.113l2.959,1.931A.079.079,0,0,0-914.221,941.12Z" transform="translate(917.261 -939.026)" fill="#3f1e18"/>
                      </g>
                    </g>
                  </g>
                </g>
              </g>
            </g>
            <g id="Group_403" data-name="Group 403">
              <g id="Group_305" data-name="Group 305" transform="translate(16.261 21.677)">
                <g id="Group_304" data-name="Group 304">
                  <path id="Path_113" data-name="Path 113" d="M-1358.482,1146.445c-2.035,2.485-2.953,5.1-2.05,5.837s3.283-.677,5.318-3.163,2.953-5.1,2.05-5.837S-1356.448,1143.96-1358.482,1146.445Z" transform="translate(1360.88 -1143.087)" fill="#3f1e18"/>
                </g>
              </g>
              <g id="Group_318" data-name="Group 318" transform="translate(14.08 7.936)">
                <g id="Group_307" data-name="Group 307" transform="translate(5.497 6.209)">
                  <g id="Group_306" data-name="Group 306">
                    <path id="Path_114" data-name="Path 114" d="M-1309.35,1036.012c-2.468,2.056-3.863,4.448-3.117,5.344s3.352-.044,5.82-2.1,3.863-4.448,3.117-5.344S-1306.883,1033.957-1309.35,1036.012Z" transform="translate(1312.669 -1033.573)" fill="#3f1e18"/>
                  </g>
                </g>
                <g id="Group_312" data-name="Group 312">
                  <g id="Group_309" data-name="Group 309" transform="translate(6.532 4.411)">
                    <g id="Group_308" data-name="Group 308">
                      <path id="Path_115" data-name="Path 115" d="M-1290.322,1012.656l-4.633,3.024-2.676-3.807,5.5-4.441C-1291.635,1009.589-1291.15,1011.784-1290.322,1012.656Z" transform="translate(1297.631 -1007.433)" fill="#fff"/>
                    </g>
                  </g>
                  <g id="Group_311" data-name="Group 311">
                    <g id="Group_310" data-name="Group 310">
                      <path id="Path_116" data-name="Path 116" d="M-1387.453,944.744s-4.835-2.059-5.136-1.269c-.236.62,2.863,2.243,4.516,3.07Z" transform="translate(1392.602 -943.294)" fill="#fff"/>
                    </g>
                  </g>
                </g>
                <g id="Group_317" data-name="Group 317" transform="translate(6.733 6.533)">
                  <g id="Group_314" data-name="Group 314">
                    <g id="Group_313" data-name="Group 313">
                      <path id="Path_117" data-name="Path 117" d="M-1282.836,1044.279c-2.073-2.3-2.565-4.181-3.979-6,.031.27-.385,2.078-2.806,4.027-1.243,1-3.406,2.4-5.088,2.535l2.789,5.02,6.489.087Z" transform="translate(1294.709 -1038.278)" fill="#3f1e18"/>
                    </g>
                  </g>
                  <g id="Group_316" data-name="Group 316" transform="translate(4.998 3.817)">
                    <g id="Group_315" data-name="Group 315">
                      <path id="Path_118" data-name="Path 118" d="M-1221.952,1099.452a.078.078,0,0,0,.038-.01c4.6-2.429,5.042-5.547,5.046-5.578a.082.082,0,0,0-.07-.091.083.083,0,0,0-.091.071c0,.03-.439,3.068-4.961,5.455a.081.081,0,0,0-.034.11A.082.082,0,0,0-1221.952,1099.452Z" transform="translate(1222.033 -1093.773)" fill="#3f1e18"/>
                    </g>
                  </g>
                </g>
              </g>
              <g id="Group_325" data-name="Group 325" transform="translate(25.987 14.094)">
                <g id="Group_320" data-name="Group 320">
                  <g id="Group_319" data-name="Group 319">
                    <path id="Path_119" data-name="Path 119" d="M-1200.8,1034.248l-5.093.433.079-1.848-2.842,1.082-4.409,7.041-6.4,17.69a12.62,12.62,0,0,0,6.223,1.556l8.029-22.8Z" transform="translate(1219.465 -1032.832)" fill="#fff"/>
                  </g>
                </g>
                <g id="Group_324" data-name="Group 324" transform="translate(9.135 1.767)">
                  <g id="Group_321" data-name="Group 321" transform="translate(0.481 0.138)">
                    <path id="Path_120" data-name="Path 120" d="M-1077.979,1064.573c-.489.1-1.509-.115-1.624-.607a2.569,2.569,0,0,1,.359-1.771c.449-.29,3.559-1.663,3.559-1.663l-.8,3.2A4.428,4.428,0,0,1-1077.979,1064.573Z" transform="translate(1079.637 -1060.533)" fill="#fee4e0"/>
                  </g>
                  <g id="Group_323" data-name="Group 323">
                    <g id="Group_322" data-name="Group 322">
                      <path id="Path_121" data-name="Path 121" d="M-1083.2,1062.428a.081.081,0,0,0,.078-.06l1-3.736a.081.081,0,0,0-.027-.084.082.082,0,0,0-.088-.01l-4.352,2.158a.081.081,0,0,0-.037.109.081.081,0,0,0,.109.037l4.191-2.078-.953,3.562a.081.081,0,0,0,.057.1Z" transform="translate(1086.636 -1058.53)" fill="#3f1e18"/>
                    </g>
                  </g>
                </g>
              </g>
              <g id="Group_330" data-name="Group 330" transform="translate(23.636 13.181)">
                <g id="Group_327" data-name="Group 327">
                  <g id="Group_326" data-name="Group 326">
                    <path id="Path_122" data-name="Path 122" d="M-1253.658,1049.707a3.7,3.7,0,0,0,2.289.594s1.055-2.364,1.987-4.874c1.513-4.062,1.461-6.833,3.384-12.532,2.958-8.768,8.131-12.291,8.333-12.425,0-.006.006-.006.006-.006a6.275,6.275,0,0,0,.549-.76c-3.549-.841-5.754,1.968-6.7,4.238-1,2.387-2.887,4.277-4.277,6.962S-1253.658,1049.707-1253.658,1049.707Z" transform="translate(1253.658 -1019.552)" fill="#d44631"/>
                  </g>
                </g>
                <g id="Group_329" data-name="Group 329" transform="translate(6.927)">
                  <g id="Group_328" data-name="Group 328">
                    <path id="Path_123" data-name="Path 123" d="M-1152.943,1035.24c.208-.728.451-1.5.734-2.345,2.958-8.768,8.131-12.291,8.333-12.425,0-.006.006-.006.006-.006a5.9,5.9,0,0,0,.438-.591c.036-.052.071-.1.107-.162,0,0,0,0,0-.006-3.549-.841-5.754,1.968-6.7,4.238a16.437,16.437,0,0,1-1.666,2.9Z" transform="translate(1152.943 -1019.552)" fill="#3f1e18"/>
                  </g>
                </g>
              </g>
              <g id="Group_377" data-name="Group 377">
                <g id="Group_369" data-name="Group 369">
                  <g id="Group_356" data-name="Group 356">
                    <g id="Group_337" data-name="Group 337">
                      <g id="Group_332" data-name="Group 332">
                        <g id="Group_331" data-name="Group 331">
                          <path id="Path_124" data-name="Path 124" d="M-1555.308,836.364c-.343.232-5.34-1.837-6.374-2.3s-3.675-1.952-4.881-1.321-5.914,8.383-7.292,11.656-7.206,13.682-10.039,16.274a9.433,9.433,0,0,1-9.856,1.8c-3.732-1.6-4.368-6-2.688-10.924,1.121-3.282,4.611-9.334,4.036-10.31s-1.321-1.321-1.321-2.469,1.78-2.871,7.407-2.182c0,0,5.879,1.074,5.427,3.3-.239,1.181-1.692,1.1-2.24,1.92-.464.7-.921,2.435-2.1,4.343-1.645,2.656-3.183,4.561-2.641,4.881.782.461,5.4-6.582,7.126-9.4s6.445-11.065,9.339-12.791c2.873-1.714,5.417-.817,7.6.389s7.184,4.591,7.812,5.54S-1555.2,836.292-1555.308,836.364Z" transform="translate(1597.318 -827.905)" fill="#d44631"/>
                        </g>
                      </g>
                      <g id="Group_334" data-name="Group 334" transform="translate(6.758 9.723)">
                        <g id="Group_333" data-name="Group 333">
                          <path id="Path_125" data-name="Path 125" d="M-1499.045,970.64c-.1.931,1.253,1.843,3.026,2.038s3.295-.4,3.4-1.333-1.253-1.843-3.026-2.038S-1498.943,969.709-1499.045,970.64Z" transform="translate(1499.051 -969.27)" fill="#3f1e18"/>
                        </g>
                      </g>
                      <g id="Group_336" data-name="Group 336" transform="translate(40.052 6.444)">
                        <g id="Group_335" data-name="Group 335">
                          <path id="Path_126" data-name="Path 126" d="M-1012.543,923.89c-.225.206-2.413-.8-2.413-.8l.872-1.484C-1013.861,921.737-1012.12,923.5-1012.543,923.89Z" transform="translate(1014.956 -921.601)" fill="#3f1e18"/>
                        </g>
                      </g>
                    </g>
                    <g id="Group_355" data-name="Group 355" transform="translate(2.416 6.043)">
                      <g id="Group_349" data-name="Group 349">
                        <g id="Group_338" data-name="Group 338" transform="translate(14.913 10.845)">
                          <path id="Path_127" data-name="Path 127" d="M-1345.36,1074.8a1.335,1.335,0,0,0,1.335,1.335,1.335,1.335,0,0,0,1.335-1.335,1.335,1.335,0,0,0-1.335-1.336A1.335,1.335,0,0,0-1345.36,1074.8Z" transform="translate(1345.36 -1073.466)" fill="#f7cec1"/>
                        </g>
                        <g id="Group_340" data-name="Group 340" transform="translate(3.947 9.675)">
                          <g id="Group_339" data-name="Group 339">
                            <path id="Path_128" data-name="Path 128" d="M-1504.809,1057.395a.952.952,0,0,0,.952.952.952.952,0,0,0,.952-.952.952.952,0,0,0-.952-.952A.952.952,0,0,0-1504.809,1057.395Z" transform="translate(1504.809 -1056.443)" fill="#3f1e18"/>
                          </g>
                        </g>
                        <g id="Group_342" data-name="Group 342" transform="translate(2.408 13.192)">
                          <g id="Group_341" data-name="Group 341">
                            <circle id="Ellipse_12" data-name="Ellipse 12" cx="1.072" cy="1.072" r="1.072" fill="#3f1e18"/>
                          </g>
                        </g>
                        <g id="Group_344" data-name="Group 344" transform="translate(0 16.914)">
                          <g id="Group_343" data-name="Group 343" transform="translate(0 0)">
                            <circle id="Ellipse_13" data-name="Ellipse 13" cx="1.366" cy="1.366" r="1.366" transform="translate(0 2.683) rotate(-79.099)" fill="#3f1e18"/>
                          </g>
                        </g>
                        <g id="Group_345" data-name="Group 345" transform="translate(8.016 21.396)">
                          <circle id="Ellipse_14" data-name="Ellipse 14" cx="1.396" cy="1.396" r="1.396" transform="translate(0 2.785) rotate(-85.935)" fill="#f7cec1"/>
                        </g>
                        <g id="Group_346" data-name="Group 346" transform="translate(17.543 7.082)">
                          <path id="Path_129" data-name="Path 129" d="M-1307.114,1019.757a1.012,1.012,0,0,0,1.012,1.012,1.012,1.012,0,0,0,1.012-1.012,1.012,1.012,0,0,0-1.012-1.012A1.012,1.012,0,0,0-1307.114,1019.757Z" transform="translate(1307.114 -1018.745)" fill="#f7cec1"/>
                        </g>
                        <g id="Group_347" data-name="Group 347" transform="translate(20.012 3.683)">
                          <path id="Path_130" data-name="Path 130" d="M-1271.222,970.229a.911.911,0,0,0,.911.911.911.911,0,0,0,.91-.911.91.91,0,0,0-.91-.911A.911.911,0,0,0-1271.222,970.229Z" transform="translate(1271.222 -969.319)" fill="#f7cec1"/>
                        </g>
                        <g id="Group_348" data-name="Group 348" transform="translate(22.723)">
                          <circle id="Ellipse_15" data-name="Ellipse 15" cx="0.911" cy="0.911" r="0.911" fill="#f7cec1"/>
                        </g>
                      </g>
                      <g id="Group_354" data-name="Group 354" transform="translate(6.832 7.351)">
                        <g id="Group_351" data-name="Group 351" transform="translate(0 9.542)">
                          <g id="Group_350" data-name="Group 350">
                            <path id="Path_131" data-name="Path 131" d="M-1462.77,1162.959a.081.081,0,0,0,.081-.078l.058-1.4a.081.081,0,0,0-.078-.085.083.083,0,0,0-.084.078l-.058,1.4a.082.082,0,0,0,.078.085Z" transform="translate(1462.851 -1161.401)" fill="#3f1e18"/>
                          </g>
                        </g>
                        <g id="Group_353" data-name="Group 353" transform="translate(3.077)">
                          <g id="Group_352" data-name="Group 352">
                            <path id="Path_132" data-name="Path 132" d="M-1418.033,1023.654l.018,0a10.693,10.693,0,0,0,2.326-.842.081.081,0,0,0,.037-.109.082.082,0,0,0-.109-.036,10.529,10.529,0,0,1-2.291.83.081.081,0,0,0-.061.1A.081.081,0,0,0-1418.033,1023.654Z" transform="translate(1418.114 -1022.656)" fill="#3f1e18"/>
                          </g>
                        </g>
                      </g>
                    </g>
                  </g>
                  <g id="Group_358" data-name="Group 358" transform="translate(10.13 14.868)">
                    <g id="Group_357" data-name="Group 357">
                      <path id="Path_133" data-name="Path 133" d="M-1436.222,1054.433a30.509,30.509,0,0,0-3.123-4.181c-1.36-1.36-5.972-6.491-6.6-6.145-.793.438,2.519,5.188,2.519,5.188s-4.39-4.382-5.188-3.677c-.82.725,3.576,5.087,3.576,5.087s-4.134-2.569-4.735-1.813c-.521.656,4.09,3.861,4.09,3.861s-4.191-1.645-4.342-.738,4.029,2.267,4.483,2.619a18.757,18.757,0,0,0,5.742,3.677Z" transform="translate(1450.027 -1044.091)" fill="#fff"/>
                    </g>
                  </g>
                  <g id="Group_368" data-name="Group 368" transform="translate(16.806 4.293)">
                    <g id="Group_360" data-name="Group 360" transform="translate(7.651 3.718)">
                      <g id="Group_359" data-name="Group 359">
                        <path id="Path_134" data-name="Path 134" d="M-1238.707,953.259a7.589,7.589,0,0,1-.093-3.343c.318-1.287,1.943-5.02.972-5.506s-3.157,4.412-3.886,6.922l.2,2.025A2.279,2.279,0,0,0-1238.707,953.259Z" transform="translate(1241.714 -944.377)" fill="#fff"/>
                      </g>
                    </g>
                    <g id="Group_367" data-name="Group 367">
                      <g id="Group_362" data-name="Group 362" transform="translate(3.112)">
                        <g id="Group_361" data-name="Group 361">
                          <path id="Path_135" data-name="Path 135" d="M-1304.815,893.448c-.751.536-2.588-1.251-2.846-1.941s.595-1.281,1.072-1.173C-1306.167,890.431-1304.212,893.017-1304.815,893.448Z" transform="translate(1307.709 -890.322)" fill="#fff"/>
                        </g>
                      </g>
                      <g id="Group_364" data-name="Group 364" transform="translate(1.589 1.029)">
                        <g id="Group_363" data-name="Group 363">
                          <path id="Path_136" data-name="Path 136" d="M-1328.435,905.3a1.325,1.325,0,0,0-1.417,1.174c.04.567,2.429,2.712,3.279,2.388S-1328.233,905.344-1328.435,905.3Z" transform="translate(1329.854 -905.287)" fill="#fff"/>
                        </g>
                      </g>
                      <g id="Group_366" data-name="Group 366" transform="translate(0 1.901)">
                        <g id="Group_365" data-name="Group 365">
                          <path id="Path_137" data-name="Path 137" d="M-1351.857,917.964a1.138,1.138,0,0,0-1.107,1.15c-.022.846,3.022,2.824,3.538,2.344C-1348.8,920.873-1351.314,917.943-1351.857,917.964Z" transform="translate(1352.964 -917.964)" fill="#fff"/>
                        </g>
                      </g>
                    </g>
                  </g>
                </g>
                <g id="Group_376" data-name="Group 376" transform="translate(8.127 2.049)">
                  <g id="Group_371" data-name="Group 371" transform="translate(5.9 1.535)">
                    <g id="Group_370" data-name="Group 370">
                      <path id="Path_138" data-name="Path 138" d="M-1393.285,883.127a.081.081,0,0,0,.06-.026l2.687-2.942a.081.081,0,0,0-.005-.115.081.081,0,0,0-.115.005l-2.686,2.942a.081.081,0,0,0,.005.115A.08.08,0,0,0-1393.285,883.127Z" transform="translate(1393.366 -880.022)" fill="#3f1e18"/>
                    </g>
                  </g>
                  <g id="Group_373" data-name="Group 373" transform="translate(3.342)">
                    <g id="Group_372" data-name="Group 372">
                      <path id="Path_139" data-name="Path 139" d="M-1430.484,861.572a.081.081,0,0,0,.079-.065l.767-3.71a.081.081,0,0,0-.063-.1.081.081,0,0,0-.1.063l-.768,3.71a.081.081,0,0,0,.063.1Z" transform="translate(1430.565 -857.699)" fill="#3f1e18"/>
                    </g>
                  </g>
                  <g id="Group_375" data-name="Group 375" transform="translate(0 0.513)">
                    <g id="Group_374" data-name="Group 374">
                      <path id="Path_140" data-name="Path 140" d="M-1478.8,868.134h.008a.081.081,0,0,0,.073-.089l-.271-2.813a.084.084,0,0,0-.089-.073.081.081,0,0,0-.073.089l.271,2.813A.081.081,0,0,0-1478.8,868.134Z" transform="translate(1479.153 -865.159)" fill="#3f1e18"/>
                    </g>
                  </g>
                </g>
              </g>
              <g id="Group_402" data-name="Group 402" transform="translate(16.651 15.373)">
                <g id="Group_382" data-name="Group 382" transform="translate(13.939)">
                  <g id="Group_379" data-name="Group 379" transform="translate(0 0.008)">
                    <g id="Group_378" data-name="Group 378">
                      <path id="Path_141" data-name="Path 141" d="M-1136.968,1051.54a14.508,14.508,0,0,1,6.272,4.641c2.137,3.146-.237,9.14-.95,11.633s-1.306,6.825-.475,9.259,2.018,4.629,1.365,7.419a16.824,16.824,0,0,1-1.959,4.807,28.9,28.9,0,0,0-6.41-2.077,27.333,27.333,0,0,1-7.538-2.374,53.029,53.029,0,0,1-5.876-3.917l3.858-13.592,7.656-13.473Z" transform="translate(1152.538 -1051.54)" fill="#d44631"/>
                    </g>
                  </g>
                  <g id="Group_381" data-name="Group 381" transform="translate(3.859)">
                    <g id="Group_380" data-name="Group 380">
                      <path id="Path_142" data-name="Path 142" d="M-1096.425,1067.229l0,0a4.754,4.754,0,0,0,2.546-2.192c.951-1.721,2.02-2.432,2.91-3.858s.178-2.968,1.189-3.8,3.491-.812,5.28-2.137a7.436,7.436,0,0,0,2.182-2.63,16.836,16.836,0,0,0-1.848-.952l-.023-.01-.516-.214-.013,0s-4.293-.286-6.609,2.264S-1096.009,1061.591-1096.425,1067.229Z" transform="translate(1096.425 -1051.423)" fill="#3f1e18"/>
                    </g>
                  </g>
                </g>
                <g id="Group_400" data-name="Group 400" transform="translate(0 4.558)">
                  <g id="Group_384" data-name="Group 384">
                    <g id="Group_383" data-name="Group 383">
                      <path id="Path_143" data-name="Path 143" d="M-1320.653,1118.35c-2.514-1.432-5.083-.462-7.063,2.574s-4.431,8.333-5.083,7.987c-.634-.336-14.7-9.274-15.284-9.389.629.531.474,2.646-1.6,5.038-2.006,2.313-3.493,4.4-5.524,4.109a5.083,5.083,0,0,0,2.672,1.43c1.98.528,2.641.132,4.027,1.188s1.65,3.3,3.895,4.357,3.036.594,5.611,1.716,5.454,3.563,8.713,3.169c3.971-.481,9.664-12.923,10.628-15.843C-1318.714,1121.812-1318.977,1119.3-1320.653,1118.35Z" transform="translate(1355.208 -1117.7)" fill="#d44631"/>
                    </g>
                  </g>
                  <g id="Group_399" data-name="Group 399" transform="translate(6.617 4.559)">
                    <g id="Group_386" data-name="Group 386" transform="translate(0.536 0.626)">
                      <g id="Group_385" data-name="Group 385">
                        <path id="Path_144" data-name="Path 144" d="M-1251.11,1201.844a.08.08,0,0,0,.044-.013,13.227,13.227,0,0,0,5.676-8.645.082.082,0,0,0-.07-.091.082.082,0,0,0-.091.07,13.056,13.056,0,0,1-5.6,8.529.081.081,0,0,0-.025.112A.082.082,0,0,0-1251.11,1201.844Z" transform="translate(1251.191 -1193.095)" fill="#3f1e18"/>
                      </g>
                    </g>
                    <g id="Group_391" data-name="Group 391" transform="translate(5.269)">
                      <g id="Group_388" data-name="Group 388">
                        <g id="Group_387" data-name="Group 387">
                          <path id="Path_145" data-name="Path 145" d="M-1171.638,1194.15a.082.082,0,0,0,.078-.058c.028-.1.666-2.351-.516-3.745a.085.085,0,0,0-.019-.016l-10.168-6.328a.081.081,0,0,0-.112.026.081.081,0,0,0,.026.112l10.157,6.322c1.114,1.327.483,3.562.476,3.585a.082.082,0,0,0,.056.1A.081.081,0,0,0-1171.638,1194.15Z" transform="translate(1182.387 -1183.99)" fill="#3f1e18"/>
                        </g>
                      </g>
                      <g id="Group_390" data-name="Group 390" transform="translate(10.877 6.203)">
                        <g id="Group_389" data-name="Group 389">
                          <path id="Path_146" data-name="Path 146" d="M-1022.738,1276.1a.08.08,0,0,0,.037-.009.081.081,0,0,0,.035-.109,5.364,5.364,0,0,0-1.447-1.783.081.081,0,0,0-.112.027.081.081,0,0,0,.027.111,5.319,5.319,0,0,1,1.388,1.719A.081.081,0,0,0-1022.738,1276.1Z" transform="translate(1024.237 -1274.183)" fill="#3f1e18"/>
                        </g>
                      </g>
                    </g>
                    <g id="Group_398" data-name="Group 398" transform="translate(0 6.447)">
                      <g id="Group_393" data-name="Group 393" transform="translate(13.321 5.599)">
                        <g id="Group_392" data-name="Group 392">
                          <path id="Path_147" data-name="Path 147" d="M-1065.309,1364.165a8.72,8.72,0,0,0,4.978,1.2c1.439-.175,3.108-1.923,4.693-4.222a5.446,5.446,0,0,0-4.222-2A5.484,5.484,0,0,0-1065.309,1364.165Z" transform="translate(1065.309 -1359.138)" fill="#3f1e18"/>
                        </g>
                      </g>
                      <g id="Group_395" data-name="Group 395" transform="translate(0 2.501)">
                        <g id="Group_394" data-name="Group 394">
                          <path id="Path_148" data-name="Path 148" d="M-1245.546,1322.274a.082.082,0,0,0,.077-.054.082.082,0,0,0-.05-.1,14.416,14.416,0,0,1-1.808-.875,19.472,19.472,0,0,0-2.852-1.332,18.622,18.622,0,0,0-2.03-.55,11.834,11.834,0,0,1-2.771-.9,6.285,6.285,0,0,1-2.377-2.535,5.723,5.723,0,0,0-1.509-1.817.082.082,0,0,0-.112.026.081.081,0,0,0,.026.112,5.626,5.626,0,0,1,1.458,1.767,6.4,6.4,0,0,0,2.445,2.594,12.12,12.12,0,0,0,2.8.916,18.512,18.512,0,0,1,2.014.546,19.378,19.378,0,0,1,2.827,1.321,14.48,14.48,0,0,0,1.832.885A.092.092,0,0,0-1245.546,1322.274Z" transform="translate(1258.991 -1314.09)" fill="#3f1e18"/>
                        </g>
                      </g>
                      <g id="Group_397" data-name="Group 397" transform="translate(22.75)">
                        <g id="Group_396" data-name="Group 396">
                          <path id="Path_149" data-name="Path 149" d="M-928.133,1285.513a.081.081,0,0,0,.066-.033,45.072,45.072,0,0,0,4.344-7.633.081.081,0,0,0-.04-.107.081.081,0,0,0-.107.04,44.881,44.881,0,0,1-4.328,7.6.081.081,0,0,0,.018.114A.081.081,0,0,0-928.133,1285.513Z" transform="translate(928.214 -1277.732)" fill="#3f1e18"/>
                        </g>
                      </g>
                    </g>
                  </g>
                </g>
                <g id="Group_401" data-name="Group 401" transform="translate(16.992 3.56)">
                  <path id="Path_150" data-name="Path 150" d="M-1104.508,1104.089a5.842,5.842,0,0,0,.137,3.047,2.761,2.761,0,0,0,2.94,1.6c1.3-.084,3.486-1.134,5.46-1.176s4.074,1.638,6.426.5,2.772-4.7,3.444-4.872,1.428,4.7-.462,7.812-6.594,3.4-10.206,3.4-10.92-1.386-11.339-5.754a5.547,5.547,0,0,1,2.009-5.017Z" transform="translate(1108.14 -1103.184)" fill="#fee4e0"/>
                </g>
              </g>
            </g>
          </g>
        </g>
      </g>
    </g>
  </g>
</svg>
