<svg xmlns="http://www.w3.org/2000/svg" xmlns:xlink="http://www.w3.org/1999/xlink" width="23" height="23" viewBox="0 0 23 23">
  <defs>
    <clipPath id="clip-path">
      <circle id="Ellipse_29" data-name="Ellipse 29" cx="10.5" cy="10.5" r="10.5" transform="translate(1223 858)" fill="#fff6f6" stroke="#fff" stroke-width="1"/>
    </clipPath>
  </defs>
  <g id="Group_1333" data-name="Group 1333" transform="translate(-1222 -857)">
    <g id="Ellipse_30" data-name="Ellipse 30" transform="translate(1223 858)" fill="#fff6f6" stroke="#fff" stroke-width="1">
      <circle cx="10.5" cy="10.5" r="10.5" stroke="none"/>
      <circle cx="10.5" cy="10.5" r="11" fill="none"/>
    </g>
    <g id="Mask_Group_3" data-name="Mask Group 3" clip-path="url(#clip-path)">
      <g id="Grupo_1331" data-name="Grupo 1331" transform="translate(-110.134 13.586)">
        <g id="Grupo_1326" data-name="Grupo 1326" transform="translate(1335.113 846.698)">
          <path id="Trazado_68" data-name="Trazado 68" d="M339.291,236.632a7.042,7.042,0,0,1,.045-2.692,1.477,1.477,0,0,1,.994-.989c.009,0,.176-1.108,2.451-1.194s4.08.885,3.637,4.879l-.568.9-3.09-2.984s-2.648,1.712-2.881,2.526S339.291,236.632,339.291,236.632Z" transform="translate(-334.261 -231.752)" fill="#3b2645"/>
          <path id="Trazado_69" data-name="Trazado 69" d="M332.945,291.954H315.9s0-5,.773-5.495l.038-.023a11.394,11.394,0,0,1,1.375-.589c.217-.085.451-.171.688-.256.293-.107.6-.217.9-.322.814-.287,1.609-.556,2.123-.727l.068-.023c.067-.023.128-.043.182-.06.112-.039.2-.066.256-.085l.076-.025h4.084l.013,0,.085.026a.187.187,0,0,1,.031.01c.062.02.147.048.25.085l.112.038.016.006a.53.53,0,0,1,.074.025l.118.039a.321.321,0,0,1,.043.014c.5.171,1.206.408,1.927.662.426.151.862.306,1.265.457l.325.122a10.672,10.672,0,0,1,1.45.624,1.351,1.351,0,0,1,.38.776,26.5,26.5,0,0,1,.386,4.716Z" transform="translate(-315.904 -273.238)" fill="#9c4345"/>
          <path id="Trazado_70" data-name="Trazado 70" d="M350.658,274.708l-1.918.322v.053l-.159-.025-.157.025v-.053l-1.849-.322.1-.807.219-1.774h3.376l.188,1.259Z" transform="translate(-340.096 -263.597)" fill="#9c4345"/>
          <path id="Trazado_71" data-name="Trazado 71" d="M350.831,273.385a7.271,7.271,0,0,1-3.783.517l.219-1.774h3.377Z" transform="translate(-340.469 -263.598)" fill="#753233"/>
          <path id="Trazado_72" data-name="Trazado 72" d="M369.671,255.6s.281-1.114.981-.62,0,2.121-.987,2.112C369.664,257.086,369.4,256,369.671,255.6Z" transform="translate(-358.219 -249.969)" fill="#9c4345"/>
          <path id="Trazado_73" data-name="Trazado 73" d="M371.376,257.9a.9.9,0,0,0-.357.3,1.089,1.089,0,0,0-.243.393c-.012.045.051.065.078.034.073-.085.129-.185.2-.277a.511.511,0,0,0,.2.126c.061.015.1-.063.065-.108a.461.461,0,0,0-.17-.13,2.346,2.346,0,0,0,.28-.265.046.046,0,0,0-.053-.069Z" transform="translate(-359.184 -252.372)" fill="#753233"/>
          <path id="Trazado_74" data-name="Trazado 74" d="M337.7,255.1s-.281-1.114-.982-.62,0,2.121.987,2.112C337.709,256.589,337.972,255.5,337.7,255.1Z" transform="translate(-332.101 -249.576)" fill="#9c4345"/>
          <path id="Trazado_75" data-name="Trazado 75" d="M338.694,257.4a.9.9,0,0,1,.357.3,1.086,1.086,0,0,1,.243.393c.012.045-.051.065-.078.034-.073-.085-.13-.185-.2-.277a.512.512,0,0,1-.2.126c-.061.015-.1-.063-.065-.108a.462.462,0,0,1,.171-.13,2.364,2.364,0,0,1-.281-.265.046.046,0,0,1,.053-.07Z" transform="translate(-333.831 -251.978)" fill="#753233"/>
          <path id="Trazado_76" data-name="Trazado 76" d="M347.324,240.839c-.657-3.155-3.075-2.931-3.075-2.931s-2.417-.222-3.075,2.931a6.045,6.045,0,0,0,.281,3.508,2.881,2.881,0,0,0,5.587,0,6.043,6.043,0,0,0,.28-3.508Z" transform="translate(-335.728 -236.604)" fill="#9c4345"/>
          <path id="Trazado_77" data-name="Trazado 77" d="M354.465,254.677c-.141-.014-.459.085-.533-.062a4.1,4.1,0,0,1,.153-1.009,12.611,12.611,0,0,0,.256-1.34.026.026,0,0,0-.049-.011,15.455,15.455,0,0,0-.523,2.452.07.07,0,0,0,.071.085c.205-.014.408.02.613.011C354.523,254.8,354.537,254.684,354.465,254.677Z" transform="translate(-345.771 -247.911)" fill="#753233"/>
          <path id="Trazado_78" data-name="Trazado 78" d="M351.545,268.052h1.943s-.364.689-.972.689S351.545,268.052,351.545,268.052Z" transform="translate(-344.017 -260.383)" fill="#fff"/>
          <path id="Trazado_79" data-name="Trazado 79" d="M349.038,254.28s-.266.1-.225-.372c.036-.426.225-.366.225-.366s.185,0,.157.368S349.038,254.28,349.038,254.28Z" transform="translate(-341.859 -248.937)" fill="#3b2645"/>
          <path id="Trazado_80" data-name="Trazado 80" d="M361.048,254.28s-.266.1-.225-.372c.036-.426.225-.366.225-.366s.185,0,.157.368S361.048,254.28,361.048,254.28Z" transform="translate(-351.332 -248.937)" fill="#3b2645"/>
          <path id="Trazado_81" data-name="Trazado 81" d="M348.478,250.145c-.229-.117-.656-.148-.822.09a.071.071,0,0,0,.061.106c.113-.006.213-.061.327-.07a.921.921,0,0,1,.357.055.1.1,0,0,0,.077-.181Z" transform="translate(-340.941 -246.188)" fill="#3b2645"/>
          <path id="Trazado_82" data-name="Trazado 82" d="M360.488,250.145c-.228-.117-.656-.148-.822.09a.071.071,0,0,0,.061.106c.113-.006.214-.061.327-.07a.92.92,0,0,1,.357.055.1.1,0,0,0,.077-.181Z" transform="translate(-350.414 -246.188)" fill="#3b2645"/>
          <path id="Trazado_83" data-name="Trazado 83" d="M347.507,236.5a4.139,4.139,0,0,0,2.422-.249c.981-.543,2.636,2.249,2.589,3.411l.309-1.323-1.478-2.8-2.808-.209S347.235,236.041,347.507,236.5Z" transform="translate(-340.803 -234.577)" fill="#3b2645"/>
          <path id="Trazado_84" data-name="Trazado 84" d="M341.394,240.7a8.292,8.292,0,0,0-1.369,3.053l-.305-.535S340.219,240.263,341.394,240.7Z" transform="translate(-334.689 -238.772)" fill="#3b2645"/>
          <path id="Trazado_85" data-name="Trazado 85" d="M319.737,286.451c.718,1.346,2.612,3.5,2.7,5.517h10.19c.048-1.239,1.844-3.012,2.947-4.719a1.353,1.353,0,0,0-.38-.776,10.675,10.675,0,0,0-1.45-.624l-.325-.122c-.4-.151-.837-.306-1.265-.457-.721-.256-1.425-.495-1.927-.662a.328.328,0,0,0-.044-.015l-.118-.039a.537.537,0,0,0-.074-.025l-.016-.006-.112-.038c-.1-.035-.188-.062-.25-.085a.183.183,0,0,0-.031-.01c-.038-.012-.066-.02-.081-.027a7.735,7.735,0,0,1-4.178.021c-.056.019-.141.045-.256.085-.054.016-.116.038-.182.06l-.068.023-.1.033Z" transform="translate(-318.93 -273.252)" fill="#2f8dbd"/>
          <path id="Trazado_86" data-name="Trazado 86" d="M348.537,284.6l-2.728,5.77-2.8-5.75c.321-.107.563-.188.682-.226a7.73,7.73,0,0,0,4.173-.02C347.917,284.39,348.169,284.473,348.537,284.6Z" transform="translate(-337.278 -273.255)" fill="#23698c"/>
        </g>
      </g>
    </g>
  </g>
</svg>
