<svg xmlns="http://www.w3.org/2000/svg" xmlns:xlink="http://www.w3.org/1999/xlink" width="23" height="23" viewBox="0 0 23 23">
  <defs>
    <clipPath id="clip-path">
      <circle id="Ellipse_31" data-name="Ellipse 31" cx="10.5" cy="10.5" r="10.5" transform="translate(1251 858)" fill="#aedefc" stroke="#fff" stroke-width="1"/>
    </clipPath>
  </defs>
  <g id="Group_1334" data-name="Group 1334" transform="translate(-1250 -857)">
    <g id="Ellipse_9" data-name="Ellipse 9" transform="translate(1251 858)" fill="#aedefc" stroke="#fff" stroke-width="1">
      <circle cx="10.5" cy="10.5" r="10.5" stroke="none"/>
      <circle cx="10.5" cy="10.5" r="11" fill="none"/>
    </g>
    <g id="Mask_Group_4" data-name="Mask Group 4" clip-path="url(#clip-path)">
      <g id="Grupo_1327" data-name="Grupo 1327" transform="translate(1136.048 640.301)">
        <path id="Trazado_87" data-name="Trazado 87" d="M139.349,225.133a6.913,6.913,0,0,1,.045-2.641,1.45,1.45,0,0,1,.975-.97c.009,0,.173-1.088,2.4-1.17s4,.869,3.568,4.787l-.557.885-3.031-2.928s-2.6,1.681-2.827,2.478S139.349,225.133,139.349,225.133Z" transform="translate(-17.321 0)" fill="#8d2f21"/>
        <path id="Trazado_88" data-name="Trazado 88" d="M133.811,277.861H117.093s0-4.9.759-5.39a39.116,39.116,0,0,1,4.3-1.635c.755-.258,1.3-.436,1.3-.436h4.007s.552.181,1.313.44a38.657,38.657,0,0,1,4.282,1.631C133.811,272.953,133.811,277.861,133.811,277.861Z" transform="translate(0 -39.15)" fill="#ffd5c2"/>
        <path id="Trazado_89" data-name="Trazado 89" d="M150.283,261.3l-1.882.318v.052l-.159-.025-.154.025v-.052l-1.814-.318.1-.8.215-1.741H149.9l.184,1.234Z" transform="translate(-22.828 -30.05)" fill="#ffd5c2"/>
        <path id="Trazado_90" data-name="Trazado 90" d="M150.438,260a7.133,7.133,0,0,1-3.712.507l.215-1.741h3.312Z" transform="translate(-23.18 -30.051)" fill="#f6ae8d"/>
        <path id="Trazado_91" data-name="Trazado 91" d="M168.256,243.055s.276-1.092.963-.608,0,2.081-.968,2.07C168.251,244.519,167.993,243.449,168.256,243.055Z" transform="translate(-39.928 -17.19)" fill="#ffd5c2"/>
        <path id="Trazado_92" data-name="Trazado 92" d="M169.894,245.223a.885.885,0,0,0-.351.291,1.071,1.071,0,0,0-.239.386c-.011.045.05.064.08.033.072-.084.127-.181.193-.271a.5.5,0,0,0,.2.123c.06.014.095-.061.064-.106a.452.452,0,0,0-.167-.127,2.337,2.337,0,0,0,.275-.26.045.045,0,0,0-.055-.069Z" transform="translate(-40.84 -19.457)" fill="#f6ae8d"/>
        <path id="Trazado_93" data-name="Trazado 93" d="M137.873,242.581s-.276-1.092-.963-.608,0,2.081.968,2.07C137.878,244.044,138.137,242.974,137.873,242.581Z" transform="translate(-15.284 -16.819)" fill="#ffd5c2"/>
        <path id="Trazado_94" data-name="Trazado 94" d="M138.779,244.749a.886.886,0,0,1,.351.291,1.076,1.076,0,0,1,.239.386c.011.045-.051.064-.08.033-.072-.084-.127-.182-.193-.271a.5.5,0,0,1-.2.123c-.06.014-.095-.061-.064-.106a.448.448,0,0,1,.167-.127,2.326,2.326,0,0,1-.275-.26.045.045,0,0,1,.054-.068Z" transform="translate(-16.914 -19.086)" fill="#f6ae8d"/>
        <path id="Trazado_95" data-name="Trazado 95" d="M147.175,229.079c-.645-3.093-3.016-2.876-3.016-2.876s-2.372-.217-3.016,2.876a5.928,5.928,0,0,0,.275,3.441,2.827,2.827,0,0,0,5.482,0,5.929,5.929,0,0,0,.275-3.441Z" transform="translate(-18.706 -4.578)" fill="#ffd5c2"/>
        <path id="Trazado_96" data-name="Trazado 96" d="M153.805,242.232c-.139-.014-.451.084-.522-.061a4.029,4.029,0,0,1,.15-.99,12.331,12.331,0,0,0,.252-1.315.025.025,0,0,0-.049-.01,15.159,15.159,0,0,0-.513,2.406.068.068,0,0,0,.069.08c.2-.014.4.02.6.01C153.863,242.351,153.876,242.239,153.805,242.232Z" transform="translate(-28.183 -15.249)" fill="#f6ae8d"/>
        <path id="Trazado_97" data-name="Trazado 97" d="M151.007,254.887h1.911s-.357.676-.955.676S151.007,254.887,151.007,254.887Z" transform="translate(-26.528 -27.018)" fill="#fff"/>
        <path id="Trazado_98" data-name="Trazado 98" d="M148.628,241.8s-.26.1-.221-.365c.036-.415.221-.359.221-.359s.181,0,.154.361S148.628,241.8,148.628,241.8Z" transform="translate(-24.491 -16.216)" fill="#3b2645"/>
        <path id="Trazado_99" data-name="Trazado 99" d="M160.056,241.8s-.26.1-.221-.365c.036-.415.221-.359.221-.359s.181,0,.154.361S160.056,241.8,160.056,241.8Z" transform="translate(-33.43 -16.216)" fill="#3b2645"/>
        <path id="Trazado_100" data-name="Trazado 100" d="M148.112,237.849c-.224-.114-.643-.145-.806.089a.069.069,0,0,0,.06.1c.111-.006.209-.06.318-.069a.906.906,0,0,1,.35.054.1.1,0,0,0,.078-.178Z" transform="translate(-23.625 -13.623)" fill="#3b2645"/>
        <path id="Trazado_101" data-name="Trazado 101" d="M159.54,237.849c-.224-.114-.643-.145-.806.089a.069.069,0,0,0,.06.1c.111-.006.209-.06.318-.069a.907.907,0,0,1,.35.054.1.1,0,0,0,.078-.177Z" transform="translate(-32.564 -13.623)" fill="#3b2645"/>
        <path id="Trazado_102" data-name="Trazado 102" d="M141.4,228.857a8.134,8.134,0,0,0-1.343,2.994l-.3-.525S140.243,228.433,141.4,228.857Z" transform="translate(-17.725 -6.625)" fill="#8d2f21"/>
        <path id="Trazado_103" data-name="Trazado 103" d="M133.811,279.425H117.093s0-4.9.759-5.39a39.128,39.128,0,0,1,4.3-1.635c.292.925,1.185,3,3.312,3s3.015-2.065,3.307-2.992a38.632,38.632,0,0,1,4.282,1.631C133.811,274.52,133.811,279.425,133.811,279.425Z" transform="translate(0 -40.717)" fill="#1f457b"/>
        <path id="Trazado_104" data-name="Trazado 104" d="M147.295,224.509a3.9,3.9,0,0,0,2.715.7c1.221-.342,1.663,2.124.876,3.086,0,0,1.976-1.147,1.345-3.086S147.222,222.325,147.295,224.509Z" transform="translate(-23.622 -2.275)" fill="#8d2f21"/>
      </g>
    </g>
  </g>
</svg>
