<svg xmlns="http://www.w3.org/2000/svg" xmlns:xlink="http://www.w3.org/1999/xlink" width="21" height="21" viewBox="0 0 21 21">
  <defs>
    <clipPath id="clip-path">
      <path id="Path_746" data-name="Path 746" d="M10.5,0A10.5,10.5,0,1,1,0,10.5,10.5,10.5,0,0,1,10.5,0Z" transform="translate(1211 858)" fill="#364f6b" stroke="#707070" stroke-width="1"/>
    </clipPath>
  </defs>
  <g id="Mask_Group_1" data-name="Mask Group 1" transform="translate(-1211 -858)" clip-path="url(#clip-path)">
    <g id="Grupo_1328" data-name="Grupo 1328" transform="translate(-186.912 -133.033)">
      <path id="Trazado_27" data-name="Trazado 27" d="M286.88,56.05c-.032.551.039,1.216.53,1.468a1.7,1.7,0,0,0,.786.111,7.581,7.581,0,0,1,1.587.169,6.592,6.592,0,0,0,2.121.408c.728-.1,1.368-.53,2.1-.616a11.219,11.219,0,0,1,1.256.015,1.649,1.649,0,0,0,1.165-.383,1.8,1.8,0,0,0,.427-1.139,8.467,8.467,0,0,0-.535-3.6,19.654,19.654,0,0,0-1.146-2.526c-.4-.751-1.125-.552-1.624-1.249-1.01-1.412-3.671-.768-4.817.8a6.673,6.673,0,0,0-.942,2.155c-.2.708-.4,1.424-.571,2.138A12.483,12.483,0,0,0,286.88,56.05Z" transform="translate(1116.654 946.049)" fill="#f8efd4"/>
      <path id="Trazado_28" data-name="Trazado 28" d="M290.026,112.38H276.316a56.23,56.23,0,0,1,.9-5.6c.207-.6,1.627-.941,2.822-1.23l.254-.06a3.516,3.516,0,0,0,1.431-.514h2.9a3.6,3.6,0,0,0,1.454.518c.083.02.168.042.256.061,1.19.289,2.59.635,2.795,1.223A56.221,56.221,0,0,1,290.026,112.38Z" transform="translate(1125.241 899.654)" fill="#ffd5c2"/>
      <path id="Trazado_29" data-name="Trazado 29" d="M307.141,94.385l-1.755.874-1.755-.874a3.532,3.532,0,0,0,.414-1.134,6.382,6.382,0,0,0,.14-1.532h2.4a6.443,6.443,0,0,0,.073,1.165,3.87,3.87,0,0,0,.481,1.5Z" transform="translate(1103.026 910.432)" fill="#ffd5c2"/>
      <path id="Trazado_30" data-name="Trazado 30" d="M308.462,92.884a5.153,5.153,0,0,1-2.616.367,6.382,6.382,0,0,0,.14-1.532h2.4a6.452,6.452,0,0,0,.074,1.165Z" transform="translate(1101.225 910.432)" fill="#f6ae8d"/>
      <path id="Trazado_31" data-name="Trazado 31" d="M294.245,75.062s-.282-1.114-.982-.62,0,2.121.987,2.112C294.25,76.554,294.513,75.461,294.245,75.062Z" transform="translate(1111.689 924.586)" fill="#ffd5c2"/>
      <path id="Trazado_32" data-name="Trazado 32" d="M295.522,77.763a.9.9,0,0,1,.357.3,1.091,1.091,0,0,1,.243.4c.012.045-.052.064-.077.034-.073-.086-.129-.186-.2-.277a.509.509,0,0,1-.2.126.068.068,0,0,1-.064-.108.457.457,0,0,1,.171-.13,2.383,2.383,0,0,1-.281-.265.046.046,0,0,1,.049-.074Z" transform="translate(1109.672 921.783)" fill="#f6ae8d"/>
      <path id="Trazado_33" data-name="Trazado 33" d="M326.074,75.062s.282-1.114.982-.62,0,2.121-.987,2.112C326.069,76.554,325.806,75.461,326.074,75.062Z" transform="translate(1084.872 924.586)" fill="#ffd5c2"/>
      <path id="Trazado_34" data-name="Trazado 34" d="M327.94,77.763a.9.9,0,0,0-.357.3,1.092,1.092,0,0,0-.243.4c-.012.045.052.064.077.034.073-.086.129-.186.2-.277a.51.51,0,0,0,.2.126.069.069,0,0,0,.065-.108.458.458,0,0,0-.171-.13,2.373,2.373,0,0,0,.281-.265.046.046,0,0,0-.05-.074Z" transform="translate(1083.745 921.784)" fill="#f6ae8d"/>
      <path id="Trazado_35" data-name="Trazado 35" d="M303.362,58.989c-.582-2.795-2.726-2.6-2.726-2.6s-2.144-.2-2.726,2.6a5.358,5.358,0,0,0,.249,3.11,2.555,2.555,0,0,0,4.955,0,5.357,5.357,0,0,0,.249-3.11Z" transform="translate(1107.779 939.168)" fill="#ffd5c2"/>
      <path id="Trazado_36" data-name="Trazado 36" d="M305.249,73.8s-.238.088-.2-.332c.033-.379.2-.327.2-.327s.166,0,.14.33S305.249,73.8,305.249,73.8Z" transform="translate(1101.878 925.54)" fill="#3b2645"/>
      <path id="Trazado_37" data-name="Trazado 37" d="M318.258,73.8s-.238.088-.2-.332c.033-.379.2-.327.2-.327s.166,0,.141.33S318.258,73.8,318.258,73.8Z" transform="translate(1091.301 925.54)" fill="#3b2645"/>
      <path id="Trazado_38" data-name="Trazado 38" d="M310.64,86.739a2.679,2.679,0,0,1-.6.2c-.2.012-.376-.089-.565-.085a.03.03,0,0,0-.026.045c.218.339,1.042.234,1.233-.089a.044.044,0,0,0-.047-.068Z" transform="translate(1098.293 914.483)" fill="#f6ae8d"/>
      <path id="Trazado_39" data-name="Trazado 39" d="M304.546,69.4a.626.626,0,0,0-.409-.093c-.127,0-.311,0-.4.109a.023.023,0,0,0,.01.038,1.077,1.077,0,0,0,.357-.015,3.74,3.74,0,0,0,.407.032C304.546,69.467,304.577,69.429,304.546,69.4Z" transform="translate(1102.941 928.66)" fill="#3b2645"/>
      <path id="Trazado_40" data-name="Trazado 40" d="M317.974,68.9a.35.35,0,0,0-.358-.143c-.13.012-.326.049-.4.172a.034.034,0,0,0,.02.049c.1.029.2-.034.3-.055a.794.794,0,0,1,.383.047.049.049,0,0,0,.055-.069Z" transform="translate(1091.977 929.104)" fill="#3b2645"/>
      <path id="Trazado_41" data-name="Trazado 41" d="M310.271,75.078c-.106-.023-.359-.02-.4-.1a3.2,3.2,0,0,1,.185-.6,2.424,2.424,0,0,0,.071-1.009.019.019,0,0,0-.037,0c-.065.281-.068.571-.128.854s-.164.556-.25.833a.053.053,0,0,0,.051.066,1.389,1.389,0,0,0,.509.007.029.029,0,1,0,0-.058Z" transform="translate(1098.082 925.364)" fill="#f6ae8d"/>
      <path id="Trazado_42" data-name="Trazado 42" d="M296.464,114.615H286.87a4.008,4.008,0,0,1,.267-2.976h.4l.943-3.862.254-.06-.956,3.922h7.7l-.956-3.917c.083.02.168.042.256.062l.941,3.855h.465A4.762,4.762,0,0,1,296.464,114.615Z" transform="translate(1116.801 897.417)" fill="#c03ae9"/>
      <path id="Trazado_43" data-name="Trazado 43" d="M296.892,58.285a2.859,2.859,0,0,1,.959-1.616,6.441,6.441,0,0,0,1.454-1.651,2.2,2.2,0,0,0,1.6.958c1.013.046,1.687,2.427,1.687,2.427l.69-1.258-1.786-2.667H299.07l-2.183,1.007S296.429,57.829,296.892,58.285Z" transform="translate(1108.675 940.718)" fill="#f8efd4"/>
      <path id="Trazado_44" data-name="Trazado 44" d="M276.655,121.216a95.588,95.588,0,0,0,13.061,0s.258,1.719.311,2.579c0,0-8.959.727-13.711-.2Z" transform="translate(1125.241 886.443)" fill="#b881c9"/>
      <path id="Trazado_45" data-name="Trazado 45" d="M321.418,58.58c-.144.122-.284.249-.416.384a1.045,1.045,0,0,0-.3.415.083.083,0,0,0,.121.093,1.532,1.532,0,0,0,.386-.335c.129-.126.264-.246.4-.36S321.553,58.465,321.418,58.58Z" transform="translate(1089.145 937.411)" fill="#132743"/>
      <path id="Trazado_46" data-name="Trazado 46" d="M322.954,61.581a1.271,1.271,0,0,0-.368.5.061.061,0,0,0,.073.073,1.254,1.254,0,0,0,.477-.392C323.252,61.644,323.066,61.459,322.954,61.581Z" transform="translate(1087.612 934.975)" fill="#132743"/>
    </g>
  </g>
</svg>
