<svg xmlns="http://www.w3.org/2000/svg" xmlns:xlink="http://www.w3.org/1999/xlink" width="23" height="23" viewBox="0 0 23 23">
  <defs>
    <clipPath id="clip-path">
      <circle id="Ellipse_28" data-name="Ellipse 28" cx="10.5" cy="10.5" r="10.5" transform="translate(1237 858)" fill="#ffdfdf" stroke="#fff" stroke-width="1"/>
    </clipPath>
  </defs>
  <g id="Group_1330" data-name="Group 1330" transform="translate(-1236 -857)">
    <g id="Ellipse_7" data-name="Ellipse 7" transform="translate(1237 858)" fill="#ffdfdf" stroke="#fff" stroke-width="1">
      <circle cx="10.5" cy="10.5" r="10.5" stroke="none"/>
      <circle cx="10.5" cy="10.5" r="11" fill="none"/>
    </g>
    <g id="Mask_Group_2" data-name="Mask Group 2" clip-path="url(#clip-path)">
      <g id="Grupo_1324" data-name="Grupo 1324" transform="translate(1105.585 827.973)">
        <path id="Trazado_4" data-name="Trazado 4" d="M158.351,37.883a7.307,7.307,0,0,1,.047-2.791,1.529,1.529,0,0,1,1.03-1.026c.01,0,.183-1.147,2.542-1.237s4.232.918,3.772,5.06l-.59.937-3.2-3.094s-2.746,1.776-2.987,2.619S158.351,37.883,158.351,37.883Z" transform="translate(-20.057)" fill="#132743"/>
        <path id="Trazado_5" data-name="Trazado 5" d="M150.748,97.562H133.081s0-5.182.8-5.7a28.321,28.321,0,0,1,3.377-1.329c.369-.129.727-.25,1.051-.36.853-.291,1.484-.5,1.484-.5h4.234s.66.217,1.546.519c.489.167,1.051.36,1.6.555a22.317,22.317,0,0,1,2.771,1.115C150.748,92.379,150.748,97.562,150.748,97.562Z" transform="translate(0 -45.332)" fill="#ffd5c2"/>
        <path id="Trazado_6" data-name="Trazado 6" d="M170.461,79.14l-1.771.3-.219.036v.055l-.165-.026-.116.019-.045.007v-.055l-1.919-.333.05-.388.055-.45.227-1.84h3.5l.191,1.3.119.8Z" transform="translate(-26.431 -34.793)" fill="#ffd5c2"/>
        <path id="Trazado_7" data-name="Trazado 7" d="M170.666,77.766a7.538,7.538,0,0,1-3.918.535l.227-1.84h3.5Z" transform="translate(-26.843 -34.793)" fill="#f6ae8d"/>
        <path id="Trazado_8" data-name="Trazado 8" d="M191.184,58.56s.291-1.154,1.018-.643,0,2.2-1.024,2.19C191.184,60.107,190.908,58.975,191.184,58.56Z" transform="translate(-46.233 -19.903)" fill="#ffd5c2"/>
        <path id="Trazado_9" data-name="Trazado 9" d="M193,61.082a.937.937,0,0,0-.371.307,1.132,1.132,0,0,0-.252.408c-.012.047.053.067.08.035.076-.089.134-.191.2-.287a.527.527,0,0,0,.211.131c.063.015.1-.065.067-.112a.478.478,0,0,0-.177-.135,2.443,2.443,0,0,0,.287-.274.048.048,0,0,0-.049-.074Z" transform="translate(-47.288 -22.529)" fill="#f6ae8d"/>
        <path id="Trazado_10" data-name="Trazado 10" d="M156.586,58.021s-.291-1.154-1.018-.643,0,2.2,1.023,2.19C156.592,59.568,156.864,58.436,156.586,58.021Z" transform="translate(-17.698 -19.473)" fill="#ffd5c2"/>
        <path id="Trazado_11" data-name="Trazado 11" d="M157.708,60.543a.936.936,0,0,1,.371.307,1.13,1.13,0,0,1,.251.408c.012.047-.054.067-.08.035-.076-.089-.134-.191-.2-.287a.527.527,0,0,1-.211.131c-.063.015-.1-.065-.068-.112a.478.478,0,0,1,.177-.135,2.444,2.444,0,0,1-.287-.274.048.048,0,0,1,.052-.074Z" transform="translate(-19.588 -22.099)" fill="#f6ae8d"/>
        <path id="Trazado_12" data-name="Trazado 12" d="M166.763,42.516c-.681-3.269-3.189-3.04-3.189-3.04s-2.507-.229-3.189,3.04a6.268,6.268,0,0,0,.291,3.638,2.988,2.988,0,0,0,5.794,0,6.268,6.268,0,0,0,.292-3.638Z" transform="translate(-21.66 -5.302)" fill="#ffd5c2"/>
        <path id="Trazado_13" data-name="Trazado 13" d="M174.727,57.492c-.146-.014-.478.089-.552-.065a4.258,4.258,0,0,1,.159-1.046,13.073,13.073,0,0,0,.267-1.39.028.028,0,0,0-.052-.011,16.041,16.041,0,0,0-.542,2.543.073.073,0,0,0,.074.087c.213-.013.422.021.636.011C174.792,57.619,174.8,57.5,174.727,57.492Z" transform="translate(-32.634 -17.655)" fill="#f6ae8d"/>
        <path id="Trazado_14" data-name="Trazado 14" d="M168.883,57.139s-.275.1-.234-.382c.037-.439.234-.382.234-.382s.191,0,.162.382S168.883,57.139,168.883,57.139Z" transform="translate(-28.359 -18.776)" fill="#132743"/>
        <path id="Trazado_15" data-name="Trazado 15" d="M181.862,57.139s-.275.1-.233-.382c.037-.439.233-.382.233-.382s.191,0,.162.382S181.862,57.139,181.862,57.139Z" transform="translate(-38.709 -18.776)" fill="#132743"/>
        <path id="Trazado_16" data-name="Trazado 16" d="M168.25,52.7c-.237-.12-.68-.153-.852.1a.074.074,0,0,0,.063.11c.118-.006.222-.063.339-.073a.955.955,0,0,1,.37.057.1.1,0,0,0,.08-.19Z" transform="translate(-27.356 -15.772)" fill="#132743"/>
        <path id="Trazado_17" data-name="Trazado 17" d="M181.23,52.7c-.237-.12-.679-.153-.852.1a.074.074,0,0,0,.063.11c.118-.006.222-.063.339-.073a.956.956,0,0,1,.371.057.1.1,0,0,0,.079-.19Z" transform="translate(-37.705 -15.772)" fill="#132743"/>
        <path id="Trazado_18" data-name="Trazado 18" d="M167.236,37.906a4.294,4.294,0,0,0,2.511-.258c1.018-.563,2.732,2.333,2.684,3.536l.32-1.372-1.529-2.9-2.912-.217S166.954,37.428,167.236,37.906Z" transform="translate(-27.205 -3.086)" fill="#132743"/>
        <path id="Trazado_19" data-name="Trazado 19" d="M160.556,42.5a8.6,8.6,0,0,0-1.42,3.165l-.316-.554S159.339,42.04,160.556,42.5Z" transform="translate(-20.525 -7.672)" fill="#132743"/>
        <path id="Trazado_20" data-name="Trazado 20" d="M170.477,69.2s-1.33.125-1.352,1.008-.312,1.8,1.352,2.007,1.707-1.121,1.782-1.676S172.069,69.166,170.477,69.2Z" transform="translate(-28.715 -29.003)" fill="#132743"/>
        <path id="Trazado_21" data-name="Trazado 21" d="M172.908,72.668a.471.471,0,0,1-.182-.558c.089-.257.217-.3.669-.382.882-.161,1.093.418.982.74a1.7,1.7,0,0,1-1.47.2Z" transform="translate(-31.593 -30.994)" fill="#ffd5c2"/>
        <path id="Trazado_22" data-name="Trazado 22" d="M175.039,73.138a1.279,1.279,0,0,1-.483.1,1.551,1.551,0,0,0-.393-.034.031.031,0,0,0-.018.046.51.51,0,0,0,.412.148,1.132,1.132,0,0,0,.545-.107C175.185,73.246,175.124,73.109,175.039,73.138Z" transform="translate(-32.741 -32.139)" fill="#f6ae8d"/>
        <path id="Trazado_23" data-name="Trazado 23" d="M163.624,88.492l-3.853,3.548-5.374-.679-.688-3.084c.369-.129.727-.25,1.051-.36.853-.291,1.484-.5,1.484-.5l.05-.388a3.478,3.478,0,0,1,1.433.388,1.9,1.9,0,0,1,.433.333c.015.015.03.032.045.05a1.471,1.471,0,0,1,.205.3,2.53,2.53,0,0,1,.293-.382,2.7,2.7,0,0,1,.3-.3,2.421,2.421,0,0,1,1.379-.573l.088.573s.66.217,1.546.519C162.516,88.1,163.074,88.292,163.624,88.492Z" transform="translate(-16.451 -43.071)" fill="#132743"/>
        <path id="Trazado_24" data-name="Trazado 24" d="M150.748,99.528H133.081s0-5.182.8-5.7a28.321,28.321,0,0,1,3.377-1.329c.369-.129.727-.25,1.051-.36.36,1.074,1.362,3.206,3.636,3.206s3.262-2.108,3.631-3.186c.489.167,1.051.36,1.6.555a22.315,22.315,0,0,1,2.771,1.115C150.748,94.344,150.748,99.528,150.748,99.528Z" transform="translate(0 -47.297)" fill="#132743"/>
        <path id="Trazado_25" data-name="Trazado 25" d="M176.749,102.447a.167.167,0,0,0-.106-.041h-.021a.2.2,0,0,0-.2.2v.019a.2.2,0,0,0,.1.177.226.226,0,0,0,.335-.142A.191.191,0,0,0,176.749,102.447Z" transform="translate(-34.559 -55.478)" fill="#fff"/>
        <path id="Trazado_26" data-name="Trazado 26" d="M176.749,96.089a.166.166,0,0,0-.106-.041h-.021a.2.2,0,0,0-.2.2v.019a.2.2,0,0,0,.1.177.226.226,0,0,0,.335-.142.191.191,0,0,0-.11-.213Z" transform="translate(-34.559 -50.409)" fill="#fff"/>
      </g>
    </g>
  </g>
</svg>
