<svg xmlns="http://www.w3.org/2000/svg" xmlns:xlink="http://www.w3.org/1999/xlink" width="375" height="231" viewBox="0 0 375 231">
  <defs>
    <clipPath id="clip-path">
      <rect id="Rectangle_22" data-name="Rectangle 22" width="375" height="231" fill="#ffdfdf"/>
    </clipPath>
  </defs>
  <g id="Group_1300" data-name="Group 1300" transform="translate(723 -97)">
    <rect id="Rectangle_21" data-name="Rectangle 21" width="375" height="231" transform="translate(-723 97)" fill="#fb929e"/>
    <g id="Group_1299" data-name="Group 1299" transform="translate(-723 97)" clip-path="url(#clip-path)">
      <g id="Group_1230" data-name="Group 1230" transform="translate(302.943 156.972)">
        <g id="Group_1227" data-name="Group 1227" transform="translate(43.779 38.988)">
          <circle id="Ellipse_26" data-name="Ellipse 26" cx="9.734" cy="9.734" r="9.734" fill="#364f6b"/>
        </g>
        <g id="Group_1229" data-name="Group 1229">
          <g id="Group_1228" data-name="Group 1228">
            <path id="Path_677" data-name="Path 677" d="M-419.714,216.176A73.286,73.286,0,0,0-493,289.462a73.286,73.286,0,0,0,73.286,73.286,73.286,73.286,0,0,0,73.286-73.286A73.286,73.286,0,0,0-419.714,216.176Zm0,131.148a57.862,57.862,0,0,1-57.862-57.862A57.862,57.862,0,0,1-419.714,231.6a57.863,57.863,0,0,1,57.863,57.862A57.863,57.863,0,0,1-419.714,347.324Z" transform="translate(493 -216.176)" fill="#ffdfdf"/>
          </g>
        </g>
      </g>
      <g id="Group_1297" data-name="Group 1297" transform="translate(-78.071 161.171)">
        <g id="Group_1231" data-name="Group 1231" transform="translate(82.984 3.216)">
          <path id="Path_678" data-name="Path 678" d="M-692.519,201.457l-12.867,12.865q-.983-.178-1.969-.322l13.1-13.1Q-693.386,201.166-692.519,201.457Z" transform="translate(707.355 -200.903)" fill="#b4621c"/>
        </g>
        <g id="Group_1232" data-name="Group 1232" transform="translate(89.652 5.307)">
          <path id="Path_679" data-name="Path 679" d="M-687.328,203.46l-12.224,12.224c-.591-.179-1.187-.35-1.783-.508l12.385-12.385C-688.408,203.006-687.866,203.231-687.328,203.46Z" transform="translate(701.335 -202.791)" fill="#b4621c"/>
        </g>
        <g id="Group_1233" data-name="Group 1233" transform="translate(95.715 7.797)">
          <path id="Path_680" data-name="Path 680" d="M-682.467,205.817l-11.766,11.764q-.809-.346-1.628-.662l11.88-11.88Q-683.222,205.418-682.467,205.817Z" transform="translate(695.861 -205.039)" fill="#b4621c"/>
        </g>
        <g id="Group_1295" data-name="Group 1295">
          <g id="Group_1235" data-name="Group 1235" transform="translate(13.231 13.231)">
            <g id="Group_1234" data-name="Group 1234">
              <path id="Path_681" data-name="Path 681" d="M-751.537,209.945l-18.791,18.791a74.876,74.876,0,0,1,8.559-10.233A74.8,74.8,0,0,1-751.537,209.945Z" transform="translate(770.328 -209.945)" fill="#b4621c"/>
            </g>
          </g>
          <g id="Group_1237" data-name="Group 1237" transform="translate(4.537 4.537)">
            <g id="Group_1236" data-name="Group 1236">
              <path id="Path_682" data-name="Path 682" d="M-733.949,202.1l-44.228,44.228q.7-1.919,1.513-3.806l38.909-38.909Q-735.869,202.8-733.949,202.1Z" transform="translate(778.177 -202.096)" fill="#b4621c"/>
            </g>
          </g>
          <g id="Group_1239" data-name="Group 1239" transform="translate(1.41 1.41)">
            <g id="Group_1238" data-name="Group 1238">
              <path id="Path_683" data-name="Path 683" d="M-722.471,199.273-781,257.8q.289-1.472.64-2.933l54.955-54.955Q-723.944,199.561-722.471,199.273Z" transform="translate(781 -199.273)" fill="#ffdfdf"/>
            </g>
          </g>
          <g id="Group_1242" data-name="Group 1242" transform="translate(0.18 0.18)">
            <g id="Group_1240" data-name="Group 1240" transform="translate(0 40.85)">
              <path id="Path_684" data-name="Path 684" d="M-756.216,235.042a58.191,58.191,0,0,0-3.563,5.856l-22.332,22.332q.086-1.256.218-2.51Z" transform="translate(782.111 -235.042)" fill="#ffdfdf"/>
            </g>
            <g id="Group_1241" data-name="Group 1241" transform="translate(40.85)">
              <path id="Path_685" data-name="Path 685" d="M-717.043,198.162l-22.331,22.331a58.2,58.2,0,0,0-5.856,3.563l25.678-25.678Q-718.3,198.248-717.043,198.162Z" transform="translate(745.231 -198.162)" fill="#ffdfdf"/>
            </g>
          </g>
          <g id="Group_1245" data-name="Group 1245" transform="translate(0.003 0.003)">
            <g id="Group_1243" data-name="Group 1243" transform="translate(0 56.771)">
              <path id="Path_686" data-name="Path 686" d="M-763.894,249.256q-.5,1.587-.9,3.194l-17.415,17.416q-.046-1.117-.056-2.235Z" transform="translate(782.27 -249.256)" fill="#ffdfdf"/>
            </g>
            <g id="Group_1244" data-name="Group 1244" transform="translate(56.771)">
              <path id="Path_687" data-name="Path 687" d="M-710.407,198.059l-17.415,17.415q-1.608.4-3.2.9L-712.642,198Q-711.524,198.015-710.407,198.059Z" transform="translate(731.017 -198.003)" fill="#ffdfdf"/>
            </g>
          </g>
          <g id="Group_1248" data-name="Group 1248" transform="translate(0.468 0.466)">
            <g id="Group_1246" data-name="Group 1246" transform="translate(0 66.591)">
              <path id="Path_688" data-name="Path 688" d="M-766.175,258.54q-.161,1.276-.266,2.556L-781.6,276.25q-.145-1.015-.256-2.035Z" transform="translate(781.851 -258.54)" fill="#ffdfdf"/>
            </g>
            <g id="Group_1247" data-name="Group 1247" transform="translate(66.59)">
              <path id="Path_689" data-name="Path 689" d="M-704.023,198.678l-15.154,15.154q-1.279.1-2.557.266l15.676-15.677Q-705.037,198.534-704.023,198.678Z" transform="translate(721.733 -198.421)" fill="#ffdfdf"/>
            </g>
          </g>
          <g id="Group_1251" data-name="Group 1251" transform="translate(1.577 1.577)">
            <g id="Group_1249" data-name="Group 1249" transform="translate(0 73.974)">
              <path id="Path_690" data-name="Path 690" d="M-766.647,268.417-780.431,282.2q-.224-.935-.418-1.874l14.119-14.119Q-766.711,267.313-766.647,268.417Z" transform="translate(780.849 -266.208)" fill="#ffdfdf"/>
            </g>
            <g id="Group_1250" data-name="Group 1250" transform="translate(73.974)">
              <path id="Path_691" data-name="Path 691" d="M-698.071,199.842l-13.785,13.785q-1.1-.063-2.209-.083l14.119-14.119Q-699.007,199.618-698.071,199.842Z" transform="translate(714.065 -199.424)" fill="#ffdfdf"/>
            </g>
          </g>
          <g id="Group_1252" data-name="Group 1252" transform="translate(3.216 82.984)">
            <path id="Path_692" data-name="Path 692" d="M-765.951,274.887l-12.865,12.867q-.291-.867-.554-1.739l13.1-13.1Q-766.13,273.9-765.951,274.887Z" transform="translate(779.37 -272.918)" fill="#b4621c"/>
          </g>
          <g id="Group_1253" data-name="Group 1253" transform="translate(5.307 89.652)">
            <path id="Path_693" data-name="Path 693" d="M-764.589,280.721l-12.224,12.224c-.229-.538-.454-1.08-.669-1.623l12.385-12.385C-764.939,279.534-764.768,280.13-764.589,280.721Z" transform="translate(777.482 -278.938)" fill="#b4621c"/>
          </g>
          <g id="Group_1254" data-name="Group 1254" transform="translate(7.797 95.715)">
            <path id="Path_694" data-name="Path 694" d="M-762.692,286.04l-11.764,11.766q-.4-.754-.778-1.514l11.88-11.88Q-763.037,285.231-762.692,286.04Z" transform="translate(775.234 -284.412)" fill="#b4621c"/>
          </g>
          <g id="Group_1255" data-name="Group 1255" transform="translate(10.652 101.263)">
            <path id="Path_695" data-name="Path 695" d="M-760.333,290.914-771.78,302.36q-.449-.7-.876-1.416l11.523-11.523C-760.875,289.922-760.61,290.42-760.333,290.914Z" transform="translate(772.656 -289.421)" fill="#b4621c"/>
          </g>
          <g id="Group_1256" data-name="Group 1256" transform="translate(101.263 10.652)">
            <path id="Path_696" data-name="Path 696" d="M-677.913,208.493l-11.445,11.445c-.494-.276-.991-.541-1.493-.8l11.523-11.523Q-678.616,208.044-677.913,208.493Z" transform="translate(690.852 -207.617)" fill="#ffdfdf"/>
          </g>
          <g id="Group_1257" data-name="Group 1257" transform="translate(13.846 106.353)">
            <path id="Path_697" data-name="Path 697" d="M-757.567,295.388-768.8,306.626q-.493-.658-.97-1.323l11.287-11.287Q-758.041,294.709-757.567,295.388Z" transform="translate(769.773 -294.016)" fill="#b4621c"/>
          </g>
          <g id="Group_1258" data-name="Group 1258" transform="translate(106.353 13.846)">
            <path id="Path_698" data-name="Path 698" d="M-673.647,211.47l-11.236,11.236q-.681-.474-1.373-.919L-674.97,210.5Q-674.305,210.975-673.647,211.47Z" transform="translate(686.257 -210.5)" fill="#ffdfdf"/>
          </g>
          <g id="Group_1259" data-name="Group 1259" transform="translate(17.364 111.026)">
            <path id="Path_699" data-name="Path 699" d="M-754.418,299.492l-11.12,11.121q-.539-.611-1.059-1.233l11.144-11.145Q-754.946,298.87-754.418,299.492Z" transform="translate(766.597 -298.235)" fill="#b4621c"/>
          </g>
          <g id="Group_1260" data-name="Group 1260" transform="translate(111.025 17.364)">
            <path id="Path_700" data-name="Path 700" d="M-669.66,214.735l-11.121,11.12q-.623-.528-1.258-1.035l11.146-11.144Q-670.271,214.2-669.66,214.735Z" transform="translate(682.039 -213.676)" fill="#ffdfdf"/>
          </g>
          <g id="Group_1261" data-name="Group 1261" transform="translate(21.191 115.302)">
            <path id="Path_701" data-name="Path 701" d="M-750.907,303.241-762,314.331q-.274-.266-.546-.538c-.2-.2-.4-.4-.6-.607l11.091-11.091c.2.2.4.407.6.608C-751.271,302.885-751.09,303.063-750.907,303.241Z" transform="translate(763.142 -302.095)" fill="#b4621c"/>
          </g>
          <g id="Group_1262" data-name="Group 1262" transform="translate(115.302 21.191)">
            <path id="Path_702" data-name="Path 702" d="M-665.942,218.276l-11.09,11.09c-.178-.183-.357-.364-.538-.546-.2-.2-.4-.4-.608-.6l11.09-11.091c.2.2.405.4.608.6Q-666.208,218-665.942,218.276Z" transform="translate(678.178 -217.131)" fill="#ffdfdf"/>
          </g>
          <g id="Group_1263" data-name="Group 1263" transform="translate(25.32 119.19)">
            <path id="Path_703" data-name="Path 703" d="M-747.039,306.642l-11.143,11.143q-.621-.522-1.232-1.059l11.121-11.121Q-747.672,306.137-747.039,306.642Z" transform="translate(759.414 -305.605)" fill="#b4621c"/>
          </g>
          <g id="Group_1264" data-name="Group 1264" transform="translate(119.19 25.32)">
            <path id="Path_704" data-name="Path 704" d="M-662.488,222.091l-11.143,11.143q-.507-.633-1.037-1.255l11.121-11.12Q-663.009,221.47-662.488,222.091Z" transform="translate(674.668 -220.859)" fill="#ffdfdf"/>
          </g>
          <g id="Group_1265" data-name="Group 1265" transform="translate(29.756 122.688)">
            <path id="Path_705" data-name="Path 705" d="M-742.8,309.683l-11.284,11.284q-.666-.477-1.321-.971l11.234-11.233Q-743.5,309.235-742.8,309.683Z" transform="translate(755.409 -308.763)" fill="#b4621c"/>
          </g>
          <g id="Group_1266" data-name="Group 1266" transform="translate(122.688 29.756)">
            <path id="Path_706" data-name="Path 706" d="M-659.306,226.185l-11.284,11.284q-.449-.691-.92-1.371l11.233-11.234Q-659.782,225.519-659.306,226.185Z" transform="translate(671.51 -224.864)" fill="#ffdfdf"/>
          </g>
          <g id="Group_1267" data-name="Group 1267" transform="translate(34.511 125.771)">
            <path id="Path_707" data-name="Path 707" d="M-738.182,312.347l-11.519,11.52q-.711-.429-1.416-.877l11.441-11.442Q-738.934,311.961-738.182,312.347Z" transform="translate(751.116 -311.547)" fill="#b4621c"/>
          </g>
          <g id="Group_1268" data-name="Group 1268" transform="translate(125.773 34.511)">
            <path id="Path_708" data-name="Path 708" d="M-656.407,230.571l-11.52,11.52q-.387-.753-.8-1.493l11.441-11.441Q-656.835,229.86-656.407,230.571Z" transform="translate(668.725 -229.157)" fill="#ffdfdf"/>
          </g>
          <g id="Group_1269" data-name="Group 1269" transform="translate(39.6 128.414)">
            <path id="Path_709" data-name="Path 709" d="M-733.137,314.6l-11.871,11.871q-.759-.377-1.514-.779l11.759-11.758Q-733.954,314.279-733.137,314.6Z" transform="translate(746.522 -313.933)" fill="#b4621c"/>
          </g>
          <g id="Group_1270" data-name="Group 1270" transform="translate(128.414 39.6)">
            <path id="Path_710" data-name="Path 710" d="M-653.8,235.265l-11.871,11.871q-.321-.816-.666-1.626l11.758-11.759Q-654.18,234.505-653.8,235.265Z" transform="translate(666.34 -233.751)" fill="#ffdfdf"/>
          </g>
          <g id="Group_1271" data-name="Group 1271" transform="translate(45.045 130.561)">
            <path id="Path_711" data-name="Path 711" d="M-727.611,316.382l-12.377,12.377q-.811-.326-1.618-.672l12.215-12.215Q-728.5,316.142-727.611,316.382Z" transform="translate(741.606 -315.871)" fill="#b4621c"/>
          </g>
          <g id="Group_1272" data-name="Group 1272" transform="translate(130.562 45.045)">
            <path id="Path_712" data-name="Path 712" d="M-651.515,240.285l-12.376,12.377q-.241-.894-.511-1.781l12.214-12.214Q-651.84,239.473-651.515,240.285Z" transform="translate(664.401 -238.667)" fill="#ffdfdf"/>
          </g>
          <g id="Group_1273" data-name="Group 1273" transform="translate(50.877 132.135)">
            <path id="Path_713" data-name="Path 713" d="M-721.521,317.619-734.6,330.7c-.58-.177-1.161-.361-1.737-.554l12.857-12.857Q-722.506,317.473-721.521,317.619Z" transform="translate(736.341 -317.292)" fill="#b4621c"/>
          </g>
          <g id="Group_1274" data-name="Group 1274" transform="translate(132.135 50.877)">
            <path id="Path_714" data-name="Path 714" d="M-649.571,245.669l-13.084,13.084q-.146-.985-.327-1.964l12.857-12.857C-649.932,244.508-649.748,245.088-649.571,245.669Z" transform="translate(662.981 -243.932)" fill="#ffdfdf"/>
          </g>
          <g id="Group_1277" data-name="Group 1277" transform="translate(57.144 57.144)">
            <g id="Group_1275" data-name="Group 1275" transform="translate(0 75.859)">
              <path id="Path_715" data-name="Path 715" d="M-714.712,318.165l-14.1,14.1q-.939-.2-1.872-.42l13.768-13.768Q-715.813,318.141-714.712,318.165Z" transform="translate(730.683 -318.076)" fill="#ffdfdf"/>
            </g>
            <g id="Group_1276" data-name="Group 1276" transform="translate(75.859)">
              <path id="Path_716" data-name="Path 716" d="M-648.009,251.462l-14.1,14.1q-.023-1.1-.089-2.2l13.768-13.768Q-648.2,250.524-648.009,251.462Z" transform="translate(662.197 -249.59)" fill="#ffdfdf"/>
            </g>
          </g>
          <g id="Group_1280" data-name="Group 1280" transform="translate(63.912 63.912)">
            <g id="Group_1278" data-name="Group 1278" transform="translate(0 68.753)">
              <path id="Path_717" data-name="Path 717" d="M-706.894,317.771l-15.646,15.645q-1.018-.113-2.034-.259l15.127-15.127Q-708.17,317.928-706.894,317.771Z" transform="translate(724.573 -317.771)" fill="#ffdfdf"/>
            </g>
            <g id="Group_1279" data-name="Group 1279" transform="translate(68.753)">
              <path id="Path_718" data-name="Path 718" d="M-646.857,257.734-662.5,273.379q.156-1.274.258-2.552l15.127-15.127Q-646.97,256.715-646.857,257.734Z" transform="translate(662.502 -255.7)" fill="#ffdfdf"/>
            </g>
          </g>
          <g id="Group_1283" data-name="Group 1283" transform="translate(71.287 71.287)">
            <g id="Group_1281" data-name="Group 1281" transform="translate(0 59.181)">
              <path id="Path_719" data-name="Path 719" d="M-700.546,316.674q1.6-.4,3.179-.887L-715.683,334.1c-.743-.008-1.489-.028-2.232-.06Z" transform="translate(717.915 -315.787)" fill="#ffdfdf"/>
            </g>
            <g id="Group_1282" data-name="Group 1282" transform="translate(59.181)">
              <path id="Path_720" data-name="Path 720" d="M-646.169,264.59l-18.317,18.316q.49-1.58.887-3.179l17.369-17.369C-646.2,263.1-646.177,263.847-646.169,264.59Z" transform="translate(664.486 -262.358)" fill="#ffdfdf"/>
            </g>
          </g>
          <g id="Group_1286" data-name="Group 1286" transform="translate(79.441 79.441)">
            <g id="Group_1284" data-name="Group 1284" transform="translate(0 43.549)">
              <path id="Path_721" data-name="Path 721" d="M-688.351,312.462a58.2,58.2,0,0,0,5.718-3.426l-25.417,25.416q-1.249.13-2.5.213Z" transform="translate(710.553 -309.036)" fill="#ffdfdf"/>
            </g>
            <g id="Group_1285" data-name="Group 1285" transform="translate(43.549)">
              <path id="Path_722" data-name="Path 722" d="M-645.608,269.72q-.081,1.253-.213,2.5l-25.416,25.416a58.182,58.182,0,0,0,3.426-5.717Z" transform="translate(671.237 -269.72)" fill="#ffdfdf"/>
            </g>
          </g>
          <g id="Group_1288" data-name="Group 1288" transform="translate(88.697 88.696)">
            <g id="Group_1287" data-name="Group 1287">
              <path id="Path_723" data-name="Path 723" d="M-643.483,278.075q-.287,1.467-.634,2.926l-55.155,55.155q-1.457.347-2.925.634Z" transform="translate(702.197 -278.075)" fill="#ffdfdf"/>
            </g>
          </g>
          <g id="Group_1290" data-name="Group 1290" transform="translate(99.828 99.828)">
            <g id="Group_1289" data-name="Group 1289">
              <path id="Path_724" data-name="Path 724" d="M-647.65,288.125q-.693,1.909-1.493,3.785l-39.22,39.22q-1.874.8-3.785,1.493Z" transform="translate(692.148 -288.125)" fill="#ffdfdf"/>
            </g>
          </g>
          <g id="Group_1292" data-name="Group 1292" transform="translate(116.367 116.367)">
            <g id="Group_1291" data-name="Group 1291">
              <path id="Path_725" data-name="Path 725" d="M-657.748,303.057a74.782,74.782,0,0,1-8.836,10.632,74.684,74.684,0,0,1-10.632,8.834Z" transform="translate(677.216 -303.057)" fill="#ffdfdf"/>
            </g>
          </g>
          <g id="Group_1294" data-name="Group 1294">
            <g id="Group_1293" data-name="Group 1293">
              <path id="Path_726" data-name="Path 726" d="M-633.488,271.519c-.009-.743-.029-1.489-.061-2.232q-.108-2.675-.414-5.341-.113-1.018-.259-2.034-.346-2.459-.86-4.9-.2-.939-.42-1.872-.538-2.281-1.226-4.53c-.177-.58-.361-1.161-.554-1.737q-.706-2.127-1.543-4.214-.324-.811-.672-1.618-.851-1.986-1.825-3.931-.375-.759-.779-1.514-.98-1.859-2.081-3.674-.429-.713-.877-1.414-1.107-1.741-2.322-3.434-.477-.666-.971-1.321-1.223-1.63-2.551-3.2-.522-.621-1.059-1.232-1.338-1.522-2.773-2.984-.266-.274-.538-.546c-.2-.2-.4-.4-.608-.6q-1.465-1.434-2.987-2.768-.611-.538-1.233-1.059-1.577-1.326-3.209-2.548-.658-.5-1.323-.97-1.693-1.213-3.438-2.317-.7-.45-1.416-.876-1.814-1.1-3.677-2.078-.754-.4-1.514-.778-1.946-.97-3.936-1.821c-.538-.229-1.08-.454-1.623-.669q-2.089-.837-4.217-1.537-.867-.291-1.739-.554-2.251-.685-4.536-1.221-.935-.224-1.874-.418-2.439-.51-4.9-.854-1.015-.145-2.035-.257-2.668-.3-5.349-.407-1.116-.047-2.235-.056-2.967-.028-5.932.176-1.256.086-2.51.217-3.4.351-6.769,1.014-1.472.289-2.933.64a73.738,73.738,0,0,0-8.241,2.487q-1.919.7-3.806,1.513a73.679,73.679,0,0,0-12.936,7.181,74.8,74.8,0,0,0-10.233,8.559,74.876,74.876,0,0,0-8.559,10.233,73.68,73.68,0,0,0-7.181,12.936q-.811,1.886-1.513,3.806a73.667,73.667,0,0,0-2.487,8.241q-.351,1.46-.64,2.933h0q-.663,3.363-1.012,6.768-.133,1.253-.218,2.51-.2,2.962-.176,5.932.012,1.118.056,2.235.106,2.678.408,5.349.113,1.02.256,2.035.344,2.462.854,4.9.194.939.418,1.874.535,2.285,1.221,4.536.264.872.554,1.739.7,2.127,1.537,4.217c.215.543.44,1.084.669,1.623q.851,1.987,1.821,3.935.379.759.778,1.514.98,1.863,2.078,3.677.427.713.876,1.416,1.1,1.743,2.317,3.438.475.665.97,1.323,1.221,1.632,2.548,3.209.52.621,1.059,1.233,1.334,1.524,2.768,2.988c.2.2.4.405.6.607q.272.272.546.538,1.462,1.436,2.984,2.772.611.537,1.232,1.059,1.574,1.326,3.2,2.551.655.5,1.321.971,1.691,1.215,3.434,2.322.7.447,1.416.877,1.813,1.1,3.673,2.081.754.4,1.514.779,1.944.975,3.931,1.825.806.347,1.618.672,2.087.839,4.214,1.543c.576.193,1.156.377,1.737.554q2.248.686,4.53,1.226.934.224,1.872.42,2.436.513,4.9.86,1.015.146,2.034.259,2.665.306,5.341.414c.743.032,1.489.052,2.232.06q2.964.037,5.923-.165,1.253-.083,2.5-.213,3.393-.341,6.753-1,1.465-.287,2.925-.634a73.505,73.505,0,0,0,8.206-2.451q1.909-.693,3.785-1.493a73.581,73.581,0,0,0,12.755-7A74.69,74.69,0,0,0-655.273,325a74.778,74.778,0,0,0,8.836-10.632,73.711,73.711,0,0,0,7-12.755q.8-1.874,1.493-3.785a73.5,73.5,0,0,0,2.451-8.206q.347-1.457.634-2.926.655-3.356,1-6.752.13-1.249.213-2.5Q-633.453,274.484-633.488,271.519Zm-25.8,33.841a59,59,0,0,1-7.08,8.55,59.05,59.05,0,0,1-8.549,7.08,58.2,58.2,0,0,1-5.718,3.426,58.261,58.261,0,0,1-9.808,4.052q-1.578.49-3.179.887a58.144,58.144,0,0,1-7.065,1.31q-1.275.156-2.552.258-2.957.233-5.924.168-1.1-.023-2.2-.089-2.615-.153-5.215-.542-.985-.146-1.964-.327-2.363-.434-4.693-1.063-.894-.239-1.78-.511-2.16-.655-4.276-1.481-.816-.321-1.626-.666-1.984-.846-3.913-1.843-.751-.387-1.493-.8-1.824-1.009-3.591-2.163-.691-.449-1.371-.92-1.681-1.165-3.3-2.461-.633-.507-1.254-1.037-1.543-1.308-3.015-2.741c-.183-.178-.364-.357-.546-.538-.2-.2-.4-.4-.6-.608q-1.432-1.472-2.739-3.018-.527-.621-1.035-1.257-1.294-1.615-2.456-3.3-.474-.68-.919-1.372-1.153-1.766-2.158-3.6c-.277-.494-.542-.992-.8-1.493q-.994-1.931-1.837-3.92-.346-.809-.662-1.628-.824-2.115-1.477-4.28c-.18-.591-.35-1.187-.509-1.783q-.626-2.331-1.057-4.7-.178-.984-.322-1.969-.384-2.6-.533-5.224-.063-1.1-.083-2.209a58.671,58.671,0,0,1,.18-5.937q.1-1.279.266-2.556a58.291,58.291,0,0,1,1.331-7.089q.405-1.607.9-3.195a58.051,58.051,0,0,1,4.132-9.888,58.2,58.2,0,0,1,3.563-5.856,59.018,59.018,0,0,1,6.805-8.15,59.026,59.026,0,0,1,8.15-6.805,58.212,58.212,0,0,1,5.856-3.563,58.048,58.048,0,0,1,9.888-4.132q1.587-.5,3.2-.9a58.287,58.287,0,0,1,7.088-1.331q1.278-.161,2.556-.266a58.665,58.665,0,0,1,5.937-.181q1.1.018,2.209.083,2.62.15,5.224.533.987.143,1.969.322,2.364.432,4.7,1.057c.6.158,1.192.329,1.783.508q2.162.651,4.28,1.477.819.317,1.628.662,1.985.842,3.92,1.837c.5.258,1,.523,1.493.8q1.829,1.005,3.6,2.159.693.445,1.374.919,1.681,1.16,3.3,2.456.635.507,1.258,1.035,1.545,1.309,3.018,2.739c.2.2.408.4.608.6.182.182.36.363.538.546q1.434,1.47,2.741,3.014.532.623,1.037,1.255,1.3,1.613,2.461,3.3.472.68.92,1.371,1.155,1.764,2.164,3.591.412.741.8,1.493,1,1.929,1.843,3.913.346.809.666,1.626.824,2.113,1.482,4.274.269.887.511,1.781.63,2.328,1.062,4.693.181.979.327,1.964.387,2.6.542,5.215.065,1.1.089,2.2.063,2.962-.168,5.924-.1,1.276-.258,2.552a58.129,58.129,0,0,1-1.31,7.065q-.4,1.6-.887,3.179a58.257,58.257,0,0,1-4.052,9.808A58.17,58.17,0,0,1-659.283,305.36Z" transform="translate(782.273 -198)" fill="#ffdfdf"/>
            </g>
          </g>
        </g>
        <g id="Group_1296" data-name="Group 1296" transform="translate(40.319 40.319)">
          <path id="Path_727" data-name="Path 727" d="M-677.721,268.476a34.154,34.154,0,0,1-.423,5.378q-.229,1.459-.583,2.874a33.911,33.911,0,0,1-4.371,10.127,34.245,34.245,0,0,1-10.32,10.32,33.91,33.91,0,0,1-10.127,4.371q-1.414.352-2.873.583a34.164,34.164,0,0,1-5.379.423c-.265,0-.528,0-.791-.01q-1.1-.023-2.173-.118a33.995,33.995,0,0,1-4.959-.8q-.914-.218-1.808-.484a33.544,33.544,0,0,1-4.2-1.559q-.786-.351-1.551-.741a33.971,33.971,0,0,1-3.616-2.14q-.683-.46-1.338-.953a34.258,34.258,0,0,1-3.114-2.643q-.586-.558-1.144-1.146a34.579,34.579,0,0,1-2.635-3.121q-.49-.66-.95-1.342a33.556,33.556,0,0,1-2.13-3.625q-.39-.766-.74-1.553a33.362,33.362,0,0,1-1.547-4.208q-.266-.9-.48-1.812a33.788,33.788,0,0,1-.784-4.972q-.091-1.08-.112-2.179c0-.224-.007-.446-.007-.671a34.156,34.156,0,0,1,.446-5.525q.239-1.469.6-2.893a33.917,33.917,0,0,1,4.555-10.31A34.284,34.284,0,0,1-730.525,240a33.917,33.917,0,0,1,10.31-4.555q1.424-.362,2.893-.6a34.162,34.162,0,0,1,5.525-.446c.225,0,.448,0,.671.007q1.1.022,2.179.112a33.8,33.8,0,0,1,4.972.784q.917.213,1.812.48a33.358,33.358,0,0,1,4.208,1.547q.788.349,1.553.74a33.561,33.561,0,0,1,3.627,2.13q.681.46,1.341.95a34.581,34.581,0,0,1,3.121,2.635q.588.557,1.146,1.144a34.262,34.262,0,0,1,2.643,3.114q.492.656.953,1.338A33.993,33.993,0,0,1-681.43,253q.389.764.741,1.551a33.545,33.545,0,0,1,1.558,4.2q.268.894.484,1.808a34,34,0,0,1,.8,4.958q.095,1.078.119,2.174C-677.723,267.948-677.721,268.211-677.721,268.476Z" transform="translate(745.873 -234.4)" fill="#364f6b"/>
        </g>
      </g>
      <g id="Group_1298" data-name="Group 1298" transform="translate(340.153 81.386)">
        <path id="Path_728" data-name="Path 728" d="M-464.749,179.425l35.742,20.635V158.789Z" transform="translate(464.749 -158.789)" fill="#364f6b"/>
      </g>
    </g>
    <g id="Group_1321" data-name="Group 1321" transform="translate(81.165 -3.747)" opacity="0.68">
      <g id="Group_1304" data-name="Group 1304">
        <g id="Group_1301" data-name="Group 1301">
          <path id="Path_729" data-name="Path 729" d="M-606.62,224.171a.547.547,0,0,1-.385-.159.549.549,0,0,1-.16-.386.552.552,0,0,1,.16-.385.487.487,0,0,1,.083-.067.5.5,0,0,1,.094-.05.485.485,0,0,1,.1-.032.505.505,0,0,1,.212,0,.486.486,0,0,1,.1.032.447.447,0,0,1,.094.05.452.452,0,0,1,.083.067.55.55,0,0,1,.16.385.474.474,0,0,1-.011.107.528.528,0,0,1-.032.1.494.494,0,0,1-.049.094.55.55,0,0,1-.068.083A.547.547,0,0,1-606.62,224.171Z" fill="#fff"/>
        </g>
        <g id="Group_1302" data-name="Group 1302">
          <path id="Path_730" data-name="Path 730" d="M-525.279,223.626a.544.544,0,0,1,.545-.544h0a.544.544,0,0,1,.545.544h0a.545.545,0,0,1-.545.545h0A.545.545,0,0,1-525.279,223.626Zm-8.188,0a.544.544,0,0,1,.545-.544h0a.544.544,0,0,1,.545.544h0a.545.545,0,0,1-.545.545h0A.545.545,0,0,1-533.467,223.626Zm-8.189,0a.544.544,0,0,1,.545-.544h0a.544.544,0,0,1,.545.544h0a.545.545,0,0,1-.545.545h0A.545.545,0,0,1-541.656,223.626Zm-8.188,0a.544.544,0,0,1,.545-.544h0a.544.544,0,0,1,.545.544h0a.545.545,0,0,1-.545.545h0A.545.545,0,0,1-549.844,223.626Zm-8.189,0a.544.544,0,0,1,.545-.544h0a.543.543,0,0,1,.544.544h0a.544.544,0,0,1-.544.545h0A.545.545,0,0,1-558.033,223.626Zm-8.188,0a.544.544,0,0,1,.545-.544h0a.543.543,0,0,1,.544.544h0a.544.544,0,0,1-.544.545h0A.545.545,0,0,1-566.221,223.626Zm-8.189,0a.543.543,0,0,1,.544-.544h0a.544.544,0,0,1,.545.544h0a.545.545,0,0,1-.545.545h0A.544.544,0,0,1-574.41,223.626Zm-8.188,0a.543.543,0,0,1,.544-.544h0a.544.544,0,0,1,.545.544h0a.545.545,0,0,1-.545.545h0A.544.544,0,0,1-582.6,223.626Zm-8.19,0a.544.544,0,0,1,.545-.544h0a.544.544,0,0,1,.545.544h0a.545.545,0,0,1-.545.545h0A.545.545,0,0,1-590.788,223.626Zm-8.188,0a.544.544,0,0,1,.545-.544h0a.544.544,0,0,1,.545.544h0a.545.545,0,0,1-.545.545h0A.545.545,0,0,1-598.976,223.626Z" fill="#fff"/>
        </g>
        <g id="Group_1303" data-name="Group 1303">
          <path id="Path_731" data-name="Path 731" d="M-516.545,224.171a.547.547,0,0,1-.385-.159.542.542,0,0,1-.068-.083.656.656,0,0,1-.051-.094.594.594,0,0,1-.03-.1.474.474,0,0,1-.011-.107.546.546,0,0,1,.16-.385.45.45,0,0,1,.083-.067.445.445,0,0,1,.094-.05.526.526,0,0,1,.1-.032.5.5,0,0,1,.212,0,.535.535,0,0,1,.1.032.532.532,0,0,1,.094.05.528.528,0,0,1,.083.067.556.556,0,0,1,.159.385.552.552,0,0,1-.159.386A.549.549,0,0,1-516.545,224.171Z" fill="#fff"/>
        </g>
      </g>
      <g id="Group_1308" data-name="Group 1308">
        <g id="Group_1305" data-name="Group 1305">
          <path id="Path_732" data-name="Path 732" d="M-606.62,214.732a.477.477,0,0,1-.106-.011.483.483,0,0,1-.1-.032.558.558,0,0,1-.094-.049.547.547,0,0,1-.083-.068.561.561,0,0,1-.069-.083.639.639,0,0,1-.049-.094.6.6,0,0,1-.031-.1.536.536,0,0,1-.011-.106.536.536,0,0,1,.011-.106.586.586,0,0,1,.031-.1.693.693,0,0,1,.049-.094.688.688,0,0,1,.069-.083.534.534,0,0,1,.083-.066.5.5,0,0,1,.094-.051.549.549,0,0,1,.1-.031.505.505,0,0,1,.212,0,.551.551,0,0,1,.1.031.449.449,0,0,1,.094.051.492.492,0,0,1,.083.066.6.6,0,0,1,.068.083.609.609,0,0,1,.051.094.584.584,0,0,1,.03.1.471.471,0,0,1,.011.106.552.552,0,0,1-.16.385.6.6,0,0,1-.083.068.494.494,0,0,1-.094.049.484.484,0,0,1-.1.032A.477.477,0,0,1-606.62,214.732Z" fill="#fff"/>
        </g>
        <g id="Group_1306" data-name="Group 1306">
          <path id="Path_733" data-name="Path 733" d="M-525.279,214.187a.545.545,0,0,1,.545-.545h0a.545.545,0,0,1,.545.545h0a.545.545,0,0,1-.545.545h0A.545.545,0,0,1-525.279,214.187Zm-8.188,0a.545.545,0,0,1,.545-.545h0a.545.545,0,0,1,.545.545h0a.545.545,0,0,1-.545.545h0A.545.545,0,0,1-533.467,214.187Zm-8.189,0a.545.545,0,0,1,.545-.545h0a.545.545,0,0,1,.545.545h0a.545.545,0,0,1-.545.545h0A.545.545,0,0,1-541.656,214.187Zm-8.188,0a.545.545,0,0,1,.545-.545h0a.545.545,0,0,1,.545.545h0a.545.545,0,0,1-.545.545h0A.545.545,0,0,1-549.844,214.187Zm-8.189,0a.545.545,0,0,1,.545-.545h0a.544.544,0,0,1,.544.545h0a.544.544,0,0,1-.544.545h0A.545.545,0,0,1-558.033,214.187Zm-8.188,0a.545.545,0,0,1,.545-.545h0a.544.544,0,0,1,.544.545h0a.544.544,0,0,1-.544.545h0A.545.545,0,0,1-566.221,214.187Zm-8.189,0a.544.544,0,0,1,.544-.545h0a.545.545,0,0,1,.545.545h0a.545.545,0,0,1-.545.545h0A.544.544,0,0,1-574.41,214.187Zm-8.188,0a.544.544,0,0,1,.544-.545h0a.545.545,0,0,1,.545.545h0a.545.545,0,0,1-.545.545h0A.544.544,0,0,1-582.6,214.187Zm-8.19,0a.545.545,0,0,1,.545-.545h0a.545.545,0,0,1,.545.545h0a.545.545,0,0,1-.545.545h0A.545.545,0,0,1-590.788,214.187Zm-8.188,0a.545.545,0,0,1,.545-.545h0a.545.545,0,0,1,.545.545h0a.545.545,0,0,1-.545.545h0A.545.545,0,0,1-598.976,214.187Z" fill="#fff"/>
        </g>
        <g id="Group_1307" data-name="Group 1307">
          <path id="Path_734" data-name="Path 734" d="M-516.545,214.732a.47.47,0,0,1-.106-.011.524.524,0,0,1-.1-.032.492.492,0,0,1-.094-.049.5.5,0,0,1-.083-.068.548.548,0,0,1-.16-.385.472.472,0,0,1,.011-.106.579.579,0,0,1,.03-.1.713.713,0,0,1,.051-.094.534.534,0,0,1,.068-.083.49.49,0,0,1,.083-.066.448.448,0,0,1,.094-.051.6.6,0,0,1,.1-.031.548.548,0,0,1,.492.148.586.586,0,0,1,.066.083.541.541,0,0,1,.051.094.586.586,0,0,1,.031.1.54.54,0,0,1,.011.106.556.556,0,0,1-.159.385A.554.554,0,0,1-516.545,214.732Z" fill="#fff"/>
        </g>
      </g>
      <g id="Group_1312" data-name="Group 1312">
        <g id="Group_1309" data-name="Group 1309">
          <path id="Path_735" data-name="Path 735" d="M-606.62,205.292a.547.547,0,0,1-.385-.159.488.488,0,0,1-.067-.083.5.5,0,0,1-.051-.094.586.586,0,0,1-.031-.1.544.544,0,0,1-.011-.106.543.543,0,0,1,.011-.106.6.6,0,0,1,.031-.1.638.638,0,0,1,.049-.094.687.687,0,0,1,.069-.083.546.546,0,0,1,.083-.068.557.557,0,0,1,.094-.049.485.485,0,0,1,.1-.032.581.581,0,0,1,.212,0,.486.486,0,0,1,.1.032.493.493,0,0,1,.094.049.5.5,0,0,1,.083.068.552.552,0,0,1,.16.385.477.477,0,0,1-.011.106.459.459,0,0,1-.032.1.494.494,0,0,1-.049.094.55.55,0,0,1-.068.083A.547.547,0,0,1-606.62,205.292Z" fill="#fff"/>
        </g>
        <g id="Group_1310" data-name="Group 1310">
          <path id="Path_736" data-name="Path 736" d="M-525.279,204.747a.545.545,0,0,1,.545-.545h0a.545.545,0,0,1,.545.545h0a.545.545,0,0,1-.545.545h0A.545.545,0,0,1-525.279,204.747Zm-8.188,0a.545.545,0,0,1,.545-.545h0a.545.545,0,0,1,.545.545h0a.545.545,0,0,1-.545.545h0A.545.545,0,0,1-533.467,204.747Zm-8.189,0a.545.545,0,0,1,.545-.545h0a.545.545,0,0,1,.545.545h0a.545.545,0,0,1-.545.545h0A.545.545,0,0,1-541.656,204.747Zm-8.188,0a.545.545,0,0,1,.545-.545h0a.545.545,0,0,1,.545.545h0a.545.545,0,0,1-.545.545h0A.545.545,0,0,1-549.844,204.747Zm-8.189,0a.545.545,0,0,1,.545-.545h0a.544.544,0,0,1,.544.545h0a.544.544,0,0,1-.544.545h0A.545.545,0,0,1-558.033,204.747Zm-8.188,0a.545.545,0,0,1,.545-.545h0a.544.544,0,0,1,.544.545h0a.544.544,0,0,1-.544.545h0A.545.545,0,0,1-566.221,204.747Zm-8.189,0a.544.544,0,0,1,.544-.545h0a.545.545,0,0,1,.545.545h0a.545.545,0,0,1-.545.545h0A.544.544,0,0,1-574.41,204.747Zm-8.188,0a.544.544,0,0,1,.544-.545h0a.545.545,0,0,1,.545.545h0a.545.545,0,0,1-.545.545h0A.544.544,0,0,1-582.6,204.747Zm-8.19,0a.545.545,0,0,1,.545-.545h0a.545.545,0,0,1,.545.545h0a.545.545,0,0,1-.545.545h0A.545.545,0,0,1-590.788,204.747Zm-8.188,0a.545.545,0,0,1,.545-.545h0a.545.545,0,0,1,.545.545h0a.545.545,0,0,1-.545.545h0A.545.545,0,0,1-598.976,204.747Z" fill="#fff"/>
        </g>
        <g id="Group_1311" data-name="Group 1311">
          <path id="Path_737" data-name="Path 737" d="M-516.545,205.292a.547.547,0,0,1-.385-.159.491.491,0,0,1-.068-.083.655.655,0,0,1-.051-.094.578.578,0,0,1-.03-.1.471.471,0,0,1-.011-.106.477.477,0,0,1,.011-.106.594.594,0,0,1,.03-.1.655.655,0,0,1,.051-.094.533.533,0,0,1,.068-.083.5.5,0,0,1,.083-.068.491.491,0,0,1,.094-.049.526.526,0,0,1,.1-.032.581.581,0,0,1,.212,0,.514.514,0,0,1,.1.032.6.6,0,0,1,.094.049.6.6,0,0,1,.083.068.556.556,0,0,1,.159.385.548.548,0,0,1-.011.106.586.586,0,0,1-.031.1.507.507,0,0,1-.051.094.534.534,0,0,1-.066.083.6.6,0,0,1-.083.068.607.607,0,0,1-.094.05.529.529,0,0,1-.1.03A.471.471,0,0,1-516.545,205.292Z" fill="#fff"/>
        </g>
      </g>
      <g id="Group_1316" data-name="Group 1316">
        <g id="Group_1313" data-name="Group 1313">
          <path id="Path_738" data-name="Path 738" d="M-606.62,195.852a.551.551,0,0,1-.385-.159.552.552,0,0,1-.16-.385.554.554,0,0,1,.16-.386.555.555,0,0,1,.385-.159.55.55,0,0,1,.385.159.554.554,0,0,1,.16.386.548.548,0,0,1-.16.385A.546.546,0,0,1-606.62,195.852Z" fill="#fff"/>
        </g>
        <g id="Group_1314" data-name="Group 1314">
          <path id="Path_739" data-name="Path 739" d="M-525.279,195.308a.545.545,0,0,1,.545-.545h0a.545.545,0,0,1,.545.545h0a.544.544,0,0,1-.545.544h0A.544.544,0,0,1-525.279,195.308Zm-8.188,0a.545.545,0,0,1,.545-.545h0a.545.545,0,0,1,.545.545h0a.544.544,0,0,1-.545.544h0A.544.544,0,0,1-533.467,195.308Zm-8.189,0a.545.545,0,0,1,.545-.545h0a.545.545,0,0,1,.545.545h0a.544.544,0,0,1-.545.544h0A.544.544,0,0,1-541.656,195.308Zm-8.188,0a.545.545,0,0,1,.545-.545h0a.545.545,0,0,1,.545.545h0a.544.544,0,0,1-.545.544h0A.544.544,0,0,1-549.844,195.308Zm-8.189,0a.545.545,0,0,1,.545-.545h0a.544.544,0,0,1,.544.545h0a.543.543,0,0,1-.544.544h0A.544.544,0,0,1-558.033,195.308Zm-8.188,0a.545.545,0,0,1,.545-.545h0a.544.544,0,0,1,.544.545h0a.543.543,0,0,1-.544.544h0A.544.544,0,0,1-566.221,195.308Zm-8.189,0a.544.544,0,0,1,.544-.545h0a.545.545,0,0,1,.545.545h0a.544.544,0,0,1-.545.544h0A.543.543,0,0,1-574.41,195.308Zm-8.188,0a.544.544,0,0,1,.544-.545h0a.545.545,0,0,1,.545.545h0a.544.544,0,0,1-.545.544h0A.543.543,0,0,1-582.6,195.308Zm-8.19,0a.545.545,0,0,1,.545-.545h0a.545.545,0,0,1,.545.545h0a.544.544,0,0,1-.545.544h0A.544.544,0,0,1-590.788,195.308Zm-8.188,0a.545.545,0,0,1,.545-.545h0a.545.545,0,0,1,.545.545h0a.544.544,0,0,1-.545.544h0A.544.544,0,0,1-598.976,195.308Z" fill="#fff"/>
        </g>
        <g id="Group_1315" data-name="Group 1315">
          <path id="Path_740" data-name="Path 740" d="M-516.545,195.852a.547.547,0,0,1-.385-.159.544.544,0,0,1-.16-.385.55.55,0,0,1,.16-.386.552.552,0,0,1,.385-.159.558.558,0,0,1,.386.159.558.558,0,0,1,.159.386.555.555,0,0,1-.159.385.6.6,0,0,1-.083.068.712.712,0,0,1-.094.051.607.607,0,0,1-.1.03A.469.469,0,0,1-516.545,195.852Z" fill="#fff"/>
        </g>
      </g>
      <g id="Group_1320" data-name="Group 1320">
        <g id="Group_1317" data-name="Group 1317">
          <path id="Path_741" data-name="Path 741" d="M-606.62,186.413a.547.547,0,0,1-.385-.159.531.531,0,0,1-.067-.083.5.5,0,0,1-.051-.094.586.586,0,0,1-.031-.1.528.528,0,0,1-.011-.106.552.552,0,0,1,.16-.385.552.552,0,0,1,.385-.16.549.549,0,0,1,.385.16.552.552,0,0,1,.16.385.528.528,0,0,1-.011.106.516.516,0,0,1-.032.1.494.494,0,0,1-.049.094.6.6,0,0,1-.068.083A.543.543,0,0,1-606.62,186.413Z" fill="#fff"/>
        </g>
        <g id="Group_1318" data-name="Group 1318">
          <path id="Path_742" data-name="Path 742" d="M-525.279,185.868a.545.545,0,0,1,.545-.545h0a.545.545,0,0,1,.545.545h0a.545.545,0,0,1-.545.545h0A.545.545,0,0,1-525.279,185.868Zm-8.188,0a.545.545,0,0,1,.545-.545h0a.545.545,0,0,1,.545.545h0a.545.545,0,0,1-.545.545h0A.545.545,0,0,1-533.467,185.868Zm-8.189,0a.545.545,0,0,1,.545-.545h0a.545.545,0,0,1,.545.545h0a.545.545,0,0,1-.545.545h0A.545.545,0,0,1-541.656,185.868Zm-8.188,0a.545.545,0,0,1,.545-.545h0a.545.545,0,0,1,.545.545h0a.545.545,0,0,1-.545.545h0A.545.545,0,0,1-549.844,185.868Zm-8.189,0a.545.545,0,0,1,.545-.545h0a.544.544,0,0,1,.544.545h0a.544.544,0,0,1-.544.545h0A.545.545,0,0,1-558.033,185.868Zm-8.188,0a.545.545,0,0,1,.545-.545h0a.544.544,0,0,1,.544.545h0a.544.544,0,0,1-.544.545h0A.545.545,0,0,1-566.221,185.868Zm-8.189,0a.544.544,0,0,1,.544-.545h0a.545.545,0,0,1,.545.545h0a.545.545,0,0,1-.545.545h0A.544.544,0,0,1-574.41,185.868Zm-8.188,0a.544.544,0,0,1,.544-.545h0a.545.545,0,0,1,.545.545h0a.545.545,0,0,1-.545.545h0A.544.544,0,0,1-582.6,185.868Zm-8.19,0a.545.545,0,0,1,.545-.545h0a.545.545,0,0,1,.545.545h0a.545.545,0,0,1-.545.545h0A.545.545,0,0,1-590.788,185.868Zm-8.188,0a.545.545,0,0,1,.545-.545h0a.545.545,0,0,1,.545.545h0a.545.545,0,0,1-.545.545h0A.545.545,0,0,1-598.976,185.868Z" fill="#fff"/>
        </g>
        <g id="Group_1319" data-name="Group 1319">
          <path id="Path_743" data-name="Path 743" d="M-516.545,186.413a.47.47,0,0,1-.106-.011.518.518,0,0,1-.1-.03.559.559,0,0,1-.094-.05.556.556,0,0,1-.083-.068.534.534,0,0,1-.068-.083.656.656,0,0,1-.051-.094.579.579,0,0,1-.03-.1.465.465,0,0,1-.011-.106.548.548,0,0,1,.16-.385.548.548,0,0,1,.385-.16.554.554,0,0,1,.386.16.586.586,0,0,1,.066.083.507.507,0,0,1,.051.094.6.6,0,0,1,.031.1.548.548,0,0,1,.011.106.532.532,0,0,1-.011.106.586.586,0,0,1-.031.1.507.507,0,0,1-.051.094.586.586,0,0,1-.066.083A.549.549,0,0,1-516.545,186.413Z" fill="#fff"/>
        </g>
      </g>
    </g>
    <g id="Group_1322" data-name="Group 1322" transform="translate(-36.988 843.585) rotate(90)">
      <path id="Path_744" data-name="Path 744" d="M-566.526,462.631a.339.339,0,0,1-.339-.339c0-1.395,1.11-2.089,2.09-2.7.949-.594,1.77-1.107,1.77-2.125s-.822-1.531-1.77-2.125c-.98-.612-2.09-1.306-2.09-2.7s1.11-2.089,2.09-2.7c.949-.594,1.77-1.107,1.77-2.125s-.822-1.531-1.77-2.123c-.98-.612-2.09-1.306-2.09-2.7s1.11-2.089,2.09-2.7c.949-.594,1.77-1.107,1.77-2.125s-.822-1.531-1.77-2.125c-.98-.612-2.09-1.306-2.09-2.7s1.11-2.089,2.09-2.7c.949-.594,1.77-1.107,1.77-2.125s-.822-1.531-1.77-2.125c-.98-.612-2.09-1.306-2.09-2.7s1.11-2.09,2.09-2.7c.949-.594,1.77-1.107,1.77-2.126s-.822-1.531-1.77-2.125c-.98-.612-2.09-1.306-2.09-2.7a.34.34,0,0,1,.339-.339.339.339,0,0,1,.339.339c0,1.018.82,1.531,1.772,2.125.979.612,2.089,1.306,2.089,2.7s-1.11,2.09-2.089,2.7c-.952.594-1.772,1.107-1.772,2.125s.82,1.531,1.772,2.125c.979.612,2.089,1.306,2.089,2.7s-1.11,2.089-2.089,2.7c-.952.594-1.772,1.107-1.772,2.125s.82,1.531,1.772,2.125c.979.612,2.089,1.306,2.089,2.7s-1.11,2.089-2.089,2.7c-.952.594-1.772,1.107-1.772,2.125s.82,1.531,1.772,2.123c.979.612,2.089,1.307,2.089,2.7s-1.11,2.089-2.089,2.7c-.952.594-1.772,1.107-1.772,2.125s.82,1.531,1.772,2.125c.979.612,2.089,1.306,2.089,2.7s-1.11,2.089-2.089,2.7c-.952.594-1.772,1.107-1.772,2.125A.338.338,0,0,1-566.526,462.631Z" transform="translate(0 0)" fill="#fff"/>
    </g>
    <g id="Group_1323" data-name="Group 1323" transform="translate(-70.496 -151.317)">
      <path id="Path_745" data-name="Path 745" d="M-544.736,435.264h-2.688v-2.688h-1.392v2.688H-551.5v1.392h2.688v2.688h1.392v-2.688h2.688Z" fill="#364f6b"/>
    </g>
  </g>
</svg>
