<svg id="Layer_2" data-name="Layer 2" xmlns="http://www.w3.org/2000/svg" width="23.641" height="20.004" viewBox="0 0 23.641 20.004">
  <path id="Path_654" data-name="Path 654" d="M26.367,8.819H10.909a.909.909,0,0,1,0-1.819H26.367a.909.909,0,0,1,0,1.819Z" transform="translate(-3.635 -5.181)" fill="#fff"/>
  <path id="Path_655" data-name="Path 655" d="M6.637,8.819H3.909A.909.909,0,0,1,3.909,7H6.637a.909.909,0,0,1,0,1.819Z" transform="translate(-3 -5.181)" fill="#fff"/>
  <path id="Path_656" data-name="Path 656" d="M19.367,16.819H3.909a.909.909,0,0,1,0-1.819H19.367a.909.909,0,0,1,0,1.819Z" transform="translate(-3 -5.907)" fill="#ffdfdf"/>
  <path id="Path_657" data-name="Path 657" d="M10.274,24.819H3.909a.909.909,0,0,1,0-1.819h6.365a.909.909,0,1,1,0,1.819Z" transform="translate(-3 -6.633)" fill="#fff"/>
  <path id="Path_658" data-name="Path 658" d="M8.728,10.456a2.728,2.728,0,1,1,2.728-2.728A2.728,2.728,0,0,1,8.728,10.456Zm0-3.637a.909.909,0,1,0,.909.909A.909.909,0,0,0,8.728,6.819Z" transform="translate(-3.272 -5)" fill="#fff"/>
  <path id="Path_659" data-name="Path 659" d="M22.728,18.456a2.728,2.728,0,1,1,2.728-2.728A2.728,2.728,0,0,1,22.728,18.456Zm0-3.637a.909.909,0,1,0,.909.909A.909.909,0,0,0,22.728,14.819Z" transform="translate(-4.542 -5.726)" fill="#ffdfdf"/>
  <path id="Path_660" data-name="Path 660" d="M12.728,26.456a2.728,2.728,0,1,1,2.728-2.728A2.728,2.728,0,0,1,12.728,26.456Zm0-3.637a.909.909,0,1,0,.909.909A.909.909,0,0,0,12.728,22.819Z" transform="translate(-3.635 -6.452)" fill="#fff"/>
  <path id="Path_661" data-name="Path 661" d="M27.637,16.819H24.909a.909.909,0,1,1,0-1.819h2.728a.909.909,0,1,1,0,1.819Z" transform="translate(-4.905 -5.907)" fill="#ffdfdf"/>
  <path id="Path_662" data-name="Path 662" d="M26.73,24.819H14.909a.909.909,0,0,1,0-1.819H26.73a.909.909,0,1,1,0,1.819Z" transform="translate(-3.998 -6.633)" fill="#fff"/>
</svg>
