<svg xmlns="http://www.w3.org/2000/svg" width="18.334" height="20" viewBox="0 0 18.334 20">
  <g id="notification_1_" data-name="notification (1)" transform="translate(0.001)">
    <path id="Path_2" data-name="Path 2" d="M138.027,450.5a3.13,3.13,0,0,0,3.062-2.5h-6.123A3.13,3.13,0,0,0,138.027,450.5Zm0,0" transform="translate(-129.694 -430.5)" fill="#fff"/>
    <path id="Path_3" data-name="Path 3" d="M14.176,51h-.01a5.84,5.84,0,0,1-5.833-5.833A5.781,5.781,0,0,1,8.89,42.7c-.183-.017-.369-.028-.558-.028A5.833,5.833,0,0,0,2.5,48.5v2.323A5.588,5.588,0,0,1,.509,55.1a1.458,1.458,0,0,0-.458,1.5,1.529,1.529,0,0,0,1.5,1.069H15.112a1.528,1.528,0,0,0,1.523-1.156,1.461,1.461,0,0,0-.5-1.427A5.545,5.545,0,0,1,14.176,51Zm0,0" transform="translate(0 -41.001)" fill="#fff"/>
    <path id="Path_4" data-name="Path 4" d="M264.345,4.167A4.167,4.167,0,1,1,260.179,0,4.167,4.167,0,0,1,264.345,4.167Zm0,0" transform="translate(-246.013)" fill="#faff5e"/>
  </g>
</svg>
